<svg xmlns="http://www.w3.org/2000/svg" xmlns:xlink="http://www.w3.org/1999/xlink" version="1.1" x="0px" y="0px" viewBox="0 0 100 125" style="enable-background:new 0 0 100 100;" xml:space="preserve"><path d="M61.2,63.6c-0.1-0.6-0.1-1.3-0.2-1.9c0,0,0.1-0.1,0.1-0.2c0.1-0.1,0.2-0.1,0.3-0.1c0,0-0.1,0-0.1,0  c-0.1,0.1-0.2,0.1-0.3,0.2c0-0.4-0.1-0.7-0.1-1.1c-0.2-1.4-0.4-2.9-0.6-4.3c-0.1-0.5-0.4-2.4-0.8-4.4c-0.2-1-0.5-2-0.8-2.9  c-0.2-0.4-0.3-0.8-0.5-1.2c0-0.1-0.1-0.2-0.1-0.2c0-0.1-0.1-0.1-0.1-0.2c-0.1-0.1-0.1-0.3-0.2-0.4l-0.1-0.1  c-0.3-0.4-0.7-0.8-1.2-1.1c-0.4-0.3-0.9-0.5-1.3-0.7c-0.4-0.1-0.7-0.2-1.1-0.4c0.2,0.1,0.3,0.2,0.4,0.2c-0.4-0.1-0.7-0.3-0.8-0.3  c-0.7-0.3-0.4,0-0.1,0.1c0.2,0.1-0.1,0,0.2,0.2c-0.2-0.1-0.4-0.1-0.6-0.2c0,0,0.7,0.3,0.5,0.3c-0.2-0.1-0.5-0.2-0.7-0.3  c0.1,0.1,0.8,0.3,0.7,0.4c-0.1,0-0.6-0.3-0.7-0.3c0,0,0,0,0,0c-0.2-0.1-0.4-0.1-0.5-0.2c-0.1,0-0.1,0,0.3,0.2  c-0.1,0-0.3-0.1-0.4-0.2c-0.1-0.1-0.3-0.1-0.4-0.2c0.1,0.1,0.3,0.2,0.4,0.2c-0.1-0.1-0.3-0.1-0.4-0.2c0,0,0,0,0.1,0  c0.1,0,0.2,0.1,0.3,0.2c-0.1,0-0.2-0.1-0.3-0.1c0.1,0,0.1,0.1,0.2,0.2c0.3,0.2,0.6,0.4,0.8,0.4c0.7,0.3,1.4,0.5,2.1,0.9  c0.6,0.4,1.2,0.9,1.6,1.4c0,0,0-0.1,0.1,0c0.1,0.1,0.2,0.3,0.3,0.4c0.1,0.1,0.1,0.3,0.2,0.4h0c0.1,0.3,0.2,0.6,0.3,0.8  c0.2,0.5,0.4,1.1,0.5,1.7c0,0,0,0,0,0c0.1,0.2,0.1,0.6,0.2,0.9c0,0,0,0.1,0,0.1c0,0,0,0,0,0c0,0.2,0,0.3,0.1,0.4  c0.4,1.7,0.7,3.4,1.1,5.3c0.1,0.4,0.2,0.8,0.2,1.2c0.1,0.6,0.2,1.3,0.3,1.9c0.1-0.1,0.3,1.3,0.4,1c0,0,0,0.1,0,0.1  c-0.4,0.3-0.9,0.5-1.4,0.7c-0.1,0.1-0.6,0.3-1.1,0.6c-0.5,0.2-1,0.5-1.2,0.5l0,0c-0.2,0.1-0.4,0.2-0.6,0.3c0-0.1,0-0.2,0-0.2  c0-0.3-0.1-0.5-0.1-0.8c0,0.1,0,0.2,0,0.4c0-0.3,0-0.6-0.1-0.7c-0.1-0.6-0.1-0.3-0.2,0c0,0.2-0.1,0-0.1,0.2c0-0.2,0-0.3,0-0.5  c0,0,0,0.6,0,0.4c0-0.2,0-0.4,0-0.6c0,0.1,0,0.6,0,0.6c0-0.1,0-0.5,0-0.5c0,0,0,0.2,0,0.3c0-0.6-0.1-0.9-0.1-0.4c0-0.1,0-0.2,0-0.3  c0,0,0,0,0,0l0-0.1c0-0.1,0-0.2,0-0.3c0,0,0,0,0,0l0,0l0,0c0,0.1,0,0.2,0,0.2l0-0.2c0,0,0,0.1,0,0.2c0,0.3,0,0.5,0,0.6  c0,1.2,0.1,2.3,0.2,3.4c0,0,0-0.1,0,0c0,0.3,0,0.5,0,0.8l0,0c0,0.2,0,0.5,0,0.7c0,0.4,0,0.9,0.1,1.3c0,0,0,0,0,0c0,0.2,0,0.4,0,0.7  c0,0,0,0.1,0,0.1c0,0,0,0,0,0c0,0.1,0,0.2,0,0.3c0.1,1.3,0.2,2.5,0.3,4c0,0.3,0,0.6,0.1,0.9c0,0.4,0,1,0,1.4  c0.1-0.1,0.1,0.9,0.3,0.7c0,0.3,0,0.7,0,0.7c0.1,0.1,0.2,0.3,0.2,1c0,0.3,0,0.7,0,0.8c0,0.2,0.1-0.4,0.1-0.2c0.1-2.1,0-4.2,0-6.3  c0-0.8-0.2-5.7-0.3-6.9v-0.1c0-0.3,0-0.7-0.1-1c0.3-0.1,0.6-0.2,0.9-0.3c0,0,0,0,0,0c0.1,0,0.2,0,0.3-0.1v0c0.1,0,0.2,0,0.3-0.1  c0.1-0.1,0.3-0.1,0.4-0.2c0,0,0,0,0,0c0.1,0,0.1-0.1,0.2-0.1l0,0v0c0,0,0.1,0,0.1,0c0.4-0.3,0.8-0.5,1.2-0.8  c0.1-0.1,0.2-0.2,0.3-0.2c0.1-0.1,0.3-0.2,0.5-0.2c0,0,0-0.1,0.1-0.2c0,0.2,0,0.3,0.1,0.3c0.1,0.1,0.2,0.4,0.4,1.4  c0,0.4,0.1,1,0.1,1.1c0,0.2,0-0.5,0.1-0.3c0-0.1,0-0.2,0-0.3c0.1,0.5,0.2,1,0.3,1.3c0,0,0,0,0,0c-0.2,0.5-0.5,0.8-0.6,1.3l0,0  c-0.2,0.4-0.3,0.7-0.5,1.1c-0.2,0.7-0.5,1.4-0.7,2.1c0,0,0,0,0,0c-0.1,0.3-0.3,0.7-0.4,1.1c0,0.1,0,0.1-0.1,0.2c0,0,0,0.1,0,0.1  c-0.1,0.2-0.1,0.4-0.2,0.5c-0.3,1-0.6,2.1-0.8,3.2c-0.1,0.6-0.1,1.1-0.2,1.7c0,0.6,0,1.2,0.2,1.8c0.1,0.5,0.4,1,0.7,1.4  c0.3,0.3,0.6,0.6,0.9,0.8c0.4,0.2,0.7,0.4,1.1,0.5c0-0.1,0.4,0,0.7,0c0.4,0,0.7,0,0.6-0.1c0.5,0,1.1,0.1,1.2,0  c0.1-0.1,0.5-0.2,1.7-0.3c0.5,0,1.2-0.1,1.3-0.1c0.3-0.1-0.6,0-0.4,0c-0.8,0.1-1.7,0.1-2.6,0.1c-0.4,0-0.9,0-1.3-0.1  c-0.2,0-0.4,0-0.6-0.1c-0.2,0-0.4-0.1-0.6-0.1c-0.4-0.1-0.7-0.3-1.1-0.5c-0.2-0.1-0.3-0.2-0.4-0.4c-0.1-0.1-0.3-0.3-0.4-0.4  c-0.4-0.6-0.5-1.5-0.4-2.3c0-0.3,0-1,0.2-2c0.2-0.9,0.5-2.1,0.9-3.3c0.2-0.6,0.4-1.1,0.7-1.8c0.2-0.6,0.4-1.1,0.6-1.7  c0.4-1,0.7-1.8,1-2.3c0,0,0-0.1,0.1-0.2c0.3-0.5,0.6-1,1-1.4c0.2-0.2,0.4-0.4,0.6-0.4c0.1,0,0.2,0,0.2,0c0.1,0,0.2,0,0.2,0.1  c0.3,0.1,0.5,0.5,0.6,0.9c0-0.2,0-0.4-0.1-0.5c0.2,0.4,0.2,0.8,0.2,1c0,0,0,0,0,0c0,0.1-0.1,0.2-0.1,0.2c0,0.6-0.1,1.1-0.1,1.7  c0,0,0,0,0,0c0,0.1-0.1,0.3,0,0.4l0,0c0,0.1,0,0.2-0.1,0.3c0,0.2,0,0.4,0,0.6c0,0,0,0,0,0c0,0.1,0,0.2,0,0.3v0c0,0,0,0,0,0  c0,0,0,0.1,0,0.2c0,0.6,0,1.3,0,1.9c0,0.1,0,0.3,0,0.4c0,0.2-0.1,0.5-0.1,0.7c0.1,0,0.1,0.5,0.2,0.4c0,0.1-0.1,0.3,0,0.4  c0.1,0,0.2,0.2,0.2,0.5c0,0.1-0.1,0.4-0.1,0.4c0,0.1,0.1-0.2,0.1-0.1c0.2-1,0.4-2,0.5-3.1c0-0.2,0.1-0.9,0.1-1.6  c0-0.7,0.1-1.5,0.1-1.8v0c0-0.4,0-0.7,0-1.1c0-0.1,0-0.3-0.1-0.4c0,0.1,0,0.1,0,0.2c0-0.1,0-0.3,0-0.3c0,0,0,0,0,0c0,0,0-0.1,0-0.1  c0-0.3,0-0.5-0.1-0.8c0-0.3-0.1-0.5-0.3-0.8c-0.1-0.3-0.4-0.5-0.6-0.7c-0.3-0.2-0.6-0.3-1-0.2c-0.4,0.1-0.6,0.2-0.8,0.4  c-0.1,0.1-0.2,0.2-0.3,0.3l-0.1,0.1l-0.1,0.1c-0.3,0.3-0.6,0.7-0.8,1.1L61.2,63.6z M65.5,66C65.5,66,65.5,66,65.5,66  C65.5,66,65.5,66,65.5,66C65.5,65.9,65.5,66,65.5,66z M65.5,66.2C65.5,66.2,65.6,66.2,65.5,66.2C65.6,66.2,65.6,66.2,65.5,66.2z   M65.5,66.3C65.5,66.3,65.5,66.3,65.5,66.3c0-0.1,0-0.2,0-0.2C65.5,66.1,65.5,66.2,65.5,66.3z M65.6,66.3  C65.6,66.3,65.6,66.3,65.6,66.3c0-0.1,0-0.1,0-0.2c0,0,0,0,0,0c0,0,0-0.1,0-0.1C65.6,66.1,65.6,66.2,65.6,66.3z M65.5,65.5  c0,0.1,0,0.3,0,0.5C65.5,65.7,65.5,65.4,65.5,65.5z M65.4,65.6C65.4,65.6,65.4,65.5,65.4,65.6C65.4,65.5,65.4,65.5,65.4,65.6  C65.4,65.5,65.4,65.5,65.4,65.6C65.4,65.5,65.5,65.5,65.4,65.6c0,0.1,0,0.3,0.1,0.4c0,0,0,0,0,0.1c0,0,0,0,0,0c0,0,0,0.1,0,0.1  c0,0.1,0,0.1,0,0.1c0,0,0-0.3,0-0.3c0,0,0,0.1,0,0.1c0-0.2,0-0.3-0.1-0.3C65.4,65.6,65.4,65.9,65.4,65.6z"/><path d="M58.1,25.6c0.1,0,0.2-0.1,0.4-0.1c0.1,0,0.2-0.1,0.3-0.1C58.6,25.4,58.4,25.5,58.1,25.6C58,25.6,58,25.6,58.1,25.6  C58,25.6,58.1,25.6,58.1,25.6z"/><path d="M59.1,25.1C59.1,25.1,59.1,25.1,59.1,25.1c0.1,0,0.2-0.1,0.3-0.2C59.3,25,59.2,25,59.1,25.1z"/><path d="M60.3,23.8c0-0.1,0.1-0.1,0.1-0.2C60.4,23.7,60.4,23.7,60.3,23.8z"/><path d="M24.2,29.1c0.1,0.9,0.3,2.2,0.4,3.1c0-0.1,0.2,0.4,0.3,0.9c0.2,0.5,0.3,0.9,0.3,0.7c0.2,0.6,0.5,1.4,0.5,1.5  c0.1,0,0.2,0.2,0.3,0.5c0.2,0.3,0.4,0.7,0.8,1.4c0.2,0.3,0.4,0.6,0.6,0.8c0.2,0.3,0.4,0.5,0.5,0.5c0.1,0.1,0,0-0.1-0.2  s-0.2-0.3-0.1-0.2c-0.7-0.8-1.2-1.9-1.6-2.9c-0.4-1.1-0.7-2.2-0.9-3.3c-0.2-1.1-0.4-2.3-0.5-3.4c0-0.6-0.1-1.1-0.1-1.7  c0-0.3,0-0.6,0-0.9c0-0.3,0-0.6,0-0.9c0-0.4,0.1-1.4,0.3-2.6c0.1-0.6,0.3-1.3,0.4-2.1c0.2-0.7,0.4-1.5,0.7-2.2  c0.3-0.7,0.7-1.5,1-2.2c0.4-0.7,0.8-1.3,1.2-1.9c0.8-1.1,1.7-1.9,2.2-2.4c0.1,0,0.1-0.1,0.2-0.2c0.6-0.5,1.3-1,1.9-1.4  c0.7-0.4,1.4-0.7,2-1c0.3-0.1,0.5-0.2,0.8-0.3c0.3-0.1,0.6-0.2,0.8-0.3c-0.3,0-0.5,0.1-0.7,0.1c0.6-0.2,1.2-0.3,1.4-0.4  c1.3-0.2,0.5-0.2,0-0.2c-0.4,0,0.1-0.1-0.4,0c0.4-0.1,0.6-0.1,1-0.2c0,0-0.3,0-0.6,0.1c-0.3,0-0.5,0.1-0.4,0c0.1,0,0.2,0,0.3,0  c0.1,0,0.2,0,0.3,0c0.2,0,0.4-0.1,0.6-0.1c0,0-0.1,0-0.3,0c0.1,0,0.1,0,0.1,0c0,0-0.4,0-0.6,0.1c0.6-0.1,1.1-0.1,1.3-0.2  c0.2,0,0.1,0-0.5,0c0.2,0,0.4,0,0.7,0c0.1,0,0.3,0,0.4,0c0,0-0.1,0-0.1,0.1c0,0,0.1,0,0.1-0.1c0,0,0,0,0,0c0,0,0,0-0.1,0  c0,0,0.1,0,0.1,0c0.1,0,0.2,0,0.3,0c-0.1,0-0.2,0-0.3,0c0,0,0,0,0,0c0.1,0,0.1,0,0.2,0c0,0-0.1,0-0.1,0c0,0,0,0,0,0  c0.1-0.1,0.3-0.1,0.4-0.2c0.6-0.3,1.1-0.5,1.4-0.7c2.5-1.1,5.5-1.1,8.1-0.2c0,0-0.1-0.1,0.1,0c0.2,0,0.3,0.1,0.5,0.2  c0.1,0.1,0.3,0.1,0.4,0.2c0.1,0.1,0.3,0.1,0.4,0.2c0.1,0.1,0.3,0.1,0.5,0.2h0.1c0.2,0.1,0.5,0.3,0.7,0.4c0.1,0.1,0.2,0.2,0.4,0.2  c0.1,0.1,0.2,0.2,0.4,0.3c0.9,0.6,1.7,1.4,2.5,2.2c0,0,0,0,0.1,0c0.3,0.3,0.7,0.8,1.1,1.3c0.1,0.1,0.1,0.2,0.2,0.2  c0,0,0.1,0.1,0.1,0.1c0.2,0.2,0.3,0.4,0.5,0.7c1.9,2.6,3.1,5.8,3.7,9.3c0.1,0.4,0.1,0.7,0.2,1.1c0,0.4,0.1,0.7,0.1,1.1  c0,0.3,0,0.6,0,0.9c0,0.3,0,0.6,0,0.9c0,0.3,0,0.6,0,0.9c0,0.3-0.1,0.6-0.1,0.8c0.2-0.1-0.2,2.4,0,1.9c-0.1,0.4-0.2,0.8-0.3,1.1  c0,0.2-0.1,0.3-0.1,0.4c0,0.1,0,0.2,0,0.2c0,0.1,0,0.3-0.1,0.7c0,0.2-0.1,0.4-0.2,0.8c-0.1,0.3-0.2,0.7-0.4,1.1  c-0.1,0.4-0.3,0.8-0.5,1.1C59.2,35.7,59,36,59,36.1c-0.2,0.4,0.5-0.8,0.3-0.5c1.2-2.5,2-5.2,2.3-8c0.3-2.7,0.1-5.5-0.6-8.3  c-0.1-0.2-0.2-0.6-0.3-1.1c-0.2-0.5-0.4-1.2-0.7-1.9c-0.6-1.4-1.4-3.1-2.6-4.7c-1.1-1.6-2.6-3-4-4c-0.7-0.5-1.4-0.9-2-1.2  c-0.6-0.3-1.1-0.5-1.5-0.7l-0.3-0.1c-0.9-0.3-1.9-0.5-2.9-0.6c-1-0.1-1.9-0.1-2.7,0c-0.7,0.1-1.4,0.3-2.1,0.5  c0.3-0.1,0.6-0.1,0.9-0.2c-0.7,0.1-1.4,0.4-1.7,0.5c-0.7,0.3-0.8,0.4-0.7,0.4c0,0,0.2,0,0.3-0.1c0.1,0,0.3-0.1,0.4-0.1  c0.2-0.1,0.2,0,0.2,0c0,0,0,0,0.4,0c0,0,0,0,0,0c0,0,0,0,0,0c-0.2,0-0.4,0.2-0.7,0.3c-0.2,0.1-0.4,0.2-0.7,0.3  c0.1,0,0.4-0.2,0.8-0.3c0.4-0.1,0.7-0.2,0.7-0.2c-0.2,0.1-1.2,0.4-1.3,0.5c0,0,0.1,0,0.2-0.1c0.1-0.1,0.3-0.1,0.4-0.2  C40.5,6.6,40,6.9,39.8,7c-0.2,0.1,0,0.1,0.5-0.2c-0.2,0.1-0.4,0.2-0.7,0.4c-0.2,0.1-0.3,0.2-0.5,0.3c-0.1,0-0.2,0-0.4,0  c-0.6,0-1.1,0-1.5,0c-2.6,0.4-5,1.5-7,3.1c0,0,0.1,0,0,0.1c-0.3,0.2-0.5,0.4-0.7,0.6c-0.2,0.2-0.4,0.4-0.7,0.7v0  c-0.2,0.2-0.4,0.4-0.5,0.6c-0.2,0.2-0.4,0.4-0.5,0.6c-0.6,0.8-1.1,1.7-1.6,2.5c0,0,0,0,0,0.1c0,0.1-0.1,0.2-0.2,0.3  c0,0.1-0.1,0.2-0.2,0.4c-0.1,0.2-0.2,0.5-0.4,0.8c0,0.1-0.1,0.2-0.1,0.2c0,0.1,0,0.1,0,0.1c-0.1,0.3-0.2,0.5-0.3,0.7  c-0.5,1.4-0.8,2.8-1,4.3C24.1,23.3,24,24,24,24.8c0,0.4,0,0.8,0,1.1c0,0.4,0,0.8,0,1.2C24,27.8,24.1,28.4,24.2,29.1z M39.1,7.6  C39.1,7.6,39.1,7.6,39.1,7.6C39.1,7.6,39.1,7.6,39.1,7.6C39.2,7.6,39.2,7.6,39.1,7.6C39.2,7.6,39.2,7.6,39.1,7.6z M39.3,7.5  C39.3,7.5,39.3,7.5,39.3,7.5c0.1-0.1,0.3-0.2,0.4-0.3C39.6,7.3,39.4,7.4,39.3,7.5z M39.7,7.2c-0.2,0.1-0.4,0.2-0.5,0.3c0,0,0,0,0,0  c0,0,0,0,0,0c0,0,0,0,0,0c0,0,0,0,0,0C39.4,7.4,39.6,7.3,39.7,7.2z M39.2,7.5C39.2,7.5,39.2,7.5,39.2,7.5c-0.2,0-0.3,0-0.5,0  C38.9,7.5,39.1,7.5,39.2,7.5z M39.1,7.6C39.1,7.6,39.1,7.6,39.1,7.6c-0.2,0-0.4,0-0.5,0C38.8,7.6,39,7.6,39.1,7.6z M37.3,7.9  C37.3,7.9,37.2,7.9,37.3,7.9c-0.3,0-0.4,0.1-0.5,0.1c-0.1,0-0.1,0-0.2,0C36.7,7.9,37,7.9,37.3,7.9z"/><path d="M38.1,42.7c-0.1-0.1-0.2-0.1-0.2-0.2C37.8,42.5,37.9,42.6,38.1,42.7z"/><path d="M38.1,42.7c0.2,0.1,0.3,0.2,0.5,0.4c0,0-0.2-0.1-0.3-0.3C38.2,42.8,38.1,42.8,38.1,42.7z"/><path d="M17.8,86.8C17.9,86.8,17.9,86.8,17.8,86.8c0,0-0.1-0.1-0.3-0.2c-0.1-0.1-0.2-0.2-0.3-0.2c0,0-0.1-0.1,0,0  c-0.4-0.2-0.6-0.5-0.9-0.8c-0.1-0.2-0.3-0.3-0.4-0.5l-0.2-0.3l-0.1-0.3c-0.4-0.7-0.6-1.6-0.8-2.4c-0.2-0.8-0.3-1.7-0.4-2.6  c-0.1-0.9-0.1-1.8-0.2-2.6c-0.1-2.2-0.2-4.5-0.2-6.8c0.6,0.2,1.4,0.5,2.2,0.7c0,0,0,0,0,0c0.2,0,0.4,0.1,0.6,0.2l0,0  c0.2,0,0.3,0.1,0.5,0.2c0.3,0,0.6,0.1,1,0.2c0,0,0,0,0,0c0.1,0,0.3,0,0.5,0.1c0,0,0,0,0.1,0c0,0,0,0,0,0c0.1,0,0.2,0,0.2,0  c1,0,1.9,0,2.9,0c0.2,0,0.4-0.1,0.7-0.1c0.3,0,0.7,0,1,0c0-0.1,0.7-0.2,0.5-0.3c0.2,0,0.5,0,0.5-0.1c0,0,0-0.1,0.1-0.1  c0,0,0,0.1,0,0.1l0,0c0,0.1,0,0.3-0.1,0.4c0,0.3,0,0.5-0.1,0.7c0,0,0,0,0,0c0,0.1,0,0.3,0,0.4v0.1c0,0,0,0,0,0c0,0.1,0,0.1,0,0.2  c0,0.7-0.1,1.5-0.1,2.3c0,0.2,0,0.4,0,0.5c0,0.3-0.1,0.6-0.1,0.8c0.1,0,0.1,0.6,0.2,0.5c0,0.2-0.1,0.4,0,0.4c0.1,0,0.2,0.2,0.1,0.6  c0,0.2-0.1,0.4-0.1,0.5c0,0.1,0.1-0.2,0.1-0.1c0.3-1.2,0.4-2.4,0.6-3.7c0-0.2,0.1-1,0.2-1.9c0.1-0.9,0.2-1.8,0.2-2.1v-0.1  c0,0,0,0,0,0c0.1,0,0.2,0,0.2,0c0.1,0-0.3,0-0.2-0.1c0,0,0,0-0.1,0c0-0.4,0.1-0.8,0-1.1c0-0.2,0-0.3,0-0.5c0,0.1,0,0.1-0.1,0.2  c0-0.2,0-0.3,0-0.4c0-0.4-0.1-0.2-0.2,0c0,0.1-0.1,0-0.1,0.1c0,0,0,0,0,0c0,0,0,0,0,0c0-0.1,0-0.2,0-0.3c0,0,0,0,0,0.1  c0,0,0-0.1,0-0.1c0,0,0,0.1,0,0.2c0-0.3,0-0.5-0.1-0.2c0-0.1,0-0.1,0-0.2c0,0,0,0,0,0.1l0-0.2l0,0c0,0,0,0,0,0c0,0,0,0,0,0l0,0  c0,0,0,0.1,0,0.1v-0.1c0,0,0,0.1,0,0.1c0,0.1-0.1,0.3-0.1,0.4c-0.1,0.6-0.2,1.3-0.2,1.9c0,0,0,0,0,0c0,0,0,0.1,0,0.1  c-0.4,0.1-0.8,0.1-1.3,0.1c-0.7,0.1-1.5,0.1-2.2,0.1c-0.1,0-0.4,0-0.9,0c-0.4,0-0.9,0-1.4-0.1c-1.1-0.1-2.1-0.4-2.6-0.5l-0.1,0  c-0.2-0.1-0.5-0.1-0.7-0.2c-0.3-0.1-0.5-0.1-0.7-0.2c-0.2,0-0.4-0.1-0.6-0.1c0.1,0,0.1,0.1,0.2,0.1c-0.2-0.1-0.4-0.1-0.4-0.1  c-0.1,0-0.1,0-0.2,0c0.1-1.1,0.1-2.2,0.3-3.2c0.1-0.6,0.3-2.1,0.7-4c0.4-1.9,1-4.3,2-6.5c0.5-1.1,1.2-2.2,1.9-3.1  c0.7-0.9,1.6-1.8,2.4-2.4c0.8-0.7,1.7-1.1,2.5-1.4c0.8-0.4,1.5-0.6,2-0.8c0.1,0,0.2-0.1,0.4-0.1c0.5-0.2,1-0.4,1.5-0.6c0,0,0,0,0,0  c0.3,0.3,0.6,0.5,0.7,0.7c0.7,0.5,1.4,1,2.2,1.4c0.8,0.5,1.5,0.8,2.4,1.1c0,0-0.1-0.1,0.1,0c0.2,0.1,0.4,0.1,0.6,0.2  c0.2,0.1,0.4,0.1,0.6,0.2l0,0c0.3,0.1,0.7,0.2,1.1,0.3l0.5,0.1l0.5,0.1c0.3,0.1,0.7,0.1,1,0.1c0,0,0,0,0,0c0.3,0,0.7,0,1.1,0.1  c0.1,0,0.1,0,0.2,0c0,0,0,0,0.1,0c0.2,0,0.4,0,0.5,0c2-0.1,4-0.5,6-1.4c0.2-0.1,0.4-0.2,0.6-0.3c0.2-0.1,0.4-0.2,0.6-0.3  c0.3-0.1,0.6-0.3,0.9-0.5c0.3-0.2,0.6-0.4,0.9-0.5c-0.1,0,0.2-0.3,0.5-0.5c0.3-0.2,0.5-0.4,0.3-0.4c0.4-0.2,0.8-0.6,0.8-0.7  c0-0.1,0.2-0.4,0.9-1.2c0.3-0.3,0.7-0.8,0.8-0.9c0.1-0.2-0.4,0.4-0.3,0.2c-2.1,2.3-4.8,4-7.8,4.9c-0.1,0-0.4,0.1-0.7,0.2  c-0.3,0.1-0.7,0.2-1.1,0.3c-0.8,0.2-1.9,0.3-3,0.3c-1.1,0-2.2-0.1-3.2-0.4c-0.5-0.1-0.9-0.2-1.3-0.3c-0.4-0.1-0.7-0.2-0.9-0.3  l-0.2,0c-1-0.4-2.1-0.9-2.9-1.3c-0.4-0.2-0.7-0.4-1.1-0.6c0.1,0.1,0.3,0.2,0.4,0.3c-0.4-0.2-0.7-0.5-0.8-0.5  c-0.7-0.5-0.4-0.2-0.1,0.1c0.2,0.2-0.1,0,0.2,0.3c-0.2-0.2-0.3-0.3-0.6-0.4c0,0,0.1,0.1,0.3,0.3c0.2,0.1,0.3,0.2,0.2,0.2  c-0.2-0.2-0.5-0.4-0.7-0.5c0,0.1,0.8,0.6,0.7,0.6c-0.1-0.1-0.6-0.5-0.7-0.5c0,0,0.2,0.2,0.3,0.3c-0.4-0.3-0.6-0.4-0.7-0.5  c-0.1-0.1-0.1,0,0.2,0.3c-0.1-0.1-0.2-0.2-0.4-0.3c0,0,0,0,0,0L28,47.1c0,0,0,0,0,0c0,0,0,0,0,0c0,0,0,0,0,0  c0.6-0.3,1.3-0.6,1.9-0.9c0.6-0.3,1.1-0.7,1.5-1.1c0.1-0.1,0.2-0.2,0.3-0.3c0.1-0.1,0.2-0.2,0.3-0.3c0.2-0.2,0.4-0.4,0.5-0.6  c0.5-0.7,0.9-1.4,1.3-2.2c0,0,0,0.1,0,0.1c-0.1,0.2,0,0,0.2-0.3c0.1-0.2,0.2-0.5,0.2-0.3c0.2-0.5,0.3-0.9,0.4-1.4  c0-0.2,0.1-0.3,0.1-0.4c0-0.2,0-0.2,0-0.1c0,0,0,0,0,0.1c0-0.1,0-0.3,0-0.4c0-0.4,0-0.8-0.1-1.1l0-0.1l0-0.1c0-0.1,0-0.3,0-0.4  c0,0,0-0.1,0-0.1c0,0,0-0.1,0-0.1c0,0,0,0,0,0.1c0-0.1,0-0.1,0-0.2c0,0,0-0.1,0-0.1c0,0,0,0.1,0,0.2c0,0.1,0,0.1,0,0.2  c0,0,0-0.1,0-0.1c0,0.1,0,0.2,0,0.3l0-0.2l0-0.1c0,0-0.1,0-0.1,0l-0.4-0.1c-0.1,0-0.2,0-0.2-0.1c-1.2-0.5-2.4-1.3-3-2.4  c-0.2-0.3-0.3-0.6-0.4-0.9c0-0.1-0.1-0.3-0.1-0.4c0-0.1,0-0.3,0-0.4c0-0.6,0.2-1.2,0.5-1.8c0.2-0.3,0.4-0.5,0.6-0.7s0.5-0.4,0.7-0.5  c0.1,0,0.1,0,0.2-0.1c0.1,0,0.1,0,0.2,0l0.2,0h0.2c0.3,0,0.6,0.1,0.9,0.2c0.2,0.1,0.6,0.2,1,0.5c0.5,0.3,1,0.6,1.7,1.1  c0.4,0.2,0.7,0.4,1.2,0.6c0.4,0.2,0.9,0.3,1.5,0.3c0.5,0,1.1-0.1,1.6-0.4c0.5-0.2,0.9-0.5,1.3-0.9c0.8-0.7,1.4-1.5,2-2.2  c0.6-0.7,1.2-1.4,1.9-1.9c0.7-0.4,1.4-0.7,2-0.8c0.6-0.1,1.2-0.1,1.6-0.1c0.1,0,0.2,0,0.3,0c0.9,0,1.9,0.2,2.9,0.3  c0.5,0.1,1,0.1,1.4,0.2c0.5,0,0.9,0,1.3,0c0.7,0,1.5-0.1,2.2-0.3c-0.4,0.1-0.7,0.1-1,0.1c0.7-0.1,1.5-0.3,1.8-0.4  c0.2-0.1,0.3-0.1,0.4-0.2c0,0.2,0,0.3-0.1,0.1c0,1.1,0,2.2-0.4,3.2c-0.1,0.3-0.2,0.5-0.3,0.7c-0.1,0.2-0.3,0.4-0.4,0.6  c-0.3,0.4-0.7,0.7-1.2,1.1c-0.4,0.4-0.9,0.7-1.3,1.2c-0.4,0.5-0.7,1.1-0.8,1.7c-0.2,1.2,0,2.4,0,3.5c0,0.1,0,0.2,0,0.4  c0,0.2,0,0.3,0,0.5c0,0.4-0.2,0.9-0.5,1.1c-0.1,0-0.2,0.1-0.3,0.1c-0.1,0-0.3,0-0.5,0.1c-0.2,0-0.4,0.1-0.7,0.3  c-0.2,0.2-0.4,0.4-0.5,0.6c-0.1,0.2-0.2,0.4-0.2,0.6c-0.1,0.2-0.1,0.3-0.2,0.5c-0.2,0.3-0.4,0.6-0.7,0.9s-0.5,0.5-0.8,0.8  c-0.3,0.3-0.6,0.5-0.9,0.8c-0.6,0.5-1.1,1-1.7,1.3c-1.1,0.6-2.3,0.5-2.9,0.4l-0.2,0c-1.4-0.3-2.9-1.2-4-1.9c-0.5-0.3-1-0.6-1.4-0.9  c0.2,0.2,0.4,0.3,0.6,0.5c-0.5-0.3-0.9-0.7-1.1-0.8c-0.5-0.4-0.6-0.5-0.6-0.4c0,0.1,0.2,0.3,0.4,0.5c0.3,0.3-0.1,0,0.3,0.4  c0,0,0,0,0,0c0,0,0,0,0,0c-0.3-0.3-0.6-0.5-0.9-0.8c0,0.1,0.3,0.3,0.5,0.5c0.2,0.2,0.5,0.4,0.4,0.4c-0.2-0.1-0.8-0.8-0.9-0.8  c0,0,0.2,0.2,0.4,0.3c-0.4-0.4-0.8-0.7-0.9-0.8c-0.1-0.1-0.1,0,0.3,0.4c-0.3-0.3-0.7-0.7-0.9-1c0,0,0.1,0.1,0.1,0.2  c0,0-0.1-0.1-0.1-0.1c0,0,0,0.1,0.1,0.1c0.1,0.1,0.2,0.3,0.4,0.4c-0.1-0.1-0.2-0.2-0.3-0.4c0.1,0.1,0.1,0.2,0.2,0.3  c0.4,0.4,0.7,0.8,1,1.1c0.9,0.8,1.9,1.5,3,2.2c1,0.7,2.1,1.3,3.3,1.7c0,0-0.1-0.1,0.1,0c0.7,0.1,1.2,0.3,1.9,0.2l0,0  c0.5,0,1.1-0.2,1.6-0.4c0.9-0.5,1.7-1.1,2.4-1.8c0,0,0,0,0,0c0.3-0.3,0.7-0.6,1.1-1c0.1-0.1,0.1-0.1,0.2-0.2c0,0,0-0.1,0-0.1  c0.2-0.2,0.4-0.4,0.5-0.5c0.2-0.3,0.4-0.6,0.6-1c0.1-0.4,0.2-0.7,0.4-0.8c0.1-0.1,0.1-0.1,0.3-0.2c0.1,0,0.3-0.1,0.4-0.1  c0.2,0,0.4-0.1,0.6-0.2c0.2-0.1,0.4-0.2,0.5-0.4c0.3-0.4,0.4-0.7,0.5-1.1c0.1-0.4,0-0.8,0-1.1c0-0.7-0.1-1.5-0.2-2.2  c0-0.6,0-1.3,0.2-1.8c0.1-0.4,0.4-0.8,0.7-1.2c0.4-0.4,0.7-0.7,1.1-1c-0.1,0,0.3-0.4,0.6-0.7c0.3-0.4,0.5-0.7,0.4-0.6  c0.2-0.2,0.4-0.5,0.5-0.8c0.1-0.3,0.2-0.5,0.2-0.5c0-0.1,0-0.2,0-0.5c0-0.3,0.1-0.8,0.1-1.6c0-0.4,0-1.1,0-1.5c0,0,0,0,0,0  c0.1-0.1,0.2-0.1,0.3-0.2c0.1-0.1,0.1-0.1,0.1-0.1c0,0-0.2,0.1-0.3,0.1c0,0,0,0,0,0c0-0.1,0-0.1,0-0.1c0,0,0,0,0,0  c0.1,0,0.1-0.1,0.2-0.1c0,0-0.1,0-0.2,0.1c0,0,0,0,0,0c0,0,0.1,0,0.1,0c0,0-0.1,0-0.1,0c0,0,0,0,0,0c0,0-0.1,0-0.1,0  c-0.1,0-0.2,0.1-0.3,0.1c-0.4,0.1-0.7,0.2-0.7,0.2c0.1,0,0.2,0,0.3-0.1c0.1,0,0.3-0.1,0.4-0.2c0.1,0,0.1-0.1,0.2-0.1  c0.1,0,0.1-0.1,0.2-0.1c0.1-0.1,0.2-0.1,0.2-0.1c0,0-0.4,0.2-0.6,0.3c0.7-0.3,1.1-0.7,1.2-0.9c0.1-0.1,0.1-0.1,0,0  c0,0-0.1,0.1-0.2,0.1c-0.1,0.1-0.2,0.1-0.3,0.2c0.2-0.1,0.4-0.3,0.6-0.5c0.1-0.1,0.2-0.2,0.3-0.3c0,0,0.1-0.1,0.1-0.1  c0,0.1-0.1,0.1-0.1,0.2c-0.1,0.1-0.2,0.2-0.3,0.3l0.3-0.3l0.2-0.3c0,0-0.1,0.1-0.1,0.1c-0.1,0.1-0.1,0.2-0.2,0.2  c0,0-0.1,0.1-0.1,0.1c0.1-0.1,0.1-0.2,0.2-0.3c-0.1,0.1-0.2,0.2-0.3,0.3c-0.4,0.4-1,0.7-1.3,0.8c-1.3,0.6-2.7,0.7-4.2,0.5  c-0.7-0.1-1.4-0.2-2.2-0.3c-0.7-0.2-1.5-0.3-2.2-0.4c0,0,0.2,0-0.1,0c-0.8,0-1.5,0-2.3,0.1l0,0c-0.6,0.1-1.3,0.4-1.9,0.7  c-1.1,0.7-1.9,1.7-2.6,2.6c0,0,0,0,0,0.1c-0.3,0.4-0.7,0.9-1.2,1.4c-0.1,0.1-0.1,0.1-0.2,0.2c0,0,0,0.1-0.1,0.1  c-0.2,0.2-0.4,0.4-0.6,0.5c-0.6,0.5-1.4,0.7-2.2,0.6c-0.8-0.1-1.5-0.5-2.3-0.9c-0.4-0.2-0.7-0.5-1.1-0.7c-0.4-0.2-0.8-0.4-1.3-0.6  c-0.4-0.1-0.9-0.3-1.4-0.2c-0.5,0-1,0.2-1.4,0.5c-0.7,0.5-1.2,1.2-1.5,1.9c-0.2,0.6-0.3,1.2-0.2,1.9c0.1,0.7,0.4,1.3,0.7,1.8  c0-0.1,0.4,0.4,0.8,0.8c0.4,0.4,0.9,0.7,0.7,0.4c0.3,0.2,0.7,0.5,1,0.6c0.2,0.1,0.3,0.1,0.4,0.2c0.1,0,0.2,0.1,0.2,0.1  c0,0,0.1,0,0.2,0c0,0,0.1,0,0.2,0c0.1,0,0.2,0,0.4,0.1c0,0,0,0,0,0l0,0.1c0,0,0,0.1,0,0.1c0,0.1,0.1,0.2,0.1,0.3  c0,0.1,0.1,0.2,0.1,0.3c-0.1,0.7-0.3,1.4-0.4,1.8c-0.6,1.7-1.6,3.3-2.9,4.6c-1.4,1.2-3.1,1.9-4.9,2.5c0,0,0.2,0-0.1,0.1  c-0.9,0.4-1.7,0.6-2.6,1l0,0c-0.7,0.3-1.4,0.7-2.2,1.2c-0.3,0.2-0.6,0.5-0.9,0.7c-0.3,0.3-0.6,0.5-0.8,0.8c-0.5,0.6-1,1.1-1.5,1.8  c0,0,0,0,0,0.1c-0.4,0.5-0.8,1.3-1.3,2.1c0,0.1-0.1,0.2-0.2,0.4c0,0.1,0,0.1,0,0.1c-0.2,0.4-0.3,0.7-0.5,1c-0.8,2.1-1.3,4.2-1.7,6.4  c-0.2,1.1-0.4,2.2-0.5,3.4c-0.1,1.1-0.2,2.3-0.3,3.5c0,1,0,2,0,3c0,1.4,0.1,3.3,0.2,4.7c0-0.1,0.1,0.7,0.2,1.4  c0.1,0.7,0.2,1.4,0.2,1.1c0,0.5,0.1,1.1,0.2,1.5c0.1,0.5,0.1,0.8,0.2,0.9c0.1,0.1,0.2,0.3,0.3,0.8c0,0.1,0.1,0.3,0.1,0.4  c0,0.2,0.1,0.3,0.2,0.5c0.2,0.4,0.4,0.8,0.7,1.3c0.2,0.4,0.6,0.8,1,1.1c0.1,0.1,0.2,0.1,0.3,0.2c0.1,0.1,0.2,0.1,0.3,0.2  C17.6,86.7,17.7,86.8,17.8,86.8z M25.7,68.3c0,0.1,0,0.2,0,0.2C25.7,68.5,25.7,68.4,25.7,68.3z M58.1,25.6c0.3-0.1,0.6-0.2,0.9-0.4  c0,0,0,0,0,0c0,0,0,0,0,0c0,0-0.1,0-0.1,0.1c0,0,0.1,0,0.1-0.1c0,0,0,0.1,0,0.2c-0.1,0-0.3,0.1-0.4,0.1  C58.1,25.6,58.6,25.4,58.1,25.6C58,25.6,58,25.6,58.1,25.6C58,25.6,58,25.6,58.1,25.6C58,25.6,58,25.6,58.1,25.6  C58,25.6,58,25.6,58.1,25.6z M34.5,37.3C34.5,37.3,34.5,37.3,34.5,37.3C34.5,37.3,34.5,37.3,34.5,37.3  C34.5,37.2,34.5,37.3,34.5,37.3z M34.4,38.3C34.4,38.3,34.4,38.2,34.4,38.3C34.4,38.2,34.4,38.3,34.4,38.3c0,0.1,0,0.1,0,0.2  c0,0.1,0,0.2-0.1,0.3C34.4,38.6,34.4,38.5,34.4,38.3z M34,40.5c0.1-0.2,0.1-0.4,0.2-0.6c0.1-0.2,0.1-0.4,0.2-0.5  c0-0.1,0.1-0.3,0-0.3c0,0,0,0.1-0.1,0.3c0,0.2-0.1,0.4-0.2,0.5c0.2-0.6,0.3-1.1,0.3-1.5c0,0.3,0.1,0.6,0,1c0,0.1,0,0.2,0,0.3  c-0.1,0.1-0.1,0.3-0.2,0.4c-0.1,0.3-0.1,0.2-0.1,0.2C34.1,40.4,34.1,40.4,34,40.5c0.1,0.1,0,0.2,0,0.2c0,0.1-0.1,0.1,0,0  c0.1-0.3,0.2-0.6,0.3-0.9c0-0.1,0.1-0.3,0.1-0.5c0-0.1,0-0.2,0.1-0.2c0-0.1,0-0.2,0-0.2c0,0.1-0.2,0.6-0.3,1.1  c-0.2,0.5-0.4,0.9-0.4,0.8C33.8,40.8,33.9,40.6,34,40.5z M33.7,41.8c0.1-0.2,0.2-0.4,0.3-0.6c0-0.1,0.1-0.2,0.1-0.3  c-0.1,0.2-0.2,0.5-0.2,0.6c-0.2,0.3-0.4,0.6-0.5,0.9C33.5,42.2,33.6,42,33.7,41.8z M28,47.2L28,47.2C27.9,47.1,27.9,47.1,28,47.2  C28,47.2,28,47.2,28,47.2z M14.3,69.8C14.3,69.8,14.3,69.8,14.3,69.8C14.3,69.8,14.3,69.8,14.3,69.8C14.3,69.8,14.3,69.8,14.3,69.8z   M14.3,69.8C14.3,69.8,14.3,69.8,14.3,69.8c0.1,0,0.2,0.1,0.2,0.1C14.5,69.9,14.4,69.8,14.3,69.8z M14.3,69.7c0.1,0,0.3,0.1,0.2,0.1  C14.4,69.8,14.4,69.8,14.3,69.7C14.3,69.7,14.3,69.7,14.3,69.7z M14.4,69.6c0.1,0.1-0.1,0.1,0.1,0.2c-0.1,0-0.1-0.1-0.2-0.1  c0-0.1,0-0.1,0-0.2C14.3,69.5,14.4,69.6,14.4,69.6z"/><path d="M34.2,40c0.1-0.2,0.1-0.4,0.2-0.6C34.4,39.3,34.4,39.6,34.2,40z"/><path d="M34.2,40C34.2,40,34.2,40.1,34.2,40c-0.1,0.2-0.1,0.3-0.2,0.4c0,0.1-0.1,0.2-0.2,0.4c0.1-0.1,0.1-0.2,0.1-0.3  c0-0.1,0.1-0.2,0.1-0.3C34.2,40.1,34.2,40.1,34.2,40z"/><path d="M34.4,36.7c0,0.1,0,0.1,0,0.2c0,0,0,0.1,0,0.1C34.4,36.9,34.4,36.8,34.4,36.7z"/><path d="M25.8,68.3C25.8,68.3,25.8,68.2,25.8,68.3C25.8,68.2,25.8,68.2,25.8,68.3z"/><path d="M25.8,68.5c0,0,0-0.1,0-0.2C25.8,68.3,25.8,68.4,25.8,68.5z"/><path d="M25.6,67.8C25.6,67.8,25.6,67.8,25.6,67.8L25.6,67.8C25.6,67.8,25.6,67.8,25.6,67.8z"/><path d="M37.7,87.1c0.4,0,0.9-0.1,0.9-0.1c0.1-0.1,0.3-0.3,1.3-0.4c0.4-0.1,1-0.1,1.1-0.2c0.2-0.1-0.5,0-0.3,0  c-2.8,0.4-5.5,0.8-8.4,1c-0.5,0.1-2.4,0.2-4.3,0.2c-2,0-4-0.1-4.9-0.2l-0.1,0c-0.9-0.1-2-0.2-2.8-0.3c-0.4,0-0.7,0-1.1-0.1  c0.2,0,0.3,0.1,0.4,0.1c-0.4-0.1-0.7-0.2-0.8-0.2c-0.4-0.1-0.5-0.1-0.4,0c0,0,0.2,0.1,0.3,0.2c0.2,0.1-0.1,0.1,0.2,0.2  c-0.2-0.1-0.4-0.1-0.6-0.2c0,0,0.2,0.1,0.3,0.1c0.2,0,0.3,0.1,0.2,0.1c-0.2-0.1-0.5-0.1-0.7-0.2c0,0,0.1,0.1,0.2,0.1  c-0.1,0-0.1,0-0.1,0c0,0,0.1,0.1,0.2,0.1c-0.3-0.1-0.6-0.2-0.7-0.2c-0.1,0-0.1,0,0.3,0.2c-0.2-0.1-0.6-0.3-0.8-0.4  c0,0,0.1,0.1,0.2,0.2c0.1,0,0.2,0.1,0.2,0.1L17.5,87c-0.1,0-0.1-0.1-0.2-0.1c0,0,0,0,0.1,0.1c0.1,0.1,0.2,0.1,0.3,0.2  c-0.1,0-0.2-0.1-0.3-0.2c0.1,0.1,0.1,0.1,0.2,0.2c0.3,0.2,0.7,0.4,0.8,0.4c0.7,0.2,1.5,0.4,2.3,0.5c0.8,0.1,1.5,0.2,2.3,0.2  c0,0-0.1,0,0,0c0.4,0,0.7,0.1,1.1,0.1l0,0c0.3,0,0.6,0.1,0.9,0.1c0.6,0,1.2,0,1.8,0c0,0,0,0,0,0c0.2,0,0.6,0,0.9,0c0,0,0.1,0,0.2,0  c0,0,0,0,0,0c0.2,0,0.3,0,0.4,0c1.7-0.1,3.5-0.2,5.3-0.5c0.4,0,0.8-0.1,1.2-0.2c0.6,0,1.3-0.1,1.8-0.2C36.7,87.4,38,87.2,37.7,87.1z   M18.5,87.2c0,0,0.1,0,0.1,0c0.2,0,0.4,0.1,0.4,0.1C18.9,87.4,18.6,87.3,18.5,87.2z"/><path d="M55.8,83.8c0.6,0,1.1-0.2,1.7-0.4c0.3-0.1,0.5-0.3,0.8-0.4c0.2-0.2,0.5-0.4,0.6-0.7c0.1-0.1,0.2-0.2,0.3-0.4l0,0l0,0l0,0  l0.1-0.2l0.1-0.3c0.1-0.2,0-0.5-0.1-0.6c-0.1-0.2-0.3-0.3-0.6-0.3l-0.4,0c-0.1,0-0.2,0-0.2,0l-0.2,0l-0.2,0c-0.3-0.1-0.6-0.2-1-0.3  c-0.6-0.2-1.3-0.5-2-0.8c-0.7-0.3-1.4-0.5-2.2-0.6c-0.4-0.1-0.8-0.1-1.2,0c-0.4,0-0.8,0.1-1.1,0.3c-0.2,0.1-0.6,0.2-1,0.4  c-0.4,0.2-1,0.4-1.6,0.6c-0.6,0.1-1.3,0.2-2.1,0.1s-1.6-0.3-2.5-0.4c-3.4-0.7-7-1-8.5-1.2l-0.3,0c-1.6-0.1-3.6-0.3-4.9-0.3  c-0.6,0-1.3,0-1.9,0c0.3,0,0.6,0.1,0.8,0.1c-0.7,0-1.3-0.1-1.5-0.1c-1.4,0-0.6,0.1-0.1,0.2c0.4,0-0.1,0.1,0.4,0.1c0,0,0,0-0.1,0  c0.1,0,0.1,0,0,0c-0.4,0-0.9,0-1.3-0.1c0.1,0,1.5,0.1,1.4,0.1c-0.2,0-1.2-0.1-1.3-0.1c0,0,0.4,0,0.6,0c-1.3,0-2.1,0-0.8,0.1  c-0.2,0-0.5,0-0.7,0c0,0,0.1,0,0.1,0c-0.3,0-0.5,0-0.7,0c0,0,0,0,0,0c0,0,0,0-0.1,0c0,0,0.1,0,0.1,0c0,0,0.1,0,0.1,0  c0.2,0,0.4,0,0.6,0c-0.2,0-0.3,0-0.5,0c0.1,0,0.3,0,0.4,0.1c0.6,0.1,1.2,0.1,1.5,0.2c2.5,0.1,5.2,0.3,7.7,0.5c0,0-0.1,0,0.1,0  c0.7,0,1.2,0.2,1.9,0.2l0,0c0.5,0.1,1.1,0.1,1.6,0.2c1,0.1,2,0.3,3,0.4c0,0,0,0,0.1,0c0.4,0.1,1,0.2,1.6,0.3c0.1,0,0.2,0,0.3,0  c0.1,0,0.1,0,0.1,0c0.3,0,0.5,0.1,0.7,0.2c0.7,0.1,1.5,0.3,2.3,0.3c0.8,0,1.6,0,2.4-0.3c0.8-0.2,1.5-0.6,2.2-0.9  c0.4-0.1,0.7-0.2,1.1-0.3c0.2,0,0.4,0,0.6,0c0.2,0,0.4,0,0.6,0c0.7,0.1,1.3,0.3,1.9,0.5c0.9,0.4,2.1,0.9,3,1.1c-0.1-0.1,0.5,0,0.9,0  c0.1,0,0.1,0,0.2,0c0.1,0,0.1,0,0.2,0.1c0.1,0.1,0.1,0.2,0.1,0.3c0,0.2-0.1,0.2,0,0.1c0,0.1-0.1,0.2-0.1,0.3c0,0.1-0.1,0.2-0.1,0.2  c0,0.1-0.1,0.2-0.2,0.2c0,0.1-0.1,0.1-0.2,0.2c-0.2,0.3-0.4,0.4-0.5,0.4c0,0.1-0.1,0.2-0.5,0.4c-0.3,0.2-0.9,0.4-1.8,0.5  c-0.7,0.1-1.8,0-2,0c-0.4,0,0.9,0.1,0.5,0.1C54.7,83.9,55.2,83.9,55.8,83.8z"/><path d="M27,78.2c-0.1,0-0.3,0-0.5,0C26.6,78.2,26.8,78.2,27,78.2z"/><path d="M26.5,78.2c-0.2,0-0.3,0-0.5,0C25.9,78.1,26.2,78.2,26.5,78.2z"/><path d="M41.4,87c-0.1,0-0.1,0.1-0.1,0.1C41.3,87,41.4,87,41.4,87z"/><path d="M41.7,86.9c-0.1,0-0.2,0.1-0.3,0.1C41.5,86.9,41.6,86.9,41.7,86.9z"/><polygon points="41.7,86.9 41.7,86.9 41.7,86.9 "/><path d="M65,75.2C65,75.2,65,75.2,65,75.2C65,75.2,65,75.2,65,75.2z"/><path d="M71.8,79.3c0,0.1,0.1-0.2,0.1-0.1c0.1-0.6,0.1-1.3-0.1-1.9c-0.1-0.3-0.2-0.6-0.4-0.9c-0.2-0.3-0.5-0.5-0.7-0.7  c-0.1,0-0.4-0.2-0.7-0.3c-0.3-0.1-0.7-0.2-1.2-0.3C68.4,75,68,75,67.6,75c-0.4,0-0.7-0.1-0.8-0.1h-0.1c-0.4,0-0.8-0.1-1.1,0  c-0.1,0-0.3,0-0.4,0c0.1,0,0.1,0,0.2,0.1c-0.1,0-0.3,0-0.4,0c-0.3,0-0.1,0.1,0,0.2c0.1,0,0,0.1,0.1,0.1c0,0,0,0-0.1,0c0,0,0.1,0,0,0  c-0.1,0-0.2,0-0.3,0c0,0,0.4,0,0.3,0.1c0,0-0.3-0.1-0.3,0c0,0,0.1,0,0.1,0c-0.3,0-0.5,0-0.2,0.1c-0.1,0-0.1,0-0.2,0c0,0,0,0,0,0  l-0.1,0c0,0,0,0,0,0l0,0l0,0c0,0,0,0,0,0c0,0,0,0,0,0l0,0c0,0,0,0,0,0c0,0,0.1,0,0.1,0c0.1,0,0.3,0.1,0.3,0.1  c0.5,0.1,1.1,0.2,1.7,0.2c0,0,0,0,0,0c0.2,0,0.3,0.1,0.4,0.1l0,0c0.1,0,0.3,0,0.4,0.1c0.2,0,0.5,0,0.7,0c0,0,0,0,0,0  c0.1,0,0.2,0,0.4,0h0.1c0,0,0,0,0,0c0.1,0,0.1,0,0.2,0c0.7,0.1,1.3,0.2,1.9,0.6c0.1,0.1,0.2,0.2,0.3,0.3c0.1,0.2,0.2,0.4,0.3,0.7  c0,0,0.1,0.1,0.2,0.2c0.1,0.1,0.1,0.2,0.2,0.1c0,0.2,0,0.4,0.1,0.4c0.1,0,0.2,0.1,0.3,0.6C71.9,79,71.8,79.3,71.8,79.3z"/><path d="M65,75.2c-0.1,0-0.1,0-0.2,0C64.8,75.2,64.9,75.2,65,75.2z"/><path d="M64.3,75.4C64.4,75.4,64.4,75.4,64.3,75.4L64.3,75.4C64.4,75.4,64.3,75.4,64.3,75.4z"/><path d="M65.5,66c0-0.2,0-0.3,0-0.5c0,0,0,0,0,0c0,0,0,0.1,0,0.1c0,0.1,0,0.2,0,0.3C65.5,65.9,65.5,66,65.5,66z"/><path d="M68,74.7C68,74.8,68,74.8,68,74.7C68,74.8,68,74.8,68,74.7z"/><path d="M67.8,72.4c0-0.1,0.1-0.3,0.1-0.5c0,0.1-0.1,0.2-0.1,0.2C67.9,72.2,67.9,72.3,67.8,72.4C67.8,72.4,67.8,72.4,67.8,72.4z"/><path d="M72.6,68.8c-0.4,0-0.9,0-1.3,0c-0.5,0-0.9,0.1-1.4,0.2c-0.4,0.2-0.8,0.4-1.1,0.7c-0.5,0.5-0.9,1.1-1.1,1.8  c0.1-0.3,0.3-0.5,0.4-0.7c-0.2,0.3-0.3,0.6-0.4,0.9c-0.1,0.3-0.1,0.5-0.2,0.6c-0.1,0.7-0.1,0.9,0,0.8c0-0.1,0.1-0.4,0.2-0.7  c0.1-0.3,0.1,0,0.1-0.2c0-0.2,0.1-0.3,0.1-0.2c-0.1,0.4-0.2,0.9-0.2,1.3c0,0,0-0.2,0-0.3c0,0.1,0,0.2,0,0.2c0,0,0-0.4,0.1-0.6  c-0.1,0.7-0.1,1.2,0,1.4s0,0.1,0.1-0.5c0,0.4,0,0.9,0,1.4c0-0.2,0-0.5,0-0.7c0,0.3,0,0.5,0,0.7c0,0,0-0.1,0-0.1c0,0,0-0.1,0-0.1  c0,0,0,0,0,0c0-0.1,0-0.3,0-0.4c0-0.6,0.1-1.1,0.2-1.4c0.1-0.6,0.3-1.2,0.6-1.7c0.3-0.5,0.7-0.9,1.3-1.1c0.5-0.2,1.1-0.2,1.8-0.2  c0.3,0,0.7,0,1,0c0.4,0,0.7,0,1.1-0.1c0,0-0.1,0,0.1-0.1c0.7-0.2,1.3-0.4,1.9-0.7l0,0c0.5-0.2,1-0.5,1.5-0.7  c0.5-0.2,0.9-0.4,1.4-0.4c0.5-0.1,0.9-0.1,1.4,0c0,0,0,0,0.1,0c0.4,0,0.9,0.2,1.4,0.4c0.1,0,0.2,0.1,0.2,0.1c0.1,0,0.1,0,0.1,0  c0.2,0.1,0.4,0.3,0.6,0.4c0.6,0.4,1.1,0.9,1.5,1.5l0.2,0.2l0.1,0.2c0.1,0.1,0.2,0.3,0.3,0.5c0.1,0.2,0.2,0.3,0.2,0.5  c0.1,0.2,0.1,0.4,0.2,0.5c0.5,1.4,0.5,3,0.1,4.6c0,0.1,0,0.2-0.1,0.3l-0.1,0.2c0,0.2-0.1,0.3-0.2,0.5c-0.1,0.2-0.1,0.3-0.2,0.5  c0,0.1-0.1,0.2-0.1,0.2c0,0.1-0.1,0.1-0.1,0.2c-0.3,0.4-0.6,0.9-1,1.3c-0.4,0.4-0.8,0.8-1.2,1c0,0,0,0.1-0.2,0.2  c-0.1,0.1-0.2,0.1-0.3,0.2c-0.1,0.1-0.2,0.1-0.3,0.2c-0.4,0.3-0.9,0.5-0.6,0.4c-0.3,0.1-0.7,0.3-1,0.3c-0.3,0.1-0.6,0.1-0.6,0.1  c-0.1,0-0.2,0.1-0.6,0.2c-0.4,0.1-1,0.1-1.9,0c-0.4,0-0.8-0.2-1.2-0.3c-0.4-0.1-0.7-0.3-0.8-0.3c-0.2-0.1,0,0,0.2,0.1  c0.2,0.1,0.4,0.2,0.2,0.1c1.3,0.5,2.6,0.6,3.9,0.4c0.7-0.1,1.3-0.3,1.9-0.5c0.3-0.1,0.6-0.3,0.9-0.4c0.3-0.2,0.6-0.4,0.8-0.5  c2.1-1.6,3.4-4.2,3.4-6.9c0-0.4,0-1.6-0.5-3c-0.1-0.4-0.3-0.7-0.5-1.1c-0.1-0.2-0.2-0.4-0.3-0.5c-0.1-0.2-0.2-0.4-0.4-0.5  c-0.3-0.4-0.6-0.7-0.9-1c-0.4-0.3-0.7-0.6-1.1-0.8c-0.4-0.2-0.8-0.4-1.3-0.6c-0.2-0.1-0.4-0.1-0.7-0.2c-0.2,0-0.5-0.1-0.7-0.1  c-0.5,0-0.9,0-1.4,0.1c-0.4,0.1-0.8,0.2-1.2,0.4c-0.7,0.3-1.4,0.6-1.9,0.9c-0.5,0.3-1,0.4-1.3,0.5l-0.2,0.1  C73.4,68.8,73,68.8,72.6,68.8z M67.9,72.4c0.1-0.3,0.1-0.5,0.1-0.5C68,72,68,72.2,67.9,72.4z"/><path d="M67.8,72.4c0,0.2-0.1,0.3-0.1,0.6C67.8,73,67.8,72.7,67.8,72.4z"/><path d="M73.4,73.8c0,0,0,0.1,0.1,0.1C73.5,73.9,73.5,73.8,73.4,73.8z"/><path d="M73.4,73.8C73.4,73.8,73.4,73.8,73.4,73.8C73.4,73.7,73.4,73.8,73.4,73.8z"/><path d="M73.1,73.6c0,0.1,0,0.2,0,0.3c0.1,0.5,0.5,0.9,0.9,1.2c0,0,0,0,0,0c0.1,0.1,0.2,0.2,0.3,0.2l0,0c0.1,0,0.2,0.1,0.3,0.2  c0.2,0.1,0.4,0.1,0.6,0.1c0,0,0,0,0,0c0.1,0,0.2,0,0.3,0h0c0,0,0,0,0,0c0,0,0.1,0,0.1,0c0.6-0.1,1.1-0.4,1.5-0.8  c0.1-0.1,0.2-0.2,0.2-0.3c0.1-0.1,0.3-0.3,0.4-0.4c0,0,0-0.1,0-0.2c0-0.1,0-0.2-0.1-0.2c0-0.1,0.1-0.2,0.1-0.3  c-0.1,0-0.1-0.2-0.2-0.4c0-0.1,0-0.2,0-0.3c0,0-0.1,0.1-0.1,0.1c0,0.6-0.4,1.3-1,1.6c0,0-0.2,0.1-0.3,0.2c-0.2,0.1-0.4,0.1-0.6,0.1  c-0.5,0-1-0.2-1.1-0.4l0,0c-0.2-0.1-0.4-0.3-0.5-0.4c-0.1,0-0.2-0.1-0.2-0.2c0,0,0,0.1,0,0.1c0-0.1-0.1-0.2-0.1-0.2  c-0.1-0.2-0.1,0-0.2,0.1c0,0.1-0.1,0-0.1,0.1c0,0,0,0,0,0c0,0,0,0,0,0c0-0.1-0.1-0.1-0.1-0.2c0,0,0.1,0.2,0.1,0.3c0,0,0-0.2-0.1-0.2  c0,0,0,0.1,0,0.1c-0.1-0.2-0.2-0.3-0.2-0.1c0-0.1,0-0.2-0.1-0.3c0,0,0,0,0,0C73.2,73.6,73.2,73.6,73.1,73.6L73.1,73.6  C73.2,73.6,73.1,73.6,73.1,73.6z"/><path d="M73.2,73.6C73.2,73.6,73.2,73.6,73.2,73.6L73.2,73.6z"/><path d="M73.2,73.5L73.2,73.5C73.2,73.5,73.2,73.5,73.2,73.5z"/><path d="M54.1,78.2c0.1,0,0.1,0.1,0.2,0.1C54.3,78.3,54.2,78.2,54.1,78.2z"/><path d="M54.1,78.2C54.1,78.2,54.1,78.1,54.1,78.2C54.1,78.1,54.1,78.2,54.1,78.2C54.1,78.2,54.1,78.2,54.1,78.2z"/><path d="M40.7,64.3l-0.2,0l-0.2,0c-0.2,0.1-0.4,0.2-0.6,0.4v0c-0.3,0.2-0.5,0.5-0.7,0.9c-0.3,0.7-0.4,1.4-0.3,2c0,0,0,0,0,0  c0,0.3,0.1,0.7,0.3,1c0,0,0,0.1,0.1,0.2c0,0,0,0,0,0c0.1,0.2,0.1,0.3,0.2,0.4c0.5,0.8,1.2,1.5,1.9,2.1c0.7,0.6,1.5,1.1,2.2,1.7  c0.3,0.3,0.7,0.5,0.9,0.8c0.4,0.4,0.9,0.9,1.3,1.4c0-0.1,0.3,0.1,0.5,0.4c0.2,0.2,0.4,0.4,0.4,0.3c0.1,0.2,0.3,0.4,0.3,0.6  c0.1,0.2,0.1,0.4,0.1,0.4c0,0,0.1,0.1,0.1,0.4c0,0.2,0,0.5,0,1.1c0,0.4-0.1,1-0.1,1.1c0,0.2,0.1-0.5,0.1-0.3c0-0.4,0-0.7,0.1-1.1  c0-0.4,0.1-0.7,0-1.1c0-0.2,0-0.5-0.2-0.7c-0.1-0.2-0.2-0.4-0.4-0.6c-0.1-0.2-0.3-0.3-0.4-0.4l-0.4-0.4c-1-1.1-2.1-2.1-3.3-3  c-0.2-0.1-0.7-0.5-1.3-1c-0.6-0.5-1.3-1.2-1.6-2.1c-0.2-0.4-0.3-0.9-0.4-1.3c0-0.4,0-0.9,0.2-1.2c0.1-0.4,0.4-0.6,0.6-0.8  c0.2-0.2,0.4-0.2,0.6-0.3l0.1,0c0.2,0,0.4,0,0.6,0c0.2,0,0.4,0.1,0.6,0.2c0.4,0.2,0.8,0.5,1.1,0.7c0.3,0.2,0.6,0.4,0.9,0.7  c-0.1-0.1-0.2-0.2-0.3-0.4c0.3,0.3,0.6,0.5,0.7,0.6c0.7,0.5,0.3,0.1,0.1-0.1c-0.1-0.2,0.1,0-0.1-0.3c0,0,0.1,0.1,0.1,0.1  c-0.1,0,0.2,0.3,0.1,0.2c0.7,0.6,1.5,1.2,2.3,1.8c0.4,0.3,0.7,0.6,1.1,0.9c0.4,0.3,0.8,0.6,1.1,0.9c0.1,0.1,0.4,0.4,0.8,0.7  c0.2,0.2,0.4,0.4,0.5,0.7c0.2,0.3,0.4,0.5,0.5,0.8c0.1,0.3,0.2,0.5,0.3,0.8c0,0.3,0,0.6,0.1,0.9c0,0.6,0.1,1.1,0.1,1.5l0,0.1  c0.1,0.4,0.3,0.7,0.5,1c0.2,0.3,0.5,0.6,0.7,0.8c0.2,0.2,0.4,0.3,0.7,0.4c-0.1-0.1-0.2-0.2-0.2-0.2c0.2,0.2,0.4,0.3,0.5,0.4  c0.5,0.2,0.3,0,0.1-0.1c-0.1-0.1,0.1,0-0.1-0.2c0,0,0.1,0.1,0.1,0.1C54,78.1,53.9,78,54,78c0.1,0.1,0.3,0.2,0.4,0.2  c0,0-0.1-0.1-0.3-0.2C54.1,78,54,78,54,78c0.1,0,0.4,0.3,0.4,0.3c0,0,0,0-0.1,0c0.2,0.1,0.3,0.1,0.4,0.1c0.1,0,0,0-0.1-0.1  c0.1,0.1,0.3,0.2,0.5,0.2c0,0-0.1,0-0.1-0.1c0,0,0.1,0,0.1,0l0,0c-0.1,0-0.1,0-0.2-0.1c0,0,0.1,0,0.2,0.1c0,0-0.1-0.1-0.1-0.1  c-0.2-0.1-0.4-0.3-0.4-0.3c-0.8-0.4-1.5-1.2-1.7-2c0,0,0,0,0,0c-0.1-0.2,0-0.4-0.1-0.7l0,0c0-0.2,0-0.4,0-0.6c0-0.4,0-0.8-0.1-1.3  c0,0,0,0,0,0c0-0.2-0.1-0.5-0.2-0.7c0,0,0-0.1,0-0.1c0,0,0,0,0,0c0-0.1-0.1-0.2-0.1-0.3c-0.2-0.3-0.4-0.5-0.5-0.7  c-0.2-0.3-0.4-0.5-0.6-0.7c-0.5-0.4-1-0.8-1.5-1.2c-0.2-0.1-0.5-0.3-0.7-0.4c-0.3-0.2-0.7-0.6-1-0.8c0,0.1-0.8-0.4-0.7-0.2  c-0.2-0.2-0.5-0.4-0.5-0.4c-0.1,0-0.3,0-0.9-0.4c-0.1-0.1-0.2-0.1-0.2-0.2c0-0.1-0.6-0.5-0.4-0.4c0.2,0.2,0.4,0.3,0.6,0.5  c0-0.1-0.7-0.6-0.6-0.6c0.1,0.1,0.5,0.5,0.6,0.5c0,0-0.2-0.2-0.3-0.3c0.6,0.5,1,0.7,0.5,0.2c0.2,0.2,0.4,0.4,0.7,0.6  c-0.1-0.1-0.3-0.2-0.4-0.3l0.4,0.3c0,0,0,0,0-0.1c-0.1-0.1-0.2-0.2-0.3-0.2l0.2,0.2c0-0.1-0.1-0.1-0.2-0.2c-0.3-0.3-0.5-0.5-0.6-0.6  l-0.9-0.7c-0.3-0.3-0.6-0.5-0.9-0.7c-0.3-0.2-0.7-0.4-1.1-0.6c-0.4-0.2-0.9-0.3-1.3-0.3c0,0,0.1,0,0,0C41,64.2,40.8,64.2,40.7,64.3z  "/><path d="M37.8,90.1C37.8,90.1,37.8,90.1,37.8,90.1C37.8,90.1,37.8,90.1,37.8,90.1z"/><path d="M37.8,90.1C37.8,90,37.8,90,37.8,90.1C37.8,90,37.8,90,37.8,90.1z"/><path d="M63.4,90.8c0,0-0.1,0-0.1,0C63.2,90.8,63.3,90.8,63.4,90.8z"/><path d="M63.8,90.8c-0.1,0-0.3,0-0.4,0C63.5,90.8,63.6,90.8,63.8,90.8z"/><path d="M86.1,90.7c-2.9-0.1-5.7-0.1-8.6-0.1c-1,0-7.6-0.1-9.4-0.1c0,0-0.1,0-0.2,0c-0.2,0-0.5,0-0.8,0c0.1,0,0.2,0,0.3-0.1  c0.3-0.1,1.5-0.4,2.6-1c1.1-0.6,2.2-1.4,2.5-1.7l0.1-0.1c0.4-0.4,1-0.9,1.2-1.3c0.1-0.2,0.3-0.4,0.4-0.6c-0.1,0.1-0.2,0.1-0.2,0.2  c0.2-0.2,0.3-0.4,0.3-0.4c0.2-0.4,0-0.2-0.1-0.1c-0.1,0.1,0-0.1-0.2,0.1c0.1-0.1,0.1-0.2,0.2-0.3c0,0-0.3,0.4-0.2,0.3  c0,0,0.1-0.1,0.1-0.2c0,0,0-0.1,0.1-0.1c0,0,0,0,0,0c0,0,0-0.1,0.1-0.1c0,0,0,0,0,0c0,0,0,0,0,0c0,0-0.1,0.1-0.1,0.2  c0.1-0.2,0.2-0.4,0.2-0.4c0-0.1,0,0-0.1,0.1c0.1-0.1,0.2-0.3,0.2-0.4c0,0,0,0.1-0.1,0.1c0,0,0-0.1,0-0.1l0,0c0,0,0,0,0,0  c0,0,0,0,0,0.1l0-0.1c0,0,0,0,0,0c0,0,0,0-0.1,0.1C74.2,84.9,74,85,74,85.1c-0.5,0.7-1.1,1.3-1.8,1.9c0,0,0.1,0,0,0  c-0.2,0.2-0.4,0.2-0.5,0.4v0c-0.1,0.1-0.3,0.2-0.5,0.3L70.8,88l-0.4,0.3c0,0,0,0,0,0c-0.1,0.1-0.3,0.2-0.5,0.3l-0.1,0c0,0,0,0,0,0  c-0.1,0-0.2,0.1-0.2,0.1c-0.9,0.5-1.8,0.9-2.9,1.1c-0.2,0.1-0.5,0.1-0.7,0.2c-0.3,0-0.8,0.1-1.1,0.1c0.1,0.1-0.7,0.2-0.6,0.3  c-0.2,0-0.6,0-0.6,0c0,0-0.1,0.1-0.2,0.2c-0.2,0-0.2,0-0.2,0c-0.1,0-0.2,0-0.4,0c-0.2,0-0.6-0.1-0.7,0c-0.1,0-0.2-0.1-0.1-0.1  c-0.6,0-1.2-0.2-1.8-0.4c-0.6-0.2-1.2-0.5-1.7-0.9c-0.2-0.1-0.9-0.6-1.5-1.3c-0.6-0.7-1.2-1.5-1.4-1.8l0-0.1  c-0.2-0.4-0.5-0.8-0.7-1.1c-0.1-0.1-0.2-0.3-0.3-0.4c0,0.1,0,0.1,0,0.2c-0.1-0.2-0.1-0.3-0.2-0.4c-0.1-0.3-0.1-0.1-0.2,0  c0,0.1-0.1,0-0.1,0.2c0-0.1,0-0.2-0.1-0.3c0,0,0.1,0.4,0,0.3c0-0.1-0.1-0.2-0.1-0.4c0,0,0,0,0,0.1c0,0,0,0,0,0c0,0,0,0.1,0,0.2  c-0.1-0.2-0.1-0.3-0.1-0.4c0,0,0,0,0,0.2c0-0.1,0-0.3,0-0.4c0,0,0,0,0,0c0,0,0,0,0,0l0,0c0,0.1,0,0.1,0,0.2c0,0,0-0.1,0-0.2  c0,0,0,0.1,0,0.1c0,0.2,0,0.4,0,0.5c0.1,0.4,0.3,0.8,0.5,1.1c0.2,0.3,0.4,0.6,0.7,0.9c0,0,0,0,0,0c0.1,0.1,0.2,0.3,0.3,0.5h0  c0.1,0.1,0.2,0.3,0.2,0.4c0.2,0.2,0.4,0.5,0.6,0.7c0,0,0,0,0,0c0.1,0.1,0.2,0.2,0.3,0.4l0,0c0,0,0,0,0,0c0,0.1,0.1,0.1,0.1,0.2  c0.6,0.6,1.3,1.1,2.2,1.5c0.2,0.1,0.4,0.1,0.5,0.2c0.3,0.1,0.6,0.3,0.8,0.4c0-0.1,0.6,0,0.5-0.1c0.2,0,0.4,0.1,0.4,0.1  c0-0.1,0.2-0.1,0.7-0.2c0.1,0,0.4,0,0.5,0c0.1,0,0.3,0.1,0.2,0.1c0.5,0,1,0.1,1.4,0.1c0,0,0,0,0.2,0.1c0,0,0,0-0.1,0c0,0,0.1,0,0,0  c-0.2,0-0.5,0-0.7,0c0.1,0,0.9,0,0.8,0.1c-0.1,0-0.7-0.1-0.7,0c0,0,0.2,0,0.4,0c-0.8,0-1.2,0-0.5,0.1c-0.2,0-0.5,0-0.8,0  c0-0.1,0.1-0.1,0.1-0.2c0-0.1,0,0-0.1,0.1c-0.1,0.1-0.1,0.2-0.1,0.1c-0.3,0.5-0.8,1-1.4,1.2c-0.6,0.3-1.2,0.3-1.9,0.2  c-0.3,0-0.7-0.1-1-0.2c-0.2,0-0.3-0.1-0.5-0.2c-0.1-0.1-0.3-0.2-0.5-0.3c-0.1,0-0.2-0.1-0.4-0.1c-0.1,0-0.3,0-0.4,0  c-0.3,0-0.5,0.1-0.7,0.2C55.3,91.9,55.1,92,55,92c-0.2,0.1-0.3,0.1-0.5,0.1c-0.2,0.1-0.8,0.2-1.5,0.2c-0.4,0-0.8,0-1.2-0.1  c-0.4-0.1-0.9-0.3-1.3-0.4c-0.4-0.2-0.8-0.5-1.2-0.8c-0.4-0.3-0.7-0.6-1-1c-0.6-0.7-1-1.3-1.3-1.6l-0.1-0.1  c-0.3-0.4-0.7-0.8-1.1-1.1c-0.4-0.4-0.9-0.6-1.3-0.8c-0.4-0.1-0.8-0.2-1.2-0.2c0.2,0,0.4,0.1,0.5,0.1c-0.4-0.1-0.8-0.1-1-0.1  c-0.2,0-0.4,0-0.4,0.1c-0.1,0-0.1,0,0,0c0.1,0,0.3,0,0.4,0.1c0.2,0-0.1,0.1,0.3,0.1c-0.3,0-0.4,0-0.6,0c0,0,0.2,0,0.4,0s0.3,0,0.2,0  c-0.2,0-0.5,0-0.7,0.1c0,0,0.1,0,0.3,0c-0.1,0-0.2,0-0.2,0c0,0,0.2,0,0.4,0c-0.4,0-0.7,0.1-0.7,0.2c-0.1,0.1,0,0,0.3,0  c-0.1,0-0.2,0.1-0.3,0.1c-0.1,0-0.2,0.1-0.3,0.2c0,0,0,0,0.1,0c0.1,0,0.2-0.1,0.3-0.1c-0.1,0-0.2,0.1-0.2,0.1c0.1,0,0.1,0,0.2,0  c0.3-0.1,0.6-0.1,0.7-0.1c0.7,0,1.4,0.2,1.9,0.5c0.6,0.3,1.1,0.8,1.6,1.4c0,0,0-0.1,0.1,0c0.3,0.3,0.4,0.6,0.7,0.9h0  c0.2,0.3,0.4,0.5,0.6,0.8c0.4,0.5,0.9,0.9,1.4,1.3c0,0,0,0,0,0c0.1,0.1,0.2,0.2,0.4,0.3c0.1,0.1,0.3,0.2,0.5,0.3c0,0,0.1,0,0.2,0.1  c0,0,0,0,0.1,0c0.2,0.1,0.3,0.1,0.4,0.2c0.4,0.2,0.9,0.3,1.4,0.4c0.5,0.1,0.9,0.1,1.4,0.1c0.5,0,1-0.1,1.4-0.2  c0.1,0,0.2-0.1,0.4-0.1c0.1,0,0.2-0.1,0.4-0.1c0.2-0.1,0.5-0.2,0.7-0.3c0.2-0.1,0.4-0.1,0.5-0.1s0.4,0.1,0.5,0.2  c0.5,0.3,1.3,0.6,1.9,0.6c0-0.1,0.3,0,0.6-0.1c0.3,0,0.6-0.1,0.4-0.2c0.4,0,0.9-0.2,0.9-0.3c0-0.1,0.1-0.1,0.2-0.3  c0.1-0.1,0.4-0.3,0.7-0.7c0.1-0.1,0.3-0.3,0.4-0.4c0-0.1,0.1-0.1,0.1-0.2c0,0,0,0,0,0c0.1,0,0.2,0,0.3,0c-0.1,0-0.2,0-0.3,0  c0.1,0,0.2,0,0.3,0c0.4,0,0.7,0.1,0.9,0.1c1.5,0,3,0,4.5,0c0,0-0.1,0,0,0c0.4,0,0.7,0,1.1,0l0,0c0.3,0,0.6,0,0.9,0.1  c0.6,0,1.2,0,1.8,0c0,0,0,0,0,0c0.2,0,0.6,0,0.9,0c0,0,0.1,0,0.2,0c0,0,0,0,0,0c0.2,0,0.3,0,0.4,0c1.7,0,3.5-0.1,5.4-0.1  c0.4,0,0.8,0,1.2,0c0.6,0,1.3,0,1.9,0c-0.1-0.1,1.3-0.1,1-0.3c0.4,0,0.9,0,1,0c0.1-0.1,0.4-0.2,1.4-0.2c0.4,0,1,0,1.1,0  C86.6,90.7,85.9,90.7,86.1,90.7z M74.2,85.3c-0.1,0.1-0.1,0.2-0.1,0.2C74.1,85.4,74.1,85.3,74.2,85.3z M53.9,84.6c0,0,0-0.1,0-0.2  C53.9,84.5,53.9,84.6,53.9,84.6z M42.4,86.6C42.5,86.6,42.5,86.6,42.4,86.6c0.2,0,0.4,0,0.4,0C42.8,86.6,42.6,86.6,42.4,86.6z   M62.2,91C62.2,91,62.2,91,62.2,91c0.1,0,0.3,0,0.4,0C62.5,91,62.4,91,62.2,91z"/><path d="M46.9,89.9c-1.1,0-2.1,0-3.1,0c-0.4,0-2.8,0-3.4,0c0,0,0,0,0,0c-0.4,0-0.7,0-1.1,0c-0.1,0-0.3,0-0.4,0.1c0.1,0,0.1,0,0.2,0  c-0.1,0-0.3,0-0.3,0c-0.3,0-0.1,0.1,0,0.2c0.1,0,0,0.1,0.1,0.1c-0.1,0-0.1,0-0.2,0c0,0,0.3,0,0.2,0c-0.1,0-0.2,0-0.3,0  c0,0,0.3,0,0.3,0.1c0,0-0.3-0.1-0.3,0c0,0,0.1,0,0.1,0c-0.3,0-0.4,0-0.2,0.1c-0.1,0-0.1,0-0.2,0c0,0,0-0.1,0-0.1  c0-0.1,0-0.2-0.1-0.2c0,0,0,0.1,0,0.1c0-0.1,0-0.2,0-0.2c0-0.2-0.1-0.1-0.2,0c0,0-0.1,0-0.1,0c0,0,0,0,0,0c0,0,0,0,0,0  c0,0,0-0.1,0-0.2c0,0,0,0.2-0.1,0.2c0,0,0.1-0.1,0-0.2c0,0,0,0,0,0.1c0-0.2,0-0.3-0.1-0.1c0,0,0-0.1,0-0.2c0,0,0,0.1,0,0.1v-0.1l0,0  c0,0,0,0,0,0.1v-0.1c0,0,0,0,0,0c0,0.1-0.1,0.1-0.1,0.2c0,0.4-0.1,0.7-0.1,1.1c0,0,0,0,0,0c0,0.1,0,0.2,0,0.2h0c0,0.1,0,0.1,0,0.2  c0,0.1,0,0.3,0,0.4h0c0,0,0,0.1,0,0.2v0c0,0,0,0,0,0c0,0,0,0.1,0,0.1c0.1,0.4,0.2,0.8,0.3,1.2c0,0.1,0.1,0.2,0.1,0.3  c0,0.1,0,0.3,0,0.4c0.1,0,0.2,0.3,0.3,0.2c0,0.1,0,0.2,0,0.2c0.1,0,0.2,0.1,0.3,0.3c0,0.1,0,0.2,0,0.2c0,0,0-0.1,0.1-0.1  c0-0.6-0.1-1.2-0.2-1.8c0-0.1-0.1-0.5-0.1-0.9c0-0.4,0-0.9,0-1.1v0c0-0.1,0-0.3,0-0.4c0.1,0,0.2,0.1,0.3,0.1c0.6,0,1.1,0,1.7,0  c0,0,0,0,0,0c0.1,0,0.3,0,0.4,0v0c0.1,0,0.2,0,0.4,0c0.2,0,0.4,0,0.7,0c0,0,0,0,0,0c0.1,0,0.2,0,0.4,0c0,0,0,0,0,0c0,0,0,0,0,0  c0,0,0.1,0,0.2,0c0.6,0,1.3-0.1,2-0.2c0.1,0,0.3,0,0.4-0.1c0.2,0,0.5,0,0.7,0c0-0.1,0.5-0.2,0.4-0.3c0.1,0,0.4,0,0.4,0  c0-0.1,0.1-0.2,0.5-0.2C46.7,90,46.9,90,46.9,89.9C47,90,46.8,90,46.9,89.9z M38.2,90.6C38.2,90.6,38.2,90.6,38.2,90.6  C38.2,90.6,38.2,90.6,38.2,90.6C38.2,90.6,38.2,90.6,38.2,90.6z M38.2,90.5C38.2,90.5,38.2,90.5,38.2,90.5  C38.2,90.5,38.2,90.5,38.2,90.5C38.2,90.5,38.2,90.5,38.2,90.5z"/><path d="M41.2,6.2C41.2,6.2,41.2,6.2,41.2,6.2c0.1,0,0.1,0,0.2-0.1c0.1,0,0.2,0,0.3-0.1c0,0,0,0-0.1,0C41.5,6.1,41.4,6.1,41.2,6.2z"/><path d="M40.6,6.5c0,0,0.1,0,0.2-0.1c0.1,0,0.3-0.1,0.4-0.2c0,0,0,0-0.1,0C41,6.3,40.8,6.3,40.6,6.5z"/><path d="M48.3,35.4L48.3,35.4L48.3,35.4C48.3,35.4,48.3,35.4,48.3,35.4c0,0.1,0,0.2,0,0.3c0.1,0.3,0.3,0.5,0.5,0.7c0,0,0,0,0,0  c0.1,0,0.1,0.1,0.2,0.2l0,0c0,0,0.1,0.1,0.1,0.2c0.1,0.1,0.2,0.1,0.4,0.2c0,0,0,0,0,0c0,0,0.1,0.1,0.2,0.1h0c0,0,0,0,0,0  c0,0,0.1,0,0.1,0c0.4,0.1,0.8,0.1,1.2,0c0.1,0,0.2-0.1,0.2-0.1c0.1,0,0.3-0.1,0.4-0.1c-0.1-0.1,0.1-0.3,0-0.3c0,0,0.1-0.1,0.1-0.1  c0-0.1-0.1-0.2-0.1-0.3c0,0,0.1-0.1,0.1-0.1c0,0-0.1,0-0.1,0c-0.1,0.1-0.2,0.2-0.3,0.3c-0.2,0.1-0.4,0.1-0.6,0.2c0,0-0.1,0-0.2,0  c-0.1,0-0.2,0-0.4-0.1c-0.3-0.1-0.6-0.4-0.7-0.5l0,0c-0.1-0.1-0.3-0.3-0.4-0.3c-0.1,0-0.1-0.1-0.2-0.1c0,0,0,0.1,0,0.1  c0,0-0.1-0.1-0.1-0.1c-0.1-0.1-0.1,0-0.1,0.1c0,0-0.1,0,0,0.1c0,0,0,0-0.1-0.1c0,0,0.1,0.1,0,0.1c0,0-0.1-0.1-0.1-0.1  c0,0,0.1,0.1,0,0.2c0,0,0-0.1-0.1-0.1c0,0,0,0,0,0.1c-0.1-0.1-0.2-0.1-0.2,0C48.3,35.4,48.3,35.4,48.3,35.4  C48.3,35.3,48.3,35.4,48.3,35.4z"/><path d="M72.4,39.2c-0.1-0.1-0.3-0.2-0.5-0.3c-0.2-0.1-0.4-0.3-0.5-0.4c-0.2-0.1-0.3-0.3-0.4-0.3l0,0c-0.2-0.1-0.5-0.3-0.7-0.3  c-0.1,0-0.2,0-0.3,0c0,0,0.1,0,0.1,0.1c-0.1,0-0.2,0-0.2,0c-0.2,0-0.1,0.1,0,0.2c0,0,0,0.1,0,0.1c0,0,0,0-0.1,0c0-0.1-0.1-0.1-0.1,0  c0,0,0-0.1,0-0.2c0,0,0,0,0,0c0,0,0-0.1,0-0.1c0,0,0,0,0-0.1c0,0,0,0,0,0c0,0,0,0,0,0c0,0,0,0,0,0c0,0,0,0.1,0,0.1c0,0,0,0,0-0.1  c0,0,0,0,0,0.1c0,0.1,0,0.2,0,0.3c0,0,0,0,0,0c0,0,0,0,0,0.1c0,0,0,0,0,0c0,0-0.1,0-0.1,0c0,0,0.1,0,0.1,0h-0.1l0,0c0,0,0,0,0,0  c0,0,0,0,0,0c0,0,0,0,0,0c0,0.4,0.1,0.8,0.2,1.2c0,0,0,0,0,0c0,0.1,0,0.2,0,0.3h0c0,0.1,0,0.2,0,0.3c0,0.2,0.1,0.4,0.1,0.5h0  c0,0.1,0,0.2,0,0.3c0,0,0,0,0,0c0,0,0,0,0,0c0,0,0,0.1,0,0.1c0.2,0.5,0.3,1,0.5,1.5c0,0.1,0.1,0.2,0.1,0.3c0,0.2,0.1,0.4,0.1,0.5  c0.1,0,0.2,0.4,0.3,0.2c0,0,0,0,0,0c0,0,0,0,0,0c-0.2,0-0.4,0-0.5,0c-0.4,0.1-0.8,0.4-1.2,0.7c-0.4,0.3-0.7,0.6-1,0.9c0,0,0,0,0,0  c-0.1,0.2-0.3,0.3-0.4,0.5l0,0c-0.1,0.1-0.2,0.3-0.3,0.4c0,0.1-0.1,0.1-0.1,0.2c0,0.1-0.1,0.2-0.1,0.3c-0.1,0.2-0.1,0.4-0.1,0.6  c0,0,0,0,0,0c0,0.2,0,0.6,0.3,0.8c0,0,0.1,0.1,0.1,0.1c0,0,0,0,0.1,0c0.1,0.1,0.3,0.1,0.4,0.1c0.2,0,0.3-0.1,0.5-0.1  c0.1,0,0.2-0.1,0.4-0.2c0.2-0.1,0.4-0.3,0.6-0.4c0.4-0.3,0.7-0.7,1.1-1.1c0.1-0.2,0.3-0.4,0.4-0.5c0.2-0.2,0.5-0.6,0.5-0.9  c0,0,0-0.2-0.1-0.3c0-0.1-0.1-0.2-0.1-0.2c0,0,0-0.1,0-0.1c-0.1-0.8-0.3-1.7-0.5-2.5c-0.1-0.3-0.5-2.2-0.6-2.7c0,0,0,0,0,0  c0-0.2-0.1-0.3-0.1-0.5c0,0,0,0.1,0.1,0.1l0,0c0,0,0.1,0.1,0.1,0.2c0.1,0.1,0.2,0.2,0.3,0.3c0,0,0,0,0,0c0,0,0.1,0.1,0.2,0.1l0,0  c0,0,0,0,0,0c0,0,0,0,0.1,0.1c0.4,0.2,0.8,0.4,1.3,0.4c0.1,0,0.2,0,0.3,0c0.1,0,0.3,0,0.5-0.1c0,0,0-0.1,0.1-0.2s0.1-0.1,0-0.2  c0.1,0,0.2-0.1,0.1-0.1c0-0.1-0.1-0.2-0.1-0.3c0,0,0.1-0.1,0-0.1c0,0-0.1,0-0.1,0c0,0.1,0,0.1-0.1,0.2c-0.1,0-0.1,0.1-0.2,0.1  c-0.1,0-0.2,0.1-0.3,0.1c-0.1,0-0.2,0-0.3-0.1C72.6,39.2,72.5,39.2,72.4,39.2z M71.3,43.8C71.3,43.8,71.3,43.8,71.3,43.8  C71.2,43.8,71.2,43.8,71.3,43.8L71.3,43.8z M70.7,44.1c-0.1,0-0.2,0.1-0.2,0.1C70.6,44.1,70.6,44.1,70.7,44.1z M71.7,44.7  C71.7,44.7,71.7,44.7,71.7,44.7c0-0.1-0.1-0.2-0.1-0.2c0-0.1-0.1-0.1-0.1-0.1c0,0-0.1,0-0.2,0c-0.1,0-0.2,0-0.3,0.1  c-0.1,0-0.2,0.1-0.2,0.1c0,0,0,0,0,0c0,0,0,0,0,0c0,0,0,0,0,0c0,0,0,0,0.1,0c0.1,0,0.1,0,0.2,0c0.1,0.1,0.2,0.3,0.1,0.6  c0,0.2-0.2,0.5-0.5,0.7c-0.2,0.3-0.5,0.5-0.8,0.8c-0.1,0.1-0.3,0.3-0.6,0.5c-0.2,0.1-0.3,0.2-0.5,0.3c-0.1,0-0.2,0.1-0.3,0.1  c0,0-0.1,0-0.1,0h0c0,0,0,0,0-0.2c0-0.2,0.1-0.4,0.2-0.5c0.3-0.4,0.5-0.7,0.6-0.9l0-0.1c0.3-0.4,0.7-0.8,1-1  c0.1-0.1,0.3-0.2,0.4-0.4c-0.1,0-0.2,0-0.2,0.1c0.2-0.1,0.3-0.2,0.4-0.2c0.4-0.2,0.1-0.2,0-0.2c-0.1,0,0-0.1-0.2,0  c0.1,0,0.2-0.1,0.3-0.1c0,0-0.1,0-0.2,0c-0.1,0-0.2,0.1-0.1,0c0.1,0,0.3-0.1,0.4-0.1c0,0,0,0-0.1,0c0,0,0,0,0,0c0,0-0.1,0-0.2,0  c0.2-0.1,0.4-0.1,0.4-0.2c0.1,0,0,0-0.2,0c0.1,0,0.2,0,0.3,0c0,0.1,0,0.2,0.1,0.2c0.1,0,0.2,0.1,0.3,0.4  C71.7,44.5,71.7,44.6,71.7,44.7z M69.9,38.1C69.9,38.1,69.9,38.1,69.9,38.1C69.9,38.1,69.9,38.1,69.9,38.1  C69.9,38.1,69.9,38.1,69.9,38.1C69.9,38.1,69.9,38.1,69.9,38.1z M69.9,38.1C69.9,38.1,69.9,38.1,69.9,38.1  C69.9,38.1,69.9,38.1,69.9,38.1C69.9,38.1,69.9,38.1,69.9,38.1C69.9,38.1,69.9,38.1,69.9,38.1z"/><path d="M65.5,35.1C65.6,35.2,65.6,35.2,65.5,35.1c0.1,0.1,0.1,0.1,0.1,0.1c0.1,0.1,0.2,0.2,0.3,0.2c0.2,0.1,0.4,0.1,0.5,0  c0.1,0,0.2,0,0.4,0c0.2,0,0.4-0.1,0.6-0.2c0.4-0.2,0.8-0.4,1.2-0.6c0.2-0.1,0.3-0.2,0.5-0.3c0.2-0.1,0.5-0.4,0.7-0.6  c0,0,0-0.2,0-0.3c0,0,0-0.1,0-0.1c0,0,0.1-0.1,0.1-0.1c0.1-0.7,0.2-1.4,0.3-2.2c0-0.1,0-0.6,0.1-1.1c0,0,0,0,0.1,0  c0,0,0.1,0.1,0.1,0.1c0,0,0,0,0,0c0,0,0,0.1,0,0.1l0,0c0,0,0,0.1,0,0.1c0,0,0.1,0.1,0.1,0.2c0,0,0,0,0,0c0,0,0,0.1,0,0.1l0,0h0  c0,0,0,0,0,0c0.1,0.1,0.2,0.2,0.3,0.3c0.1,0.1,0.2,0.2,0.3,0.3c0.1,0,0.1,0,0.2,0.1c0.1,0,0.1,0.1,0.2,0.2c0-0.1,0.2-0.1,0.2-0.2  c0,0,0.1,0,0.1,0c0-0.1,0-0.2,0-0.3c0,0,0,0,0,0c0,0,0,0-0.1-0.1c0,0,0,0,0,0c-0.1,0-0.2-0.1-0.3-0.2c0,0-0.1,0-0.1-0.1  c0,0,0-0.1-0.1-0.1c0,0,0-0.1-0.1-0.2c-0.1-0.3-0.3-0.5-0.4-0.7l0,0c-0.1-0.1-0.3-0.3-0.4-0.3c-0.1,0-0.2,0-0.2,0c0,0,0,0,0.1,0.1  c-0.1,0-0.1,0-0.2,0c0,0,0,0,0,0c0-0.3,0.1-0.5,0.1-0.7c0,0,0,0,0,0c0-0.1,0-0.2,0-0.3c0,0,0,0,0,0l0,0c0,0,0,0.1,0,0.2  c0.1,0.1,0.1,0.2,0.2,0.3c0,0,0,0,0,0c0,0,0.1,0.1,0.1,0.2l0,0h0c0,0,0,0,0,0.1c0.3,0.3,0.6,0.6,1,0.7c0.1,0,0.2,0,0.3,0  c0.1,0,0.3,0.1,0.4,0c0,0,0-0.1,0.1-0.1c0,0,0.1-0.1,0-0.1c0.1,0,0.2,0,0.1-0.1c0-0.1,0-0.2,0-0.3c0,0,0.1,0,0.1-0.1  c0,0-0.1,0-0.1,0c0,0,0,0-0.1,0.1c0,0-0.1,0-0.2,0c-0.1,0-0.2,0-0.3,0c-0.1,0-0.1,0-0.2-0.1c-0.1,0-0.3-0.2-0.5-0.5  c-0.1-0.2-0.2-0.3-0.3-0.5c-0.1-0.2-0.2-0.3-0.2-0.4l0,0c-0.1-0.2-0.3-0.4-0.5-0.5c-0.1,0-0.2-0.1-0.3-0.1c0,0,0,0.1,0.1,0.1  c-0.1,0-0.1-0.1-0.2-0.1c-0.2,0-0.1,0-0.1,0.1c0,0,0,0.1,0,0.1c0,0,0,0,0,0c0,0-0.1,0-0.1,0c0,0,0,0,0,0c0,0,0,0,0,0c0,0,0,0,0,0  c0,0,0,0,0,0c0,0,0,0-0.1,0.1c0,0,0-0.1,0-0.1c0,0,0-0.1,0-0.1c0,0,0,0,0,0c0,0,0,0,0,0.1c0,0,0,0,0-0.1c0,0,0,0,0,0  c0,0.1-0.1,0.2-0.1,0.2c-0.1,0.4-0.2,0.7-0.2,1.1c0,0,0,0,0,0c0,0.1-0.1,0.2-0.1,0.3h0c0,0.1,0,0.2-0.1,0.2c0,0.2,0,0.3,0,0.4  c0,0,0,0,0,0c0,0.1,0,0.1,0,0.2c0,0,0,0,0,0l0,0c0,0,0,0.1,0,0.1c0,0.4,0,0.9,0,1.4c0,0.1,0,0.2,0,0.3c0,0.1,0,0.3-0.1,0.5  c0,0,0.1,0,0.1,0.1c-0.1,0-0.3-0.1-0.4-0.1c-0.4,0-0.8,0.1-1.2,0.2c-0.4,0.2-0.7,0.4-1,0.6c0,0,0,0,0,0c-0.1,0.1-0.3,0.2-0.4,0.3v0  c-0.1,0.1-0.3,0.2-0.4,0.2c0,0-0.1,0.1-0.2,0.2c-0.1,0.1-0.1,0.1-0.2,0.2c0,0.1-0.1,0.1-0.1,0.2c0,0.1-0.1,0.1-0.1,0.3c0,0,0,0,0,0  C65.4,34.6,65.4,34.9,65.5,35.1z M69.9,27.3C69.9,27.3,69.9,27.3,69.9,27.3C69.9,27.3,69.9,27.3,69.9,27.3  C69.9,27.3,69.9,27.3,69.9,27.3z M70.2,29.7C70.2,29.7,70.2,29.7,70.2,29.7L70.2,29.7C70.2,29.7,70.2,29.7,70.2,29.7z M70.2,29.6  C70.2,29.6,70.2,29.6,70.2,29.6C70.2,29.6,70.3,29.6,70.2,29.6C70.2,29.7,70.2,29.6,70.2,29.6z M70.2,29.4c0,0,0,0.1,0,0.1  c0,0,0,0,0,0c0,0,0,0,0,0c0,0,0,0-0.1,0C70.2,29.6,70.2,29.6,70.2,29.4c0,0.1,0,0.1,0,0.1C70.2,29.6,70.2,29.5,70.2,29.4  C70.2,29.5,70.2,29.5,70.2,29.4C70.2,29.4,70.2,29.4,70.2,29.4z M70,27.3C70,27.3,70,27.3,70,27.3C70,27.3,70,27.3,70,27.3  C70,27.3,70,27.3,70,27.3z M70,27.3C70,27.3,70,27.3,70,27.3C70,27.3,70,27.3,70,27.3C70,27.3,70,27.3,70,27.3  C69.9,27.3,69.9,27.3,70,27.3C69.9,27.3,70,27.3,70,27.3C70,27.3,70,27.3,70,27.3z M66.3,34.6C66.3,34.6,66.3,34.6,66.3,34.6  c0.1-0.2,0.2-0.3,0.3-0.4c0.3-0.3,0.6-0.4,0.7-0.5l0,0c0.3-0.2,0.7-0.4,1.1-0.6c0.1-0.1,0.3-0.1,0.4-0.2c-0.1,0-0.1,0-0.2,0  c0.2,0,0.3,0,0.4-0.1c0.3,0,0.1-0.1,0-0.2c-0.1,0,0-0.1-0.1-0.1c0.1,0,0.2,0,0.3,0c0,0-0.1,0-0.2,0c-0.1,0-0.2,0-0.1,0  c0.1,0,0.2,0,0.4,0c0,0-0.4,0-0.4,0c0.1,0,0.4,0,0.4,0c0,0-0.1,0-0.2,0c0.2,0,0.3,0,0.4,0c0.1,0,0,0-0.1-0.1c0,0,0.1,0,0.2,0  c0,0.1,0.1,0.2,0.1,0.1c0,0.1,0,0.2,0,0.3c0.1,0,0.2,0.1,0.2,0.4c0,0.1,0,0.2,0,0.3c0-0.1,0-0.1-0.1-0.1c0-0.2,0-0.4-0.1-0.4  c-0.1,0-0.2,0-0.4,0c-0.1,0-0.1,0-0.1,0c0,0,0,0,0,0c0,0,0,0,0,0c0,0,0,0,0,0c0,0,0,0,0,0c0,0,0.1,0,0.1,0c0,0,0,0.1,0,0.2  c0,0.1,0,0.2-0.1,0.3c-0.1,0.2-0.3,0.3-0.6,0.5c-0.3,0.1-0.6,0.3-0.9,0.4c-0.1,0-0.3,0.2-0.6,0.3c-0.2,0-0.3,0.1-0.5,0.1  C66.5,34.7,66.4,34.7,66.3,34.6C66.3,34.7,66.3,34.7,66.3,34.6C66.3,34.7,66.3,34.7,66.3,34.6L66.3,34.6z"/><path d="M69.9,27.2C69.9,27.2,69.9,27.1,69.9,27.2C69.9,27.1,69.9,27.1,69.9,27.2C69.9,27.1,69.9,27.2,69.9,27.2z"/><path d="M69.9,27C69.9,27.1,69.9,27.1,69.9,27C69.9,27.1,69.9,27.1,69.9,27z"/><path d="M70,27.3C70,27.2,70,27.2,70,27.3C70,27.2,69.9,27.2,70,27.3C69.9,27.2,70,27.2,70,27.3z"/><path d="M70.2,29.6C70.2,29.6,70.2,29.6,70.2,29.6C70.2,29.6,70.2,29.6,70.2,29.6z"/><text x="0" y="115" fill="#000000" font-size="5px" font-weight="bold" font-family="'Helvetica Neue', Helvetica, Arial-Unicode, Arial, Sans-serif">Created by Waitala</text><text x="0" y="120" fill="#000000" font-size="5px" font-weight="bold" font-family="'Helvetica Neue', Helvetica, Arial-Unicode, Arial, Sans-serif">from the Noun Project</text></svg>