<svg xmlns="http://www.w3.org/2000/svg" xmlns:xlink="http://www.w3.org/1999/xlink" version="1.1" x="0px" y="0px" viewBox="0 0 100 125" style="enable-background:new 0 0 100 100;" xml:space="preserve"><g><path d="M72.5961914,43.7904663c0.0216064-0.0144043,0.0551147-0.0287476,0.0863037-0.0431519   c0.0215454-0.0134888,0.0430298-0.0322876,0.0645752-0.0430298C72.7039795,43.7258301,72.6393433,43.7689209,72.5961914,43.7904663   z"/><path d="M72.2297974,41.2903442c-0.0215454,0,0,0.0430908-0.0430908,0   c-0.1077881-0.1077881-0.1724243-0.2802124-0.3879395-0.4095459l-0.0215454,0.0216064   c-0.1724243-0.1293335-0.4095459-0.2155762-0.6466064-0.1724243c-0.2155151,0.0430908-0.3879395,0.1939697-0.5172729,0.366394   c-0.0646362,0.0861816-0.0861816,0.1508789-0.1077881,0.2155151c-0.0215454,0.0646362-0.0430908,0.1293335-0.0646362,0.1724243   c0.0215454,0,0.0215454,0,0.0215454,0.0215454c-0.0215454,0.0862427-0.0861816,0.2155151-0.1292725,0.3448486l-0.0216064,0.0646362   c0,0.0215454,0,0.0215454,0.0216064,0.0215454c-0.0216064,0.0646973-0.0431519,0.1077881-0.0646973,0.1508789   c-0.1508789,0.6681519-0.258606,1.3578491-0.258606,2.0906372c0.0215454,0.1508789,0.0215454,0.3233032,0.0215454,0.4526367   c0,0.2155151-0.0215454,0.4957275-0.0215454,0.7112427c0.0861816-0.0431519,0.1724243,0.4741211,0.2801514,0.366394   c0,0.1293335,0.0215454,0.3448486,0.0646973,0.3448486c0.0861816,0.0215454,0.1939697,0.1077271,0.3016968,0.4525757   c0.0431519,0.1293335,0.0431519,0.3448486,0.0646973,0.3880005c0.0430908,0.0646362,0.0215454-0.1939697,0.0646362-0.1293335   c-0.1939697-1.0130005-0.258667-2.026001-0.1077881-3.0389404c0-0.1724243,0.1077881-0.8621216,0.3448486-1.5518188   c0.0646973-0.1724243,0.1293335-0.3448486,0.1939697-0.4957275c0.0215454-0.0430908,0.0215454-0.0646362,0.0431519-0.1077881   l0.0215454-0.0430908v-0.0215454l0.0215454-0.0215454c0.0215454,0,0.0430908,0,0.0646362,0.0215454   c0.0646973,0.0430908,0.1077881,0.1077881,0.1508789,0.1508789l0.0430908,0.0430908   c0.1939697,0.2371216,0.3448486,0.5603638,0.4526367,0.8190308c0.0646362,0.1077271,0.1077881,0.2155151,0.1508789,0.3448486   c0-0.0646973,0.0215454-0.1077881,0.0215454-0.1724243c0.0215454,0.1293335,0.0430908,0.258606,0.0646362,0.3017578   c0.0646973,0.2801514,0.1077881,0.1292725,0.1508789,0c0.0215454-0.0862427,0.0862427,0.0215454,0.0862427-0.1077881   c0,0.0861816,0.0215454,0.1508789,0.0215454,0.2370605c0.0430908,0-0.0430908-0.3016968,0.0215454-0.2370605   c0,0.0861816,0.0215454,0.1939697,0.0215454,0.3017578c0.0430908-0.0431519,0-0.3448486,0.0215454-0.3233032   c0.0215454,0.0430908-0.0215454,0.2801514,0.0215454,0.3016968c0,0,0-0.0861816,0-0.1508179   c0.0216064,0.3016968,0.0646973,0.4741211,0.1077881,0.1939697c0,0.0942383-0.0147705,0.2032471-0.0188599,0.3016357   c-0.0020752,0.0060425,0,0.0162354-0.0026855,0.0216064l0.0014648-0.0014648   c-0.0001831,0.0073853-0.0014648,0.0158691-0.0014648,0.0230713c0-0.0054321,0.0020752-0.0170898,0.0026855-0.024292   l0.0188599-0.0188599c0-0.0430908,0.0215454-0.0861816,0.0215454-0.1292725c0,0.0430908,0,0.0861816,0,0.1292725   c0.0215454-0.0215454,0.0430908-0.0646362,0.0430908-0.1077271c0.0119019-0.0415039,0.0206909-0.076355,0.031189-0.1141968   c0.0255737,0.0013428,0.052002,0.0023193,0.0765991,0.0064087c0.0862427,0,0,0.0862427,0.1293335,0.0646973   c-0.0862427,0.0430908-0.1293335,0.0430908-0.2155151,0.0861816c0,0.0215454,0.258606-0.1293335,0.2155151-0.0646362   c-0.0862427,0.0215454-0.1724243,0.0861816-0.2371216,0.1292725c0.0431519,0.0216064,0.2802124-0.1292725,0.3017578-0.0861816   c-0.0430908,0.0215454-0.258606,0.0646362-0.2370605,0.1077881c0,0,0.0861816-0.0216064,0.1293335-0.0431519   c-0.2371216,0.1293335-0.3233032,0.258667-0.1077881,0.1724243c-0.0430908,0.0287476-0.1101074,0.0574951-0.1723633,0.0861816   c-0.0215454,0.0134888-0.0431519,0.0216064-0.0646973,0.0431519h0.0430908   c0.0430908-0.0215454,0.0646362-0.0430908,0.1077271-0.0430908c-0.0215454,0.0215454-0.0646362,0.0430908-0.0861816,0.0430908   c0.0215454,0,0.0646362,0,0.0861816,0c0.1077881-0.0430908,0.2371216-0.0430908,0.2802124-0.0646362   c0.4525757-0.2371216,0.9698486-0.3017578,1.4440308-0.2155762c0-0.0215454-0.0215454-0.0430908,0.0215454-0.0430908   c0.0215454,0,0.0646362,0,0.0862427,0.0215454c0.0215454,0,0.0430908,0.0215454,0.0646362,0.0215454   c0.0430908,0.0215454,0.0861816,0.0431519,0.1077881,0.0431519l0.0215454-0.0216064c0,0.0216064,0,0.0431519-0.0215454,0.0431519   c0,0,0,0,0,0.0215454c0,0-0.0216064,0.0430908-0.0431519,0.0861816c-0.0215454,0.0431519-0.0430908,0.0862427-0.0861816,0.1293335   c0.0215454,0,0.0215454,0,0,0.0215454c-0.0431519,0.0646973-0.1293335,0.1724243-0.2155151,0.258667l-0.0431519,0.0430908   c0,0.0215454,0,0.0215454,0,0.0215454c-0.0430908,0.0430908-0.0646362,0.0862427-0.1077271,0.1077881   c-0.3879395,0.4957275-0.8190308,0.9698486-1.3578491,1.4224854c-0.1077881,0.1077271-0.2155151,0.2155151-0.3448486,0.3017578   c-0.1724243,0.1292725-0.4310303,0.2370605-0.6034546,0.3232422c0.0861816,0.0646973-0.366394,0.3448486-0.2371216,0.3880005   c-0.1292725,0.0646362-0.3232422,0.1292725-0.3232422,0.1723633c0,0.0862427-0.0646973,0.2371216-0.4095459,0.4095459   c-0.1508789,0.0646362-0.366394,0.0861816-0.4310303,0.1292725c-0.0646973,0.0431519,0.2155151,0,0.1293335,0.0431519   c1.0991821-0.3017578,2.0905762-0.8405762,2.9957886-1.5518188c0.1508789-0.1293335,0.7328491-0.625061,1.2285156-1.2285156   c0.1293335-0.1508789,0.258667-0.3017578,0.3664551-0.4526367c0.0215454-0.0430908,0.0646362-0.0861816,0.1077271-0.1292725   c0.0215454-0.0215454,0.0215454-0.0431519,0.0430908-0.0862427c0.0216064-0.0215454,0.0431519-0.0646362,0.0431519-0.1077271   c0.0646362-0.1508789,0.0861816-0.3233032,0.0646362-0.4526367c-0.0430908-0.3017578-0.3017578-0.5172729-0.4957275-0.6034546   c-0.1724243-0.0862427-0.3233032-0.1077881-0.4094849-0.1293335h-0.0646362   c-0.3879395-0.0646362-0.883667-0.0430908-1.2069702,0.0861816c-0.1508789,0.0646973-0.2802124,0.1293335-0.4094849,0.2155762   c0.0646362,0,0.1292725-0.0216064,0.1939697-0.0216064c-0.1508789,0.0431519-0.2802124,0.1077881-0.3233032,0.1508789   c-0.0030518,0.0018921-0.0027466,0.0022583-0.0056763,0.0040894c0.0056152-0.0400391,0.0132446-0.0814819,0.0056763-0.1118164   C72.8548584,42.475708,72.6177368,41.8291626,72.2297974,41.2903442z"/><path d="M21.1495972,49.3510742c0.0646362-0.0861816,0.1724243-0.2155151,0.2801514-0.3448486   c0.2371216-0.258606,0.4741821-0.5172729,0.2802124-0.2801514c0.1508789-0.1939697,0.3448486-0.366394,0.5172729-0.5388184   c0.1939697-0.1724243,0.366394-0.3448486,0.5819092-0.4741821c0.3879395-0.3017578,0.8405762-0.5819092,1.2716064-0.8190308   c0.9052124-0.4956665,1.8535767-0.8405151,2.8449707-1.1422729c1.9829102-0.5819092,4.0734863-0.8190308,6.1425781-1.2716064   c1.0345459-0.2155151,2.0906372-0.4957275,3.1035767-0.883667c0.4957275-0.1939697,1.0130005-0.4094849,1.4871826-0.6681519   s0.9483032-0.5603638,1.3793945-0.9052124c0.2155151-0.1724243,0.4310303-0.366394,0.6465454-0.5388184   c0.1939697-0.1939697,0.4095459-0.3879395,0.5819702-0.6035156c0.3879395-0.4094849,0.7112427-0.8620605,0.991394-1.3577881   c0.5819092-0.9699097,0.9267578-2.1121826,0.9052124-3.276062c0-0.1292725-0.0215454-0.2801514-0.0215454-0.4741211   c0-0.0646973,0-0.1293335-0.0215454-0.1939697v-0.0431519c0-0.0215454-0.0215454-0.0215454-0.0430908-0.0215454   c-0.0215454-0.0215454-0.0646973-0.0215454-0.0862427-0.0430908c-0.1077271-0.0646973-0.2155151-0.1077881-0.3448486-0.1724243   c-0.258606-0.1293335-0.5603638-0.3017578-0.8621216-0.5388184c-0.625-0.4526367-1.3577881-1.1638794-1.8319702-2.133728   c-0.2370605-0.4741821-0.4094849-1.0345478-0.4310303-1.616457c-0.0215454-0.5604248,0.1077271-1.1854248,0.4094849-1.7457886   c0.1293335-0.2802124,0.3233032-0.5388184,0.5388184-0.7759399c0.2155151-0.2370605,0.4741821-0.4525757,0.7327881-0.625   c0.2802124-0.1508789,0.5819092-0.2802124,0.883667-0.3448486c0.0862427-0.0215454,0.1508789-0.0215454,0.2370605-0.0215454   l0.1077881-0.0215454c0.0430908,0,0.0862427,0,0.1077881,0c0.0861816,0,0.1508789,0,0.2370605,0.0215454l0.2370605,0.0430908   c0.6466064,0.1293335,1.2285156,0.5172729,1.7888794,0.9483032c0.5604248,0.4526367,1.0776978,0.9699097,1.6380615,1.4656372   C46,30.4492168,46.625,30.9018536,47.3578491,31.1604595c0.7327881,0.258667,1.5302124,0.2802124,2.2199097,0.0862427   c0.6896973-0.1724243,1.2931519-0.5172729,1.7888794-0.8621216c0.5172729-0.3448486,0.9483032-0.7112427,1.3578491-1.0345459   c0.7974243-0.6681519,1.4440308-1.2069702,1.9613037-1.5302124c0.1293335-0.0862427,0.2370605-0.1724243,0.366394-0.2371216   c0.2801514-0.1724243,0.5819092-0.3233032,0.883667-0.4525757c0.3017578-0.1293335,0.6466064-0.2155762,0.9698486-0.2802124   c0.6681519-0.1293335,1.4009399-0.1293335,2.0906372-0.0215454c1.4009399,0.1939697,2.7587891,0.6681519,3.8795166,1.0130005   c0.5172729,0.1508789,1.0345459,0.3233032,1.5733643,0.4525757c0.5388184,0.1293335,1.0776367,0.2371216,1.6380005,0.3017578   c-0.5172729-0.0861816-0.9698486-0.1939697-1.3793945-0.3233032c0.5388794,0.1293335,1.0992432,0.2371216,1.5733643,0.3017578   c0.4741821,0.0430908,0.8621216,0.0646362,1.0776367,0.0646362c0.1508789,0,0.2802124,0,0.4095459-0.0215454   c0.1292725-0.0215454,0.2370605-0.0215454,0.3232422-0.0430908c0.1940308-0.0215454,0.3233032-0.0431519,0.4310913-0.0646973   c0.1939697-0.0430908,0.2155151-0.0646362,0.1293335-0.0646362c-0.1508789,0-0.7327881,0.0646362-1.1854248,0.0215454   c-0.3233032,0-0.258667-0.0430908-0.258667-0.0430908c0.0216064-0.0215454-0.0215454-0.0430908-0.5388184-0.0861816   c0.3664551,0.0215454,0.6466064,0.0430908,0.9052734,0.0215454c0.0684814,0,0.1509399-0.0082397,0.2283325-0.0114136   c-0.105957,0.0061035-0.2142944,0.0114136-0.3145752,0.0114136c-0.5172729,0-0.9698486-0.0431519-0.7112427-0.0431519   c0.7112427,0.0646973,1.4871826,0.0216064,2.1984253-0.1724243c-0.1293335,0.0216064-0.7327881,0.1293335-1.3363037,0.1508789   c-0.5819092,0.0215454-1.1207275-0.0430908-1.0560913-0.0646362c0.1939697,0.0215454,0.7112427,0.0646362,1.1854248,0.0430908   s0.9267578-0.0861816,0.9914551-0.1292725c0.0215454,0-0.1508789,0.0215454-0.3880005,0.0430908   c-0.1077271,0.0215454-0.2370605,0.0215454-0.3448486,0.0430908c-0.1077271,0-0.2370605,0.0215454-0.3232422,0.0215454   c0.5603638-0.0215454,1.0344849-0.1077271,1.4224854-0.2370605c0.1939697-0.0646362,0.3448486-0.1293335,0.4741211-0.1724243   c0.1293335-0.0646362,0.2371216-0.1077881,0.3017578-0.1508789c0.1508789-0.0861816,0.1724243-0.1077881,0.0430908-0.0646362   c-0.0646362,0.0215454-0.1724243,0.0646362-0.3016968,0.1292725c-0.0646973,0.0216064-0.1508789,0.0431519-0.258667,0.0862427   c-0.0861816,0.0215454-0.1939697,0.0646362-0.3233032,0.0861816c0.1724243-0.0430908,0.3448486-0.1077271,0.5388184-0.1724243   c0.1724243-0.0861816,0.366394-0.1508179,0.5388184-0.2801514c0.0490112-0.0259399,0.0880127-0.0650024,0.1347656-0.0944214   c-0.0870972,0.0514526-0.1724854,0.0975342-0.2424927,0.1375122c0.1724243-0.1077271,0.3448486-0.1939697,0.4956665-0.3448486   c0.1724243-0.1077271,0.3017578-0.258606,0.4526367-0.4094849c-0.0430908,0.0430908-0.1077881,0.0861816-0.1724243,0.1293335   c-0.1077881,0.1077271-0.2370605,0.1939697-0.3448486,0.2801514c-0.0075684,0.0075684-0.0181885,0.012146-0.0261841,0.0193481   c0.0991821-0.0756836,0.1948853-0.1549072,0.2848511-0.2348633c-0.0862427,0.0646362-0.1724243,0.1077881-0.258667,0.1939697   c-0.0430908,0.0215454-0.0861816,0.0646362-0.1508789,0.1077881c-0.0430908,0.0215454-0.1077271,0.0646362-0.1724243,0.0861816   c-0.1939697,0.1293335-0.4094849,0.2155151-0.625,0.3017578c-0.2155151,0.0646362-0.4310913,0.1293335-0.625061,0.1724243   c-0.4094849,0.0861816-0.7543335,0.1077271-1.0345459,0.1293335c-0.5172119,0.0215454-1.0560303,0-1.5949097-0.0646973   c-0.5388184-0.0646362-1.0560303-0.1724243-1.5949097-0.3233032c-0.5172119-0.1292725-1.0344849-0.3232422-1.5733032-0.4956665   s-1.0560913-0.366394-1.5949097-0.5388184c-1.0776367-0.3233032-2.2199707-0.625061-3.4053345-0.6466064   c-0.5819702-0.0215454-1.1854248,0.0215454-1.7889404,0.1939697c-0.2801514,0.0862427-0.5819092,0.1724243-0.8620605,0.2802124   c-0.1077881,0.1939697-0.3880005,0.3232422-0.625061,0.4741211c0,0.0215454,0.2155151-0.0861816-0.1077881,0.1077881   c-1.0130005,0.6681519-1.767334,1.2716064-2.651001,2.0043945l-0.0430908,0.0646362   c-0.6896973,0.5388184-1.4440308,1.0776367-2.2630615,1.3793945c-0.366394,0.1293335-0.7543335,0.2155151-1.1422729,0.1939697   c-0.3879395,0-0.7543335-0.0861816-1.1207275-0.2370605c-0.0862427-0.0430908-0.1724243-0.0646362-0.258667-0.1293335   c-0.0861816-0.0430908-0.1724243-0.0861816-0.258606-0.1508789c-0.1724243-0.1077271-0.3448486-0.2155151-0.4957275-0.3448486   c-0.3233032-0.2370605-0.6466064-0.5388184-0.9699097-0.8189697c0.0215454,0.0430908,0.0431519,0.0646362-0.0861816-0.0646973   c-0.258667-0.2370605-0.5819702-0.5388184-0.9699097-0.8621216c-0.366394-0.3232422-0.8189697-0.6465454-1.3362427-0.9052124   l-0.2371216-0.1077271c-0.0861816-0.0215454-0.1724243-0.0646973-0.2370605-0.0862427   c-0.1293335-0.0430908-0.1724243-0.0430908-0.1939697-0.0430908c-0.4957275-0.1293335-0.9914551-0.1724243-1.4224854-0.0861816   c-0.7112427,0.1508179-1.3578491,0.4956665-1.8535767,0.991394c-0.4956665,0.4957275-0.883667,1.0991821-1.0991821,1.767334   c-0.0430908,0.1724243-0.1077271,0.3233032-0.1292725,0.5172729l-0.0431519,0.258667l-0.0215454,0.258606   c-0.0215454,0.1724243,0,0.3448486,0,0.5388184c0.0215454,0.1724243,0.0430908,0.3448486,0.0646973,0.5172729   c0.1292725,0.6896992,0.4094849,1.357851,0.7758789,1.9182148c0.3879395,0.5819092,0.8621216,1.0991821,1.4009399,1.5302124   c0.258606,0.2155762,0.5603638,0.4095459,0.8405762,0.6035156c0.1508179,0.0861816,0.3016968,0.1724243,0.4525757,0.258606   l0.1077881,0.0431519c0,0.0430908,0,0.0861816,0,0.1077271c0.1077271,1.2932129-0.366394,2.6294556-1.1638794,3.7501831   c-0.6681519,0.9483643-1.5518188,1.767334-2.5216675,2.3493042c-0.7112427,0.4310303-1.5949097,0.8405151-2.5001221,1.1207275   c-0.9052124,0.3017578-1.8320312,0.5172729-2.651001,0.6681519c0.2801514,0.0646362-3.7070923,0.8405151-2.8880615,0.7974243   c-0.5388184,0.1077881-1.2285156,0.2371216-1.767334,0.366394c-0.5388184,0.1293335-0.9699097,0.258667-0.9914551,0.2802124   c-0.1077881,0.0646362-0.366394,0.1939697-0.9267578,0.4310303c-0.1293335,0.0646973-0.3017578,0.1293335-0.4741821,0.1939697   c-0.1724243,0.0862427-0.366394,0.1724243-0.6034546,0.2802124c-0.4310913,0.2155151-0.9699097,0.4741821-1.5518188,0.8621216   c-0.4741821,0.3017578-1.0345459,0.7327881-1.4655762,1.1422729c-0.2155762,0.2155151-0.3880005,0.4310913-0.5604248,0.6035156   c-0.1292725,0.1939697-0.2370605,0.3232422-0.3016968,0.4094849   C21.0633545,49.4373169,21.0848999,49.4373169,21.1495972,49.3510742z M70.392395,27.2250347   c-0.0987549,0.0761108-0.2128906,0.1368408-0.3178711,0.2068481C70.1854858,27.371336,70.2908325,27.3000469,70.392395,27.2250347z   "/><path d="M68.2424927,28.3154888c0.0862427-0.0215454,0.1724243-0.0215454,0.258667-0.0430908   c0.0215454-0.0215454-0.1077881,0.0215454-0.3017578,0.0430908c-0.0910034,0.0101318-0.2029419,0.0199585-0.3185425,0.027832   c0.0430908-0.0031128,0.0809937,0,0.1245728-0.0062256C68.0700684,28.3370953,68.156311,28.3154888,68.2424927,28.3154888z"/><path d="M70.5869751,27.161253c-0.09729,0.0807495-0.2044678,0.1508789-0.3130493,0.2192993   c0.1005859-0.0594482,0.2039185-0.1264648,0.2963257-0.2073364C70.5773926,27.1684551,70.5803223,27.1655254,70.5869751,27.161253z   "/><path d="M70.8504028,26.9361553c0.0862427-0.0862427,0.1508789-0.1508789,0.2155762-0.2155151   c-0.1283569,0.1282959-0.2676392,0.2672119-0.4197998,0.3983765c0.0241089-0.0160522,0.0535278-0.0321045,0.0749512-0.0535278   C70.7642212,27.022337,70.807312,26.9792461,70.8504028,26.9361553z"/><path d="M67.8027344,28.3472271c0.0270386-0.0015259,0.0515747-0.0020752,0.078125-0.0039062   C67.8538208,28.345335,67.8292236,28.3461285,67.8027344,28.3472271z"/><path d="M70.5869751,27.161253c0.0186157-0.0154419,0.0409546-0.0265503,0.0592041-0.0422363   C70.6271973,27.131712,70.6105957,27.1459942,70.5869751,27.161253z"/><path d="M33.4562378,30.298399c0.0431519,0.625,0.1724243,1.5517578,0.2155762,1.5949097   c0.0646362,0.0646362,0.1077271,0.215517,0.2370605,0.5388203c0.1077881,0.3232422,0.258606,0.8405151,0.5388184,1.5949097   c0.0646362,0.1508179,0.1293335,0.3016968,0.1939697,0.4741211c0.0862427,0.1724243,0.1508789,0.3448486,0.2370605,0.4957275   c0.1508789,0.3017578,0.3233032,0.5603638,0.3664551,0.6466064c0.1077271,0.1508789,0-0.0431519-0.0862427-0.2155762   c-0.1077881-0.1723633-0.1724243-0.366394-0.0861816-0.2155151c-0.5604248-0.991394-0.883667-2.133728-1.0776367-3.2760029   c-0.1940308-1.142334-0.258667-2.3276978-0.258667-3.5131226c0.0215454-1.1854248,0.1077881-2.3492432,0.258667-3.534668   c0.1508179-1.1854248,0.3447876-2.3492432,0.6680908-3.534668c0.1077881-0.4094849,0.3448486-1.3793945,0.7974854-2.6079102   c0.2155151-0.625,0.5172729-1.2931519,0.8405762-2.0043945c0.3447876-0.7112427,0.7327881-1.4224844,1.1853638-2.1337271   c0.4526367-0.6896973,0.9483643-1.3793945,1.4655762-2.0043945c0.5172729-0.625061,1.0776978-1.1854248,1.6165161-1.6811523   c1.0776367-0.991394,2.1121826-1.6380005,2.7156372-1.9828491c0.0646362-0.0430908,0.1508789-0.0861816,0.2155151-0.1293335   c0.6681519-0.3879395,1.4440308-0.7112427,2.2199707-1.0129395c0.7758789-0.3017578,1.5518188-0.4741821,2.1768188-0.625061   c0.3017578-0.0430908,0.5819092-0.1293335,0.883667-0.1724243s0.6034546-0.0861816,0.9052124-0.1077881   c-0.2801514-0.0215454-0.5388184,0-0.7758789,0c0.625-0.0646362,1.2285156-0.0646362,1.4871216-0.0861816   c1.3147583,0.0215454,0.5819092-0.0646362,0.0646362-0.1508789c-0.366394-0.0430908,0.1293335-0.0861816-0.4525757-0.1077271   c0.4310303-0.0216064,0.625,0.0215454,1.0560913,0.0215454c0.0215454-0.0215454-0.3017578-0.0215454-0.6035156-0.0431519   c-0.3016968,0-0.5603638,0-0.4094849-0.0215454c0.1077881,0,0.2155151,0,0.3233032,0s0.2155151,0,0.3233032,0.0215454   c0.2155151,0.0216064,0.4310303,0,0.6465454,0.0431519c-0.0646362-0.0431519-0.4310303-0.0646973-0.7758789-0.0646973   C50.3967896,6.482482,50.2243652,6.482482,50.1166382,6.482482c-0.1077881,0-0.1940308,0-0.1724243-0.0215454   c0.2370605-0.0430908,1.1853638,0.0862427,1.2716064,0.0430908c0.0215454-0.0215454-0.4095459-0.0215454-0.625061-0.0430908   c0.6466064,0,1.1638794,0.0862427,1.3578491,0.0646362c0.1939697,0,0.0861816-0.0430908-0.5172729-0.1292725   c0.2155151,0.0215454,0.4526367,0.0430908,0.7112427,0.1077271c0.1585083,0.0264282,0.3081055,0.0578613,0.4554443,0.0855713   c0.0109863,0.0024414,0.0217285,0.0042725,0.0326538,0.0067139c-0.0118408,0.0050049-0.0236206,0.0105591-0.0354614,0.0155029   c0.0056763-0.0028076,0.0140991-0.003479,0.0197754-0.0056763c0.0062256-0.0024414,0.0140991-0.0062866,0.0205078-0.0088501   c0.0001221,0.000061,0.0003662,0.000061,0.0004883,0.0001221c-0.0062256,0.0027466-0.0131836,0.0055542-0.0194092,0.0083008   c0.0072632-0.0026855,0.0175781-0.005127,0.0250854-0.0071411c0.0564575,0.0128784,0.1143799,0.0198975,0.1690674,0.03479   c-0.0194092-0.0097046-0.0388184-0.0144653-0.0582275-0.0194092c0.0407715,0.0059204,0.0822144,0.015686,0.1228638,0.0194092   c-0.0469971-0.0093994-0.1157837-0.0240479-0.1740112-0.036438C52.6947021,6.5944815,52.6880493,6.593627,52.6813965,6.59027   c-0.0022583-0.0004883-0.0042114-0.0007324-0.0064087-0.0012207c0.0231323-0.0050659,0.0405884-0.0101929,0.0710449-0.0203247   c0.1940308-0.0862427,0.3880005-0.1724243,0.5819702-0.2371216C53.1555786,6.3963003,52.9831543,6.482482,52.81073,6.5471792   c0.1293335-0.0431519,0.2801514-0.0862427,0.4525757-0.1508789c0.625061-0.1939697,1.2285156-0.3233032,1.5733643-0.3879395   c2.7372437-0.6035156,5.7330322-0.0215454,8.2116089,1.3577881c0.0216064-0.0215454-0.1077271-0.1077271,0.1077881,0   c0.1724243,0.0862427,0.3233032,0.1724243,0.4741821,0.2802124s0.2801514,0.1939697,0.4094849,0.3017578   c0.1293335,0.0861816,0.2802124,0.1939697,0.4094849,0.3016968c0.1293335,0.1077881,0.2802124,0.2155151,0.4310913,0.3233032   l0.0646362,0.0215454c0.2155151,0.1939697,0.4526367,0.3879395,0.6681519,0.6035156   c0.1077271,0.1077271,0.2155151,0.2155151,0.3233032,0.3232422c0.1077271,0.1077881,0.2155151,0.2155762,0.3232422,0.3233032   c0.7974854,0.8190308,1.508728,1.7026978,2.133728,2.651001c0-0.0215454,0-0.0430908,0.0646973,0.0430908   c0.0646362,0.1077881,0.1293335,0.2155762,0.2155151,0.3233032c0.0646362,0.1293335,0.1508789,0.2371216,0.2155151,0.3880005   c0.1508789,0.258606,0.3017578,0.5603638,0.4741821,0.8620605c0.0430908,0.0862427,0.0861816,0.1724243,0.1293335,0.258667   c0.0430908,0.0646362,0.0646362,0.0861816,0.0646362,0.0861816c0.0646362,0.1293335,0.1293335,0.258667,0.1939697,0.3879395   c0.0646362,0.1293335,0.1077881,0.2371216,0.1508789,0.3664551c1.3793945,3.0173941,2.0906372,6.4442739,1.9613037,10.1513662   c0,0.3879395-0.0215454,0.7758789-0.0430908,1.1638184c-0.0215454,0.3880005-0.0430908,0.7759399-0.1077881,1.142334   c-0.0430908,0.2801514-0.0861816,0.5819092-0.1293335,0.883667c-0.0430908,0.3017578-0.1292725,0.6034546-0.1939697,0.9267578   c-0.0430908,0.1508789-0.0646362,0.3017578-0.1077271,0.4526367c-0.0431519,0.1508179-0.0646973,0.3016968-0.1077881,0.4525757   c-0.0861816,0.3017578-0.1724243,0.5819092-0.258606,0.8405762c0.1939697-0.1293335-0.6896973,2.4139423-0.4095459,1.9397602   c-0.1508789,0.3448486-0.3448486,0.7543335-0.4956665,1.0991821c-0.0646973,0.1724243-0.1293335,0.3233032-0.1939697,0.4310303   c-0.0646973,0.1077881-0.0862427,0.1940308-0.0862427,0.1940308c0,0.0861816-0.0430908,0.2801514-0.1939697,0.6680908   c-0.0861816,0.1939697-0.1724243,0.4310913-0.3233032,0.7327881c-0.1508789,0.3017578-0.366394,0.6466064-0.6034546,1.0776978   c-0.1939697,0.3448486-0.4957275,0.7327881-0.7327881,1.0776367c-0.258667,0.3448486-0.4741821,0.625-0.5388184,0.7543335   c-0.2371216,0.366394,0.6465454-0.7759399,0.4094849-0.4094849c1.7242432-2.3061523,3.0389404-4.8709717,3.8364258-7.5866108   c0.8189697-2.7156982,1.1422729-5.5822144,0.9698486-8.4702759c-0.0215454-0.2370605-0.0430908-0.6681519-0.1077881-1.2285156   c-0.0861816-0.5603638-0.1508179-1.250061-0.3232422-2.0259399c-0.3017578-1.5518188-0.8621216-3.4484863-1.7457886-5.2373648   c-0.8621216-1.8104248-2.0475464-3.5131226-3.276062-4.8062744c-0.6034546-0.6466064-1.2285156-1.1854248-1.767334-1.6164551   c-0.5603638-0.4310913-1.0345459-0.7543335-1.4224854-0.9699097L63.630249,6.6979971   c-0.8190308-0.4741211-1.7888794-0.883667-2.7587891-1.1853638c-0.9698486-0.2802124-1.9397583-0.4310913-2.7371826-0.4957275   c-0.7328491-0.0430908-1.4871826,0-2.2199707,0.0861816c0.3448486,0,0.6681519-0.0215454,0.9267578,0   c-0.7543335,0.0216064-1.4871216,0.1077881-1.767334,0.1939697c-0.7758789,0.1724243-0.9267578,0.258667-0.8189697,0.258667   c0.0430908,0,0.1724243-0.0215454,0.3233032-0.0430908c0.1508179-0.0215454,0.3016968-0.0215454,0.4741211-0.0431519   c0.2155151-0.0215454,0.1724243,0,0.1724243,0.0216064c0,0.0215454,0.0215454,0.0215454,0.366394,0   c-0.1292725,0.0215454-0.2155151,0.0215454-0.3233032,0.0430908c-0.0861816,0.0215454-0.1939697,0.0430908-0.2801514,0.0646362   c-0.1724243,0.0430908-0.366394,0.0646973-0.6034546,0.1293335c-0.0216064,0.0215454,0.0646362-0.0215454,0.1939697-0.0430908   c0.1292725-0.0215454,0.3016968-0.0646973,0.4741211-0.0862427c0.1724243-0.0430908,0.3233032-0.0646362,0.4310913-0.0646362   c0.0861816,0,0.1293335,0,0.0430908,0.0215454c-0.2370605,0.0215454-0.4741821,0.0862427-0.7112427,0.1293335   s-0.4957275,0.1293335-0.7112427,0.1939697c0.0862427,0,0.4957275-0.1293335,0.8621216-0.1939697   c0.3879395-0.0862427,0.7327881-0.1077881,0.7112427-0.0862427c-0.258667,0.0215454-1.3363037,0.1939697-1.4224854,0.2802124   c0,0,0.1077881-0.0215454,0.258606-0.0646362c0.1508789-0.0431519,0.3233032-0.0646973,0.4310913-0.0862427   c-0.7327881,0.1508789-1.2716064,0.366394-1.4655762,0.4526367c-0.1939697,0.1077271-0.0646973,0.0646362,0.5819092-0.1293335   c-0.2155151,0.0646362-0.4957275,0.1508789-0.7543335,0.258606c-0.0423584,0.0176392-0.0812988,0.0352783-0.1235352,0.0529175   c-0.1757202,0.0701904-0.3514404,0.1471558-0.5271606,0.2223511c-0.0409546-0.0092163-0.079895-0.0140381-0.1195068-0.0229492   c-0.0374146-0.0078125-0.0656128-0.0123901-0.1031494-0.0198364c-0.1021118-0.0216675-0.2040405-0.0480347-0.3120728-0.0600586   c0.1724243,0.0215454,0.3232422,0.0646973,0.4956665,0.0862427c-0.1292725-0.0431519-0.258606-0.0862427-0.4094849-0.1293335   C51.6253052,6.3100576,51.043396,6.223876,50.7200928,6.223876c-1.3147583-0.0646973-2.6294556,0.0646362-3.9226074,0.3879395   c-1.250061,0.3879395-2.4785767,0.8621216-3.6424561,1.4871216c0,0.0216064,0.1293335-0.0430908-0.0430908,0.0862427   c-0.3017578,0.1724243-0.5603638,0.3233032-0.8190308,0.4741821c-0.258606,0.1508179-0.5172729,0.3232422-0.7974243,0.5172119   L41.473938,9.2197256c-0.2155762,0.1508789-0.4310913,0.3233032-0.6466064,0.4741211   c-0.2155151,0.1724243-0.4310303,0.3448486-0.6466064,0.5172729c-0.7758789,0.6896973-1.4655762,1.4440308-2.0905762,2.2415161   c0.0215454-0.0215454,0.0430908-0.0215454-0.0216064,0.0646362c-0.1292725,0.1724243-0.2801514,0.366394-0.4525757,0.5819702   c-0.1724243,0.2155151-0.3448486,0.4525757-0.5172729,0.7112427c-0.0430908,0.0861816-0.0862427,0.1508179-0.1508789,0.2155151   c-0.0430908,0.0646362-0.0430908,0.0861816-0.0430908,0.0861816c-0.1508789,0.2371216-0.2802124,0.4310913-0.3879395,0.625061   c-1.4656372,2.5863028-2.4354858,5.4744253-2.9527588,8.6857901c-0.0861816,0.6896973-0.1508789,1.3577881-0.2155151,2.0043945   c-0.1077881,0.9699097-0.1939697,2.2199707-0.1939697,3.1682739c0.0430908-0.0646362,0.0861816,0.4741821,0.1292725,0.9698486   C33.3485107,30.0612774,33.413147,30.5139141,33.4562378,30.298399z M53.0488892,6.4204702   c-0.1314697,0.0553589-0.2626953,0.1106567-0.3873901,0.1659546c-0.0001831-0.000061-0.0004272-0.000061-0.0006104-0.0001221   C52.7855225,6.534667,52.9123535,6.4815054,53.0488892,6.4204702z"/><path d="M52.552063,6.6333609c0.0202637-0.0092163,0.0439453-0.0184326,0.0645142-0.0276489   c-0.0004883,0.0001831-0.0010986,0.0002441-0.0015869,0.0004272C52.5957642,6.6137686,52.5699463,6.6268911,52.552063,6.6333609z"/><path d="M55.2677612,47.260498c0.0215454-0.0431519,0.0646362-0.1077881,0.1724243-0.1939697   c0.1077271-0.0862427,0.2801514-0.1724243,0.5388184-0.3448486c0.0430908-0.0216064,0.1077271-0.0646973,0.1724243-0.0862427   c0.0646362-0.0430908,0.1292725-0.0646362,0.1723633-0.1077881c0.1077881-0.0646362,0.2155762-0.1077271,0.2371216-0.1508179   c0.1077271-0.0862427-0.3017578,0.1077271-0.1939697,0.0215454c-0.366394,0.2370605-0.7759399,0.3879395-1.1854248,0.5388184   c-0.4094849,0.1293335-0.8405762,0.2370605-1.2716064,0.258606c-0.4310913,0.0431519-0.8621216,0.0646973-1.3147583,0   c-0.4310303-0.0430908-0.883667-0.1292725-1.3146973-0.2370605c-0.3017578-0.0430908-1.4440308-0.4094849-2.4139404-1.2285156   c-0.4956665-0.3879395-0.9267578-0.8621216-1.2716064-1.2931519c-0.3448486-0.4310913-0.5819092-0.8405762-0.7327881-1.0560913   c-0.0215454-0.0215454-0.0430908-0.0646973-0.0430908-0.0862427c-0.3017578-0.5172729-0.625061-1.1638184-0.8621216-1.6164551   c-0.1077881-0.2155151-0.2370605-0.4094849-0.3448486-0.625c0.0215454,0.1077271,0.0430908,0.2155151,0.0646362,0.3016968   c-0.0861816-0.2155151-0.1724243-0.4525757-0.2155151-0.5388184c-0.2155151-0.4741211-0.1508789-0.1724243-0.1508789,0.0215454   c0.0215454,0.1508789-0.0861816-0.0215454-0.0430908,0.1939697c-0.0646362-0.1508179-0.0862427-0.2370605-0.1293335-0.3879395   c-0.0430908,0,0.1724243,0.4741821,0.1077881,0.3879395c-0.0431519-0.1508179-0.1077881-0.3232422-0.1724243-0.4741211   c-0.0215454,0.0646362,0.1724243,0.5388184,0.1293335,0.5388184c-0.0431519-0.0862427-0.1077881-0.4526367-0.1508789-0.4741821   c-0.0215454,0,0.0430908,0.1508789,0.0646362,0.2370605c-0.1724243-0.4741211-0.3017578-0.7327881-0.2155151-0.2801514   c-0.0286865-0.1003418-0.0652466-0.2271729-0.1003418-0.3530273l-0.0505371-0.1642456v0.0646362   c0.0215454,0.0646973,0.0430908,0.1508789,0.0646362,0.2155762l-0.0646362-0.1940308c0,0.0431519,0,0.1077881,0,0.1724243   c0.0430908,0.2371216,0.0646362,0.4526367,0.1077881,0.5604248c0.2801514,0.991394,0.6896973,1.9396973,1.2069702,2.8233643   c0.0215454,0,0-0.0646362,0.0430908,0c0.1508789,0.2155762,0.2155151,0.4310913,0.3879395,0.6466064h0.0430908   c0.1077881,0.1724243,0.2155762,0.366394,0.3448486,0.5388184c0.1293335,0.1724243,0.258667,0.3017578,0.3879395,0.4741821   c0.1508789,0.1508789,0.2802124,0.3016968,0.4310913,0.4310303c0-0.0215454,0-0.0215454,0.0430908,0   c0.1293335,0.1077881,0.2802124,0.2802124,0.4741821,0.4310913c0.0215454,0.0215454,0.0646362,0.0430908,0.0861816,0.0646362   s0.0431519,0,0.0431519,0c0.0861816,0.0646362,0.1508179,0.1293335,0.2370605,0.1939697   c0.9698486,0.6896973,2.133728,1.1207275,3.4053345,1.2716064c0.2802124,0.0215454,0.5388184,0.0215454,0.7974854,0.0431519   c0.3879395,0,0.8621216,0.0215454,1.250061-0.0216064c-0.0431519-0.0430908,0.1724243-0.1077271,0.366394-0.1724243   c0.1939697-0.0646362,0.3448486-0.1508179,0.258606-0.1723633c0.1293335-0.0216064,0.258667-0.0646973,0.3879395-0.0862427   C55.1599731,47.3035889,55.2677612,47.2820435,55.2677612,47.260498z"/><path d="M44.749939,40.0402832c0.0144043,0.0577393,0.0328979,0.1224365,0.0505371,0.185791l0.0356445,0.1159668   C44.8145752,40.2557983,44.7714844,40.1264648,44.749939,40.0402832z"/><path d="M56.6471558,36.4624634c0,0.0646362,0,0.1508789,0.0215454,0.1939697   c0.1292725,0.3449097,0.2801514,0.625061,0.4741211,0.883728c0.0215454,0,0.0215454-0.0431519,0.0430908-0.0216064   c0.0646973,0.0646973,0.0646973,0.1508789,0.1293335,0.1940308l0.0215454-0.0216064   c0.0431519,0.0646973,0.0646973,0.1293335,0.1077881,0.1724243c0.0861816,0.0862427,0.1939697,0.1724243,0.3017578,0.258667   c0,0,0-0.0215454,0.0215454-0.0215454c0.0430908,0.0215454,0.1077271,0.0861816,0.1724243,0.1292725l0.0215454,0.0216064   c0.0215454,0,0.0215454,0,0.0215454,0c0.0215454,0.0215454,0.0430908,0.0430908,0.0861816,0.0646362   c0.366394,0.1724243,0.7974854,0.258606,1.1854248,0.1939697c0.0862427-0.0215454,0.1939697-0.0646362,0.258667-0.0646362   c0.1292725-0.0216064,0.2801514-0.0431519,0.3879395-0.0646973c-0.0431519-0.0861816,0.1939697-0.2370605,0.0861816-0.3016968   c0.0646362-0.0216064,0.1508789-0.0862427,0.1293335-0.1077881c-0.0430908-0.0861816-0.0430908-0.1724243,0-0.3017578   c0.0215454-0.0430908,0.0861816-0.0861816,0.0861816-0.1077271c0-0.0431519-0.0861816,0.0215454-0.0861816-0.0215454   c-0.1077881,0.1292725-0.2370605,0.2370605-0.4310913,0.3016968c-0.1723633,0.0646973-0.4094849,0.0862427-0.625,0.0431519   c-0.0430908,0-0.1293335,0-0.2370605-0.0431519c-0.1077881-0.0430908-0.2371216-0.0861816-0.3880005-0.1939697   c-0.2801514-0.1724243-0.5172119-0.4741821-0.5819092-0.6034546l-0.0215454-0.0215454   c-0.0861816-0.1293335-0.2155151-0.3017578-0.3233032-0.4095459c-0.0430908-0.0430908-0.1077271-0.0861816-0.1724243-0.1508179   c0,0.0430908,0,0.0646362,0,0.1077271c-0.0430908-0.0646362-0.0646362-0.1293335-0.0861816-0.1508789   c-0.1077881-0.1077271-0.1077881-0.0215454-0.1508789,0.0646973c0,0.0430908-0.0646362,0.0215454-0.0646362,0.0861816   c-0.0216064-0.0430908-0.0431519-0.0646362-0.0646973-0.1077881c-0.0215454,0,0.0862427,0.1293335,0.0215454,0.1077881   c-0.0215454-0.0430908-0.0430908-0.0861816-0.0646362-0.1293335c-0.0215454,0.0431519,0.0646362,0.1508789,0.0215454,0.1724243   c-0.0215454-0.0215454-0.0215454-0.1508789-0.0646362-0.1293335c0,0,0.0215454,0.0431519,0.0215454,0.0646973   c-0.0861816-0.1293335-0.1724243-0.1724243-0.1508789-0.0431519c-0.0215454-0.0430908-0.0430908-0.1077271-0.0646362-0.1508179   c0,0.0215454,0.0215454,0.0646362,0.0215454,0.0861816l-0.0430908-0.0861816v0.0215454   c0,0.0215454,0,0.0430908,0.0215454,0.0646362l-0.0215454-0.0430908   C56.6687012,36.4193726,56.6471558,36.440918,56.6471558,36.4624634z"/><path d="M34.921875,92.4998779c-1.3147583-0.4526367-2.4354858-1.3146973-3.3838501-2.3492432   c-0.9483032-1.0345459-1.7241821-2.2415161-2.4354248-3.4700317c-0.366394-0.625061-0.6896973-1.2716064-1.0345459-1.8966675   c-0.3448486-0.6465454-0.6466064-1.2931519-0.9699097-1.9397583c-0.625-1.3146973-1.2285156-2.6509399-1.767334-4.0087891   c-0.1077271-0.2370605-0.258606-0.625061-0.4741211-1.1638794c-0.1939697-0.5388184-0.4526367-1.1853638-0.7327881-1.9613037   c-0.5388184-1.508667-1.142334-3.4268799-1.6811523-5.3881836s-0.9698486-4.0088501-1.2931519-5.7761841   c-0.0862427-0.4525757-0.1508789-0.8621216-0.2155151-1.2716064c-0.0646973-0.4094849-0.1077881-0.7758789-0.1724243-1.1422729   c-0.1077881-0.7112427-0.1724243-1.2932129-0.2155762-1.7242432c-0.0215454-0.1077881-0.0215454-0.2155151-0.0430908-0.3233032   c-0.0646362-0.4741821-0.1077271-0.9698486-0.1508789-1.4871216c-0.0430908-0.5172729-0.1077271-1.0130005-0.1292725-1.5302734   c-0.0646973-1.0130005-0.0862427-1.9828491-0.0646973-2.7803345c0.0215454-0.7327881,0.0646973-1.4655762,0.1724243-2.1983643   c-0.0861816,0.3233032-0.1508789,0.6466064-0.1939697,0.9052124c0.0862427-0.7543335,0.2802124-1.4871216,0.3448486-1.767334   c0.1077881-0.3879395,0.1724243-0.625,0.2155151-0.7543335c0.0431519-0.1293335,0.0216064-0.1508789,0-0.1077881   c-0.0215454,0.0430908-0.0861816,0.1508789-0.1508179,0.2802124c-0.0646973,0.1292725-0.1293335,0.3016968-0.1940308,0.4525757   c-0.1508179,0.4310913-0.0430908-0.1724243-0.2370605,0.4957275c0.1293335-0.4957275,0.1939697-0.7327881,0.366394-1.2285156   c0-0.0215454-0.0430908,0.0646362-0.0861816,0.1939697c-0.0431519,0.1293335-0.1077881,0.3233032-0.1508789,0.4741821   c-0.0862427,0.3448486-0.1724243,0.6466064-0.1508789,0.4741821c0.1293335-0.4741821,0.2802124-1.0130005,0.4741821-1.4871826   c-0.0426025,0.085144-0.2109375,0.4853516-0.3395386,0.8686523c0.0056152-0.0163574,0.010498-0.0336304,0.0162354-0.0496216   c0.1077271-0.3233032,0.2370605-0.625061,0.2155151-0.6681519c0-0.0140991-0.0827026,0.1863403-0.1582642,0.3977051   c0.1951294-0.5957642,0.4080811-1.0546265,0.4815674-1.2382812c0.1077271-0.2155151-0.0215454-0.1077271-0.3448486,0.5603638   c0.1939697-0.4741211,0.5603638-1.0991821,0.8621216-1.5517578c-0.0646973,0.1077271-0.1724243,0.258606-0.2802124,0.4094849   l0.258667-0.3879395c-0.0216064,0.0430908-0.0646973,0.0861816-0.1077881,0.1292725   c-0.0646362,0.0862427-0.1293335,0.1940308-0.1939697,0.2802124c-0.0646362,0.1077881-0.1077881,0.1939697-0.1724243,0.3017578   l0.1508789-0.2802124l0.1724243-0.258606c-0.0862427,0.1292725-0.2155151,0.258606-0.3017578,0.4310303   c-0.1939697,0.3017578-0.366394,0.625061-0.4957275,0.9267578c-0.1292725,0.3017578-0.2370605,0.5388184-0.3016968,0.7327881   c-0.4957275,1.5302734-0.6466064,3.1251831-0.6466064,4.6985474c-0.0862427,1.6595459,0.0861816,3.2113647,0.2370605,4.7631836   c0.0215454,0,0.0215454-0.1724243,0.0646973,0.0861816c0.1077271,0.7974854,0.1292725,1.4656372,0.258606,2.2630615   l0.0430908,0.0430908c0.0431519,0.3017578,0.0862427,0.625061,0.1293335,0.9483643s0.1077881,0.6465454,0.1508789,0.9698486   c0.0646362,0.3017578,0.1077881,0.6035156,0.1508789,0.9052124l0.1939697,0.9052124l0.1939697,0.9052734l0.2155151,0.883667   c0-0.0431519,0-0.0431519,0.0430908,0.0646362c0.0646973,0.2370605,0.1293335,0.5388184,0.1939697,0.8621216   c0.0646973,0.3233032,0.1724243,0.6681519,0.258667,1.0130005c0.0215454,0.1077271,0.0646362,0.2155151,0.0861816,0.3016968   c0.0215454,0.0862427,0.0431519,0.0862427,0.0431519,0.1077881c0.0861816,0.3233032,0.1508179,0.6034546,0.2155151,0.8621216   c0.4957275,1.7026367,1.0776367,3.4053345,1.7242432,5.1295776c0.6465454,1.7241821,1.3793335,3.4484253,2.2199097,5.2157593   c0.366394,0.7327881,0.7327881,1.4871826,1.0991821,2.1768188c0.258667,0.5172729,0.5603638,1.1207886,0.883667,1.7242432   c0.3017578,0.5819092,0.6035156,1.1854248,0.9052124,1.6810913c0-0.1077271,0.366394,0.4526367,0.7112427,0.9483643   c0.366394,0.4957275,0.7112427,0.9267578,0.6035156,0.6681519c0.1077271,0.1508789,0.2370605,0.3232422,0.366394,0.4956665   s0.258606,0.3448486,0.3879395,0.4957275c0.2370605,0.3017578,0.4526367,0.5172729,0.4741821,0.5388184   c0.0430908,0.0215454,0.1077271,0.0646362,0.1939697,0.1293335c0.0861816,0.0646362,0.2155151,0.1508789,0.366394,0.2801514   c0.3233032,0.258667,0.7974243,0.6896973,1.6380005,1.1854248c0.3233032,0.1939697,0.7543335,0.4310303,1.142334,0.5819092   c0.0861816,0.0431519,0.1939697,0.0862427,0.2801514,0.1077881c0.0862427,0.0215454,0.1724243,0.0430908,0.258667,0.0862427   c0.1508179,0.0430908,0.258606,0.0861816,0.3232422,0.0861816C35.8486328,92.8231812,34.5123291,92.4136353,34.921875,92.4998779z    M20.2155151,50.9264526c-0.0289917,0.0880737-0.0562744,0.1760864-0.0801392,0.2581177   C20.1600342,51.098877,20.1867065,51.0130615,20.2155151,50.9264526z M20.1329956,51.1928101   c-0.0777588,0.2677002-0.1257324,0.4749756-0.1257324,0.4428711   C20.0339355,51.5557251,20.0784302,51.3828125,20.1329956,51.1928101z"/><path d="M64.1259155,48.5967407c0.0862427,0.1293335,0.1940308,0.3448486,0.3233032,0.5388184   c0.0215454,0.0215454,0.0431519,0.0646362,0.0646973,0.0862427c0.0215454,0.0215454,0.0215454,0.0215454,0.0430908,0.0215454   c0.0430908,0.0861816,0.1077271,0.1724243,0.1508789,0.258606c0.6465454,0.9699097,1.2931519,1.9397583,2.0043945,3.017395   c0.1508789,0.2155151,0.3233032,0.4310913,0.4526367,0.6466064c0.2155151,0.3233032,0.4310303,0.7543335,0.625,1.0776367   c0.0646362-0.1077881,0.5603638,0.6681519,0.5603638,0.4526367c0.1293335,0.2155151,0.3233032,0.5388184,0.3448486,0.5388184   c0.1077881,0,0.2802124,0.1292725,0.6681519,0.6680908c0.1508789,0.2155762,0.3233032,0.5819702,0.3879395,0.6466064   c0.1077881,0.1077881-0.1293335-0.3233032-0.0215454-0.2155151c-0.9698486-1.6596069-1.9397583-3.2545166-2.9311523-4.9140625   c-0.1940308-0.2801514-0.8621216-1.3793945-1.5518188-2.5216675c-0.3448486-0.5819092-0.7112427-1.1638794-1.0130005-1.6596069   c-0.3017578-0.5172119-0.6034546-0.9267578-0.7758789-1.1638184l-0.0646973-0.0862427   c-0.366394-0.5172119-0.9267578-1.0991821-1.3577881-1.4440308c-0.1939697-0.1508789-0.4095459-0.3016968-0.6466064-0.4310303   c0.0861816,0.0861816,0.1508789,0.1724243,0.2155151,0.2370605c-0.1939697-0.1724243-0.4094849-0.3233032-0.4957275-0.366394   c-0.4741211-0.2801514-0.2370605-0.0646362-0.1077271,0.1077881c0.1077271,0.1077271-0.0862427,0.0215454,0.0861816,0.1939697   c-0.1292725-0.1077881-0.1939697-0.1508789-0.3448486-0.2371216c-0.0215454,0,0.0862427,0.0646973,0.1939697,0.1293335   c0.0862427,0.0646362,0.1724243,0.1293335,0.1077881,0.1077881c-0.1293335-0.1077881-0.2802124-0.1939697-0.4094849-0.2802124   c0.0215454,0.0646973,0.4525757,0.3233032,0.4094849,0.3448486c-0.0646362-0.0430908-0.3448486-0.3017578-0.4094849-0.2801514   c0,0,0.1292725,0.1077271,0.1939697,0.1508789c-0.4310913-0.2802124-0.6896973-0.3664551-0.3233032-0.0862427   c-0.0725098-0.0483398-0.1646118-0.1077271-0.2587891-0.1641846c0.0196533-0.0326538,0.046936-0.0609131,0.0648193-0.0944824   c0.1724243-0.2801514,0.3233032-0.5388184,0.4957275-0.625c0.0646362-0.0431519,0.1508179-0.0646973,0.258606-0.0862427   s0.258667,0,0.4526367,0c0.1724243,0,0.3879395,0,0.6034546-0.0430908s0.4310303-0.1508789,0.625-0.3017578   c0.3664551-0.2801514,0.5604248-0.6465454,0.7112427-1.0129395c0.1508789-0.3448486,0.2155762-0.7328491,0.2802124-1.0776978   c0.0215454-0.2370605,0.0861816-0.7974243,0.1724243-1.5302124c0.0861816-0.7112427,0.1939697-1.6164551,0.6034546-2.3708496   c0.1939697-0.366394,0.4526367-0.7112427,0.7759399-0.9698486c0.3233032-0.258667,0.6896973-0.4741821,1.0344849-0.6896973   c0.3448486-0.1939697,0.6896973-0.366394,0.9914551-0.5603638c0.3017578-0.1724243,0.5388184-0.3448486,0.7112427-0.4741821   l0.1293335-0.1077881c0.366394-0.3016968,0.7112427-0.7111816,0.9698486-1.1422729   c0.258667-0.4310303,0.4310913-0.883667,0.5388184-1.2500629c0.0862427-0.3448486,0.1724243-0.6896973,0.2371216-1.0345459   c-0.0646973,0.1508789-0.1077881,0.3017578-0.1724243,0.4095459c0.1077271-0.3448486,0.1939697-0.6896973,0.1939697-0.8190308   c0.1077271-0.7543335-0.0215454-0.3448486-0.1508789-0.0646362c-0.0646362,0.1939697-0.0646362-0.0862427-0.1508789,0.2155151   c0.0646362-0.2155151,0.0862427-0.3448486,0.1293335-0.5603638c-0.0215454-0.0215454-0.1293335,0.7112427-0.1508789,0.5388184   c0.0646362-0.2155151,0.1077881-0.4526367,0.1508789-0.6896973c-0.0430908,0.0646362-0.1724243,0.7758789-0.2155151,0.7327881   c0.0215454-0.1293335,0.1939697-0.625061,0.1508179-0.6681519c0,0-0.0646362,0.2155151-0.0861816,0.3233032   c0.1293335-0.6896973,0.1508789-1.0991821-0.0215454-0.4741821c0.0430908-0.2155151,0.1293335-0.5388184,0.1508789-0.7758789   c-0.0215454,0.1077271-0.0646973,0.3233032-0.0862427,0.4310303l0.0646973-0.4094849   c0,0.0215454-0.0216064,0.0430908-0.0216064,0.0646362c-0.0215454,0.1077881-0.0430908,0.1939697-0.0646362,0.3017578   l0.0430908-0.258667c-0.0215454,0.0646973-0.0646362,0.1293335-0.0861816,0.2155762   c-0.0861816,0.3016968-0.1939697,0.6034546-0.2155151,0.7758789c-0.1508789,0.6681519-0.3448486,1.3363037-0.625061,1.9182129   c-0.3448486,0.6896992-0.7112427,1.2069721-1.1853638,1.6380024c0,0.0216064,0.0646362-0.0215454,0,0.0646973   c-0.2371216,0.2370605-0.5172729,0.3233032-0.7974854,0.5172729v0.0430908   c-0.2370605,0.1293335-0.5172729,0.258606-0.7758789,0.3879395c-0.4957275,0.2802124-1.0130005,0.5819092-1.4440308,1.0130005   c0.0215454,0,0.0215454,0-0.0216064,0.0430908c-0.1723633,0.1724243-0.4310303,0.4526367-0.625,0.7543335   c-0.0215454,0.0431519-0.0430908,0.0862427-0.0861816,0.1508789c-0.0216064,0.0431519-0.0216064,0.0431519,0,0.0646973   c-0.0862427,0.1508789-0.1508789,0.2801514-0.1940308,0.3879395c-0.3232422,0.8189697-0.4094849,1.6595459-0.4741211,2.5001221   c-0.0431519,0.4094849-0.0646973,0.8405762-0.1077881,1.250061c-0.0430908,0.4310303-0.1077271,0.8190308-0.2801514,1.2069702   c-0.1293335,0.3233032-0.3448486,0.6034546-0.6466064,0.7327881c-0.2155151,0.0861816-0.5172729,0.0861816-0.8190308,0.0646362   c-0.1508789,0-0.3232422,0-0.4741211,0.0215454c-0.1724243,0.0431519-0.3233032,0.1077881-0.4310913,0.1939697   c0.0430908,0-0.0215454,0.0646973-0.0861816,0.1508789c-0.0646973,0.0862427-0.1508789,0.2155762-0.1939697,0.3448486   c-0.1293335,0.258667-0.2155762,0.4957275-0.1077881,0.4095459c-0.1939697,0.3016968-0.5603638,0.6896973-0.5603638,0.7327881   c0,0.0646362-0.0430908,0.1508789-0.1508789,0.3233032c-0.1293335,0.1723633-0.3448486,0.3879395-0.7543335,0.6680908   c-0.3233032,0.2155762-0.8621216,0.4310913-0.9699097,0.4957275c-0.1724243,0.1077881,0.4741821-0.1508789,0.2802124-0.0430908   c0.625-0.3017578,1.250061-0.6681519,1.7888794-1.1854248c0.2150879-0.2150879,0.4190063-0.4516602,0.5845947-0.7089844   c0.1712036,0.1287842,0.321228,0.2784424,0.4284058,0.3641968c0.7974243,0.5603027,1.4655762,1.2715454,2.0474854,2.0474854   c0.0215454,0,0-0.0646362,0.0431519,0c0.1723633,0.1939697,0.2370605,0.3879395,0.3879395,0.6034546h0.0430908   c0.1077881,0.1724243,0.1939697,0.3448486,0.3017578,0.5388184c0.2155151,0.3448486,0.4310303,0.6681519,0.625,1.0130005   C64.0828247,48.5751953,64.0828247,48.5751953,64.1259155,48.5967407z M60.2340088,43.9890137   c0.0006104-0.0010376,0.0014038-0.0019531,0.0020142-0.0029907c0.0108032,0.0053711,0.0199585,0.0159912,0.0319824,0.0199585   L60.2340088,43.9890137z"/><path d="M53.614563,67.2406006c-0.041748,0.005249-0.0835571,0.010437-0.1357422,0.020874   C53.4788208,67.270874,53.5460205,67.2553711,53.614563,67.2406006z"/><path d="M53.614563,67.2406006c0.0397949-0.0049438,0.081604-0.0109863,0.1292725-0.0198975   C53.7158203,67.2202759,53.6671143,67.2293091,53.614563,67.2406006z"/><polygon points="60.1171265,65.6881714 60.1182251,65.7006226 60.118042,65.6975098  "/><path d="M80.6138306,64.3734131c-0.0430908-0.6034546-0.1508179-1.3578491-0.3879395-2.1768188   c-0.2370605-0.8190308-0.625-1.7242432-1.2285156-2.5648193c-0.3016968-0.4094849-0.6465454-0.8189697-1.0560913-1.1853638   c-0.1939697-0.1939697-0.4094849-0.3448486-0.625-0.5172729c-0.2155151-0.1508789-0.4526367-0.3233032-0.6896973-0.4526367   c-0.2370605-0.1508789-0.4957275-0.258606-0.7327881-0.3879395c-0.258667-0.1077881-0.5172729-0.2155151-0.7759399-0.3017578   c-0.258606-0.0861816-0.5388184-0.1508789-0.7974243-0.2155151c-0.2802124-0.0430908-0.5388184-0.0861816-0.8190308-0.0861816   c-0.2801514-0.0216064-0.5388184,0-0.8189697,0c-0.258667,0.0430908-0.5388184,0.0646362-0.7974854,0.1292725   c-0.5172729,0.1077881-0.991394,0.2802124-1.4224854,0.4741821c-0.8621216,0.366394-1.6164551,0.7758789-2.2630615,1.0560913   c-0.6465454,0.3017578-1.1853638,0.4741821-1.5949097,0.5603638c-0.1077271,0.0215454-0.1939697,0.0430908-0.3016968,0.0646973   c-0.4526367,0.0861816-0.9268188,0.0861816-1.4440918,0.0646362c-0.5172119-0.0215454-1.0560303-0.0430908-1.6380005,0.0215454   c-0.5603638,0.0646362-1.1207275,0.258606-1.5733643,0.5819092c-0.4525757,0.3017578-0.7974243,0.6681519-1.0560913,1.0345459   c-0.3631592,0.5117798-0.6107788,1.0870972-0.7657471,1.6865845c-0.0493164,0.0009766-0.0965576,0-0.1610107,0.0161133   c-0.2801514,0.0430908-0.5603638,0.0861816-0.6896973,0.1292725c-1.1853638,0.3017578-2.392334,0.6466064-3.5777588,0.9914551   c0,0.0215454,0.0646973,0.0215454-0.0215454,0.0430908c-0.3017578,0.1077881-0.5603638,0.1293335-0.883667,0.2371216   l-0.0215454,0.0430908c-0.2370605,0.0646362-0.4957275,0.1293335-0.7543335,0.1724243   c-0.4450684,0.1416016-0.8886719,0.2859497-1.315979,0.4633179c-0.1384277-0.1051636-0.2719116-0.2178345-0.3867188-0.3555908   c-0.0430908-0.0215454-0.2155151-0.1939697-0.3448486-0.3879395c-0.1292725-0.1939697-0.2370605-0.4310303-0.258606-0.5172729   v-0.0215454c-0.0430908-0.1077271-0.0862427-0.2370605-0.1508789-0.3017578   c-0.0430908-0.0430908-0.0646362-0.0646362-0.1077881-0.1077271c-0.0215454,0.0215454-0.0215454,0.0430908-0.0430908,0.0646362   c0-0.0430908-0.0215454-0.0861816-0.0430908-0.1077271c-0.0646362-0.0862427-0.1077881-0.0216064-0.1508789,0.0215454   c-0.0215454,0.0430908-0.0862427,0-0.0862427,0.0646362c0-0.0430908,0-0.0430908-0.0215454-0.0861816   c-0.0215454,0,0.0431519,0.1077271-0.0215454,0.0861816c0-0.0430908-0.0215454-0.0646362-0.0215454-0.1077881   c-0.0211182,0.0106201-0.0210571,0.0370483-0.0184937,0.0634155c0.0039062-0.0216064,0.0049438-0.0418091-0.0245972-0.0418091   v0.0430908c-0.0215454-0.1077881-0.0862427-0.1508789-0.1293335-0.0430908c0-0.0216064,0-0.0431519,0-0.0646973   s0-0.0430908,0-0.0646362l-0.0215454,0.0215454c-0.0215454,0.0215454-0.0215454,0.0215454-0.0430908,0.0430908   c-0.0216064,0.0431519-0.0646973,0.1077881-0.0431519,0.1293335c0.0646973,0.1939697,0.1293335,0.4094849,0.1940308,0.625   c0.0215454,0,0.0215454-0.0215454,0.0430908,0c0.0430908,0.0431519,0,0.1077881,0.0430908,0.1508789h0.0215454   c0,0.0431519,0,0.0862427,0.0215454,0.1508789c0.0431519,0.0862427,0.0862427,0.1508789,0.1293335,0.2155151   c0,0,0.0215454-0.0215454,0.0215454,0c0.0215454,0.0216064,0.0431519,0.0862427,0.0646973,0.1293335l0.0215454,0.0215454h0.0215454   c0.0215454,0.0216064,0.0215454,0.0431519,0.0215454,0.0646973c0.1724243,0.1724243,0.3879395,0.3448486,0.6034546,0.4956665   c0.0646973,0.0216064,0.1077881,0.0431519,0.1508789,0.0646973c0.0030518,0.0020752,0.0059204,0.0059204,0.0089722,0.0081787   c-0.0938721,0.0375977-0.187561,0.0742798-0.2891846,0.1211548c-0.0430908,0.0215454-0.0861816,0.0430908-0.1077271,0.0646362   s-0.0215454,0.0430908-0.0430908,0.0430908c-0.1293335,0.0646362-0.2371216,0.1077881-0.3233032,0.1724243   c-0.6466064,0.3879395-1.2285156,0.883667-1.7026978,1.4871216c-0.4741821,0.625061-0.8189697,1.3793945-0.8621216,2.2199707   c0,0.3448486,0.0431519,0.6896973,0.0862427,1.0130005c0.0861816,0.4741211,0.2801514,1.0776367,0.5172729,1.4871216   c0.0215454-0.0646362,0.1939697,0.1724243,0.366394,0.3448486s0.3448486,0.3233032,0.3016968,0.2155151   c0.1940308,0.2371216,0.5172729,0.5603638,0.5388794,0.5388184c0.0646362,0,0.1292725,0.0215454,0.2801514,0.0862427   c0.1508789,0.0646362,0.366394,0.1939697,0.7112427,0.3879395c0.258667,0.1508789,0.6466064,0.4094849,0.7543335,0.4310303   c0.1724243,0.0431519-0.3233032-0.2370605-0.1724243-0.1724243c-0.9698486-0.5172119-1.8319702-1.250061-2.3276978-2.1768188   s-0.6465454-2.0474854-0.2155151-2.9958496c0.0646362-0.1724243,0.2370605-0.5819092,0.6466064-1.0345459   c0.3879395-0.4525757,0.991394-0.9267578,1.6810913-1.2716064c0.6896973-0.366394,1.4871216-0.625,2.1552734-0.8189697   c0.6896973-0.1939697,1.2716064-0.366394,1.6164551-0.4741821l0.1293335-0.0430908   c0.7327881-0.2155762,1.6164551-0.4957275,2.2415161-0.7112427c0.2801514-0.1077881,0.5603638-0.2155762,0.8405762-0.3233032   c-0.1293335,0.0215454-0.258667,0.0430908-0.3880005,0.0646362c0.3017578-0.0861816,0.5819702-0.1724243,0.6896973-0.2155151   c0.6035156-0.2370605,0.2371216-0.1724243-0.0215454-0.1724243c-0.1724243,0.0215454,0.0430908-0.0861816-0.2370605-0.0430908   c0.1939697-0.0646973,0.3016968-0.0862427,0.4957275-0.1508789c0.0215454-0.0430908-0.6035156,0.1939697-0.4741821,0.1077271   c0.1939697-0.0430908,0.3879395-0.1292725,0.6034546-0.1723633c-0.0861816-0.0216064-0.6896973,0.1939697-0.6681519,0.1508179   c0.1077881-0.0430908,0.5604248-0.1077271,0.5819702-0.1723633c0-0.0216064-0.1939697,0.0430908-0.2802124,0.0646362   c0.6035156-0.1939697,0.9267578-0.3448486,0.3448486-0.2155151c0.1438599-0.0479736,0.3271484-0.0891724,0.4954834-0.1397095   c-0.0418091,0.1674194-0.0799561,0.3358765-0.1075439,0.5061035c0.0432129-0.1835327,0.0917969-0.3562012,0.145813-0.5181274   c0.0113525-0.0036621,0.0230713-0.006897,0.0341187-0.0106812c-0.1749878,0.6107178-0.2271729,1.1907349-0.2445679,1.434021   c-0.0215454,0.4310303,0,0.6896973,0,0.8189697c0.0215454,0.1293335,0.0215454,0.1508789,0.0430908,0.1077881   c0.0216064-0.1077881,0.0431519-0.5172729,0.1077881-0.8190308c0.0646362-0.4525757,0.0430908,0.1724243,0.1508789-0.5388184   c-0.0646362,0.5172729-0.0646362,0.7759399-0.0646362,1.2932129c0.0215454,0.0215454,0-0.366394,0.0215454-0.7327881   s0.0646362-0.6681519,0.0646362-0.4957275c-0.0646362,0.4957275-0.0646362,1.0560913-0.0430908,1.5518188   c0.0079956-0.0319214,0.0095215-0.1241455,0.0100708-0.2357788c0.0026855,0.0391235,0.0064087,0.0696411,0.0114746,0.0848999   c0,0.0215454,0-0.4957275,0.0215454-0.7543335c-0.0215454,0.7758789,0.0430908,1.4008789,0.0861816,1.6380005   c0.0431519,0.2370605,0.0431519,0.0861816,0.0216064-0.625061c0.0099487,0.2282104,0.0249634,0.5036011,0.0440063,0.7852783   c0.012085,0.1668701,0.0298462,0.3338013,0.0476685,0.5006714c-0.0011597-0.0004272-0.0022583-0.0009766-0.0033569-0.0013428   c-0.0164795-0.1808472-0.0328369-0.3618774-0.0441284-0.4962158c0.0112305,0.1651611,0.0236816,0.3309937,0.0380249,0.4937744   c-0.0640869-0.0234375-0.1244507-0.0559082-0.1900024-0.0751953c-0.1293335-0.0215454-0.4310913-0.1077881-0.8190308-0.1293335   s-0.8621216,0-1.3362427,0.0430908c-0.4741821,0.0646973-0.9268188,0.1508789-1.3147583,0.2155762   c-0.3879395,0.0646362-0.7112427,0.1292725-0.9052124,0.1724243l-0.0646362,0.0215454   c-0.4095459,0.0646362-0.9268188,0.1724243-1.2716675,0.2801514c-0.1508179,0.0431519-0.3232422,0.1077881-0.4741211,0.1724243   c0.0861816,0,0.1508789,0,0.2155151,0c-0.1724243,0.0215454-0.3233032,0.0646973-0.3879395,0.0862427   c-0.3448486,0.1077271-0.1293335,0.1292725,0.0215454,0.1508789c0.1077881,0-0.0215454,0.0861816,0.1293335,0.0861816   c-0.0058594,0.0011597-0.0095825,0.0012817-0.0151978,0.0023193c0.0192871,0.0003052,0.0300903,0.0043335,0.0151978,0.0192261   c-0.1077881,0-0.2155762,0.0430908-0.3448486,0.0646362c0.0430908,0.0216064,0.3879395-0.0646362,0.366394-0.0215454   c-0.0646362,0.0215454-0.3233032,0-0.3233032,0.0646973c0,0,0.1077881,0,0.1724243-0.0215454   c-0.3448486,0.0861816-0.5172729,0.1508179-0.1939697,0.1508179c-0.1077881,0.0216064-0.258667,0.0216064-0.366394,0.0646973   c0.0646362,0,0.1508789-0.0215454,0.2155151-0.0215454l-0.1939697,0.0430908l0.0430908,0.0215454   c0.0430908,0,0.1077881,0,0.1508789-0.0215454l-0.1293335,0.0215454c0.0431519,0,0.0646973,0.0215454,0.1077881,0.0215454   c0.1508789,0,0.3233032,0.0215454,0.3879395,0c0.6035156-0.0861816,1.2932129-0.1939697,1.9613037-0.3016968   c0-0.0216064-0.0430908-0.0216064,0.0216064-0.0431519c0.1723633-0.0430908,0.3232422-0.0215454,0.4956665-0.0646362V67.175293   c0.1293335-0.0215454,0.2802124-0.0215454,0.4310913-0.0430908c0.258606-0.0646973,0.5172729-0.1077881,0.7758789-0.1724243   c0,0-0.0215454-0.0216064,0.0215454-0.0216064c0.1077881-0.0215454,0.258667-0.0430908,0.4095459-0.0646362l0.0646362-0.0215454   c0.0215454,0,0.0215454-0.0215454,0.0215454-0.0215454c0.0646362,0,0.1293335-0.0215454,0.1939697-0.0215454   c0.7327881-0.1293335,1.508728-0.1724243,2.2415161,0.1508789c0.1508789,0.0646362,0.3233032,0.1292725,0.4525757,0.2370605   c0.1939697,0.1508789,0.3879395,0.4094849,0.4957275,0.625c0.0430908-0.0430908,0.1293335,0.0646973,0.2370605,0.1508789   c0.0862427,0.1077881,0.1724243,0.1939697,0.1940308,0.1293335c0.0646362,0.1508789,0.1508179,0.4094849,0.1939697,0.4094849   c0.0861816,0.0216064,0.2370605,0.1077881,0.3879395,0.5604248c0.0646362,0.1724243,0.0646362,0.4741211,0.0861816,0.5172729   c0.0430908,0.0861816,0.0215454-0.2371216,0.0646973-0.1508789c-0.1077881-0.6896973-0.3017578-1.3578491-0.6896973-1.9829102   c-0.1939697-0.3016968-0.4310913-0.6034546-0.7328491-0.8189697c-0.234314-0.1841431-0.4996338-0.3171997-0.7758789-0.4234009   c0-0.1177368,0-0.2337646,0-0.3740845c-0.0430908-0.7111816-0.0215454-1.3793335,0-1.7457275   c0.0216064-0.7543945,0.1508789-1.4871826,0.4310913-2.1553345c0.2801514-0.6680908,0.7112427-1.2716064,1.2716064-1.6810913   c0.2802124-0.1939697,0.5819092-0.3448486,0.9052124-0.4310303c0.3233032-0.0862427,0.6896973-0.1293335,1.0560913-0.1293335   c0.7974243-0.1077881,1.6164551,0,2.4785767-0.1293335c0-0.0215454-0.1724243,0,0.1077881-0.0646362   c0.8620605-0.1724243,1.5302124-0.3880005,2.2845459-0.7543945l0.0431519-0.0430908   c0.5819092-0.258606,1.1853638-0.5603638,1.7888794-0.7974243c0.5603638-0.2371216,1.0991821-0.4526367,1.6595459-0.5604248   c0.5603638-0.1077271,1.142334-0.1292725,1.7026978-0.0430908c-0.0215454-0.0215454-0.0430908-0.0215454,0.0646362-0.0215454   c0.4741821,0.0646362,1.1207275,0.2370605,1.7457886,0.5603638c0.0861816,0.0430908,0.1939697,0.0862427,0.2802124,0.1293335   c0.0646362,0.0430908,0.0861816,0.0430908,0.1077271,0.0430908c0.1293335,0.0862427,0.258667,0.1508789,0.3879395,0.2371216   c0.1077881,0.0861816,0.2155762,0.1508179,0.3233032,0.2370605c0.6896973,0.4957275,1.2931519,1.1207275,1.7888794,1.8535156   c0.4741821,0.7327881,0.8405762,1.5518188,1.0345459,2.4354858c0.4526367,1.7457886,0.366394,3.6855469-0.1293335,5.5606079   c-0.1939697,0.7974854-0.4741821,1.5949097-0.8405762,2.3061523c-0.2801514,0.5172729-0.6680908,1.0776978-1.1422729,1.5518188   c-0.4741821,0.4526367-1.0130005,0.8405762-1.5302734,1.0991821c0.1077881,0-0.4525757,0.3448486-1.0344849,0.5819702   c-0.5604248,0.2370605-1.142334,0.366394-0.8405762,0.366394c-0.3879395,0.0861816-0.883667,0.1508789-1.2716064,0.1724243   c-0.4095459,0.0215454-0.7112427,0.0215454-0.7327881,0.0430908c-0.0862427,0.0430908-0.3017578,0.0862427-0.7327881,0.0862427   c-0.4526367,0-1.142334-0.0431519-2.1553345-0.3233032c-0.4094849-0.1077881-0.9052124-0.3017578-1.3146973-0.4741821   c-0.4310913-0.1724243-0.7758789-0.366394-0.9052124-0.4094849c-0.2155151-0.0862427,0.0215454,0.0430908,0.258606,0.1724243   c0.2371216,0.1292725,0.4741821,0.258606,0.258667,0.1724243c1.4009399,0.6465454,2.9311523,1.0560913,4.4829712,1.1207275   s3.1251831-0.3017578,4.5045166-1.0776367c0.6344604-0.3568726,1.2024536-0.8327026,1.677124-1.3748779   c0.015625,0.0132446,0.0314941,0.0268555,0.0471191,0.0385742c0.0862427,0.0862427,0.1508789,0.1724243,0.0646973,0.1077881   c0.4957275,0.4310303,0.7974243,1.0776367,0.9698486,1.7457886c0.0862427,0.3448486,0.1508789,0.6896973,0.1508789,1.0130005   c0,0.3448486-0.0215454,0.6896362-0.0861816,1.0560913c-0.1077881,0.7112427-0.3233032,1.4224854-0.6035156,2.0905762   c-0.1292725,0.3448486-0.3016968,0.6466064-0.4956665,0.9483643c-0.0862427,0.1508789-0.1939697,0.3017578-0.3017578,0.4525757   c-0.0430908,0.0646973-0.1077881,0.1508789-0.1508789,0.2155762l-0.1724243,0.2155151   c-0.0430908,0.0430908-0.0861816,0.1077271-0.1508789,0.1939697c-0.0646362,0.0862427-0.1508789,0.1724243-0.258606,0.2802124   c-0.0862427,0.1077271-0.2155762,0.2155151-0.3448486,0.3232422c-0.1293335,0.1293335-0.2802124,0.2371216-0.4310913,0.366394   c-0.625,0.4957275-1.5302124,0.9914551-2.5001221,1.3578491c-0.9698486,0.366394-2.0259399,0.6466064-2.9311523,0.8621216   c-0.9052734,0.2155151-1.6811523,0.3879395-2.1121826,0.4525757l-0.1508789,0.0431519   c-0.9699097,0.1724243-2.1552734,0.366394-2.9958496,0.4741211c-0.3879395,0.0646973-0.7758789,0.1293335-1.1638794,0.1724243   c0.1724243,0,0.3448486,0.0215454,0.4957275,0.0215454c-0.3879395,0.0215454-0.7974243,0.0431519-0.9483032,0.0646973   c-0.8405762,0.0646362-0.366394,0.1077271-0.0430908,0.1508789c0.2370605,0.0215454-0.0862427,0.0861816,0.2801514,0.0861816   c-0.0552368,0.0045776-0.0952148,0.005188-0.1427002,0.0080566c0.1123657-0.0032959,0.1830444-0.0019531,0.1211548,0.0134888   c-0.258667,0-0.5388184,0.0215454-0.8190308,0.0215454c0.0862427,0.0431519,0.9268188-0.0215454,0.883667,0.0215454   c-0.1508789,0.0215454-0.7543335-0.0215454-0.7974243,0.0215454c0,0.0215454,0.258606,0,0.3879395,0   c-0.8190308,0.0431519-1.2716064,0.0646973-0.5172729,0.1293335c-0.258606,0-0.625-0.0215454-0.9052124-0.0215454   c0.1293335,0,0.3879395,0.0215454,0.4957275,0.0215454h-0.4741821c0.0215454,0,0.0646362,0.0215454,0.0861816,0.0215454   c0.1077881,0,0.2371216,0.0215454,0.3664551,0.0215454H62.746582c0.0861816,0.0215454,0.1724243,0.0430908,0.258606,0.0430908   c0.366394,0.0431519,0.7327881,0.0646973,0.9267578,0.0646973c1.6811523,0.0646362,3.3191528-0.1293335,4.9140625-0.4310303   c0-0.0215454-0.0861816-0.0215454,0.0430908-0.0431519c0.4095459-0.0861816,0.7543945-0.1077271,1.1638794-0.2155151   l0.0215454-0.0430908c0.3233032-0.0646362,0.6681519-0.1293335,1.0130005-0.1939697   c0.625-0.1508789,1.250061-0.3233032,1.8535156-0.5172729c-0.0215454,0-0.0215454-0.0215454,0.0215454-0.0431519   c0.258667-0.0861816,0.6035156-0.1939697,0.9699097-0.3016968c0.0430908-0.0215454,0.1077881-0.0431519,0.1508789-0.0646973   s0.0430908-0.0430908,0.0430908-0.0430908c0.1724243-0.0646362,0.3017578-0.1077881,0.4526367-0.1724243   c0.8621216-0.3879395,1.7241821-0.883667,2.4785767-1.5302734c0.7543335-0.6465454,1.3793335-1.4440308,1.8966064-2.3707886   c0.2155762-0.3879395,0.366394-0.8189697,0.4957275-1.2069702c0.2155151-0.5819092,0.4310913-1.3577881,0.5172729-1.9613037   c-0.0646362,0.0431519-0.0430908-0.3016968-0.0646362-0.625s-0.0646973-0.6034546-0.1077881-0.4526367   c0-0.3879395-0.1293335-0.9698486-0.1724243-0.991394c-0.0430908-0.0431519-0.1077271-0.1077881-0.2155151-0.3017578   s-0.2370605-0.4741821-0.5172729-0.883667c-0.1077881-0.1508789-0.2370605-0.3448486-0.3879395-0.4957275   c-0.1125488-0.1125488-0.2000122-0.1870117-0.2617188-0.2336426c0.0341187-0.0394287,0.0778198-0.0710449,0.1108398-0.1112061   c0.5172729-0.6034546,0.9052124-1.2931519,1.2069092-2.0043945c0.3017578-0.7112427,0.5388794-1.4440308,0.7328491-2.1983643   c0.1724243-0.7543945,0.3016968-1.5302734,0.3448486-2.3061523C80.635437,65.4510498,80.6569824,64.9769287,80.6138306,64.3734131z    M59.8234253,62.1689453c-0.0003662,0.0014038-0.0005493,0.0029297-0.0009155,0.0043335   c-0.0598145,0.0149536-0.1196899,0.0299072-0.1795654,0.0448608L59.8234253,62.1689453z M59.9447021,63.9423828   c-0.0030518,0.0490723-0.0046997,0.0940552-0.006897,0.1408081c0.0015869-0.0756226,0.0029297-0.1517944,0.006897-0.2270508   c0.0215454-0.4094849,0.0861816-0.7758789,0.0861816-0.7327881C60.0093384,63.2526855,59.9662476,63.6190796,59.9447021,63.9423828   z M59.8974609,62.154541c-0.0103149,0.0025635-0.0205688,0.005127-0.0308838,0.0076904   c0.0006714-0.0020142,0.0015869-0.0036621,0.0022583-0.0056763l0.0111694-0.0030518   c-0.0031128,0-0.0072632,0.0010376-0.010376,0.0010376c0.0497437-0.1448364,0.1026001-0.2835083,0.1612549-0.4105835   C59.9764404,61.8800659,59.9376221,62.0176392,59.8974609,62.154541z M60.1873169,66.2067261   c-0.0020752-0.0007935-0.0042725-0.001709-0.0063477-0.0025024c-0.0140991-0.1491089-0.0281982-0.2962646-0.0422974-0.451416   C60.1549072,65.8986816,60.1710815,66.0515747,60.1873169,66.2067261z"/><path d="M66.3496094,64.3056641c-0.0073853-0.0194702-0.0126343-0.0363159-0.0252686-0.0615845   C66.3168335,64.2440796,66.331665,64.2724609,66.3496094,64.3056641z"/><path d="M66.0010376,64.1148071c0,0.1292725,0.0215454,0.258606,0.0430908,0.3233032   c0.1939697,0.4741211,0.5819702,0.9267578,1.0345459,1.2284546c0-0.0215454,0-0.0430908,0.0430908-0.0215454   c0.1293335,0.0646973,0.1940308,0.1724243,0.3448486,0.2371216l0.0216064-0.0216064   c0.0861816,0.0646973,0.1939697,0.1293335,0.3016968,0.1724243c0.2155151,0.0862427,0.4310913,0.1293335,0.6466064,0.1508789   c0-0.0215454,0-0.0215454,0.0215454-0.0215454c0.0862427,0,0.2155151,0.0215454,0.3448486,0.0430908h0.0646362   c0.0215454,0,0.0215454-0.0215454,0.0215454-0.0215454c0.0646973,0,0.1077881,0,0.1508789,0   c0.6466064-0.0861816,1.2285156-0.3879395,1.7026978-0.8621216c0.0861816-0.1077271,0.1724243-0.2155151,0.2370605-0.3232422   c0.1293335-0.1508789,0.2802124-0.3448486,0.3879395-0.4957275c-0.0430908-0.0215454-0.0215454-0.1293335-0.0215454-0.2155151   c0.0215454-0.1077881,0-0.1940308-0.0430908-0.1724243c0.0646362-0.1077881,0.1077881-0.258667,0.0861816-0.2802124   c-0.0646362-0.0430908-0.1292725-0.1724243-0.1292725-0.4310303c0.0215454-0.1077881,0.0430908-0.258667,0.0215454-0.3017578   c-0.0215454-0.0646362-0.0646362,0.1293335-0.0862427,0.0861816c-0.0646362,0.7543945-0.4741211,1.4871826-1.1638184,1.9182129   c-0.0215454,0.0215454-0.0646362,0.0646973-0.1293335,0.0862427c-0.0646362,0.0430908-0.1508789,0.0861816-0.258606,0.1292725   c-0.1939697,0.0862427-0.4526367,0.1508789-0.7327881,0.1508789c-0.5604248,0.0216064-1.0992432-0.258606-1.2932129-0.4094849   l-0.0430908-0.0215454c-0.2155151-0.1508789-0.4526367-0.366394-0.6034546-0.5172729   c-0.0862427-0.0646362-0.1724243-0.1293335-0.2371216-0.2155151c0.0215454,0.0430908,0.0215454,0.1077271,0.0215454,0.1508789   c-0.0646362-0.0862427-0.1077271-0.1939697-0.1508789-0.2155762c-0.1292725-0.1939697-0.1292725-0.0646362-0.1508179,0.0646973   c0,0.0861816-0.0862427,0.0215454-0.0431519,0.1293335c-0.0045166-0.0068359-0.0054321-0.0123291-0.0090942-0.0187378   c0.0025024,0.0134277,0.00177,0.0234985-0.0124512,0.0187378c-0.0215454-0.0646973-0.0861816-0.1508789-0.1077271-0.2155762   c-0.0216064,0.0431519,0.1077271,0.258667,0.0861816,0.2802124c-0.0430908-0.0430908-0.0646362-0.2370605-0.1077881-0.2370605   c0,0,0.0216064,0.0861816,0.0431519,0.1077271c-0.1293335-0.2155151-0.2155762-0.366394-0.1724243-0.1077271   c-0.0431519-0.0862427-0.0431519-0.1940308-0.0862427-0.2802124v0.0215454c0,0.0430908,0.0215454,0.0862427,0.0215454,0.1077881   L66.022583,64.007019C66.022583,64.0285645,66.022583,64.0716553,66.0010376,64.1148071z"/><path d="M66.3496094,64.3056641c0.0151978,0.0400391,0.0307617,0.0771484,0.0518188,0.1137085   C66.3964844,64.3930664,66.3718262,64.3467407,66.3496094,64.3056641z"/><path d="M49.4517212,72.244812c-0.0984497-0.2015381-0.1797485-0.3979492-0.2403564-0.4787598   c-0.5819092-0.8405762-1.2716064-1.5949097-2.0690308-2.2415161c-0.0215454,0.0215454,0.0215454,0.0646362-0.0431519,0.0215454   c-0.2155151-0.1508789-0.3448486-0.3233032-0.5819092-0.4741211l-0.0215454,0.0215454   c-0.1724243-0.1293335-0.3448486-0.258667-0.5172729-0.3879395c-0.366394-0.1940308-0.7327881-0.3664551-1.1422729-0.4957275   c0,0.0215454,0,0.0215454-0.0216064,0.0215454c-0.1723633-0.0430908-0.3879395-0.1077881-0.6465454-0.1724243   c-0.0430908,0-0.0646973-0.0215454-0.1077881-0.0215454c-0.0215454,0-0.0430908,0.0215454-0.0430908,0.0215454   c-0.1077881-0.0215454-0.2155151-0.0430908-0.3017578-0.0430908c-1.2069702-0.0646973-2.392334,0.258606-3.5131226,0.8405151   c-0.2370605,0.1293335-0.4525757,0.2802124-0.6680908,0.4095459c-0.3233032,0.1939697-0.7328491,0.4310303-1.0560913,0.6465454   c0.1077271,0.0431519-0.5819702,0.6035156-0.3880005,0.5819702c-0.1939697,0.1508789-0.4741211,0.366394-0.4741211,0.4094849   c0,0.1077881-0.0862427,0.2801514-0.5388184,0.7327881c-0.1939697,0.1724243-0.4957275,0.3879395-0.5603638,0.4526367   c-0.0862427,0.1077271,0.2801514-0.1724243,0.1939697-0.0646973c0.7327881-0.5819092,1.4224854-1.1638184,2.1552734-1.6810913   s1.508667-0.9483032,2.3492432-1.2285156c0.1508789-0.0646362,0.4957275-0.1939697,0.9699097-0.2802124   c0.4741211-0.0861816,1.0776367-0.1508789,1.6595459-0.0646362c0.6034546,0.0862427,1.1854248,0.3017578,1.6380005,0.5603638   c0.4741821,0.258667,0.8405762,0.5388184,1.0560913,0.7112427l0.0862427,0.0646973   c0.4525757,0.366394,0.9698486,0.8620605,1.3146973,1.2069092c0.1724243,0.1508789,0.3448486,0.3233032,0.4957275,0.4957275   c-0.0431519-0.0861816-0.1077881-0.1724243-0.1508789-0.258606c0.1508789,0.1939697,0.2801514,0.3879395,0.3448486,0.4525757   c0.3233032,0.3879395,0.2155151,0.1293335,0.1508789-0.0646362c-0.0646973-0.1293335,0.0861816,0-0.0215454-0.1939697   c0.0861816,0.1293335,0.1508179,0.1939697,0.2370605,0.3233032c0.0430908,0-0.3017578-0.4095459-0.1939697-0.3448486   c0.0861816,0.1292725,0.1939697,0.258606,0.2801514,0.4094849c0-0.0646362-0.3232422-0.4741821-0.2801514-0.4741821   c0.0646362,0.0646973,0.2370605,0.4094849,0.2801514,0.4094849c0.0216064,0-0.0861816-0.1292725-0.1292725-0.1939697   c0.1778564,0.2414551,0.3082886,0.4111328,0.3477173,0.4249878c-0.5855713,0.2171021-1.1514282,0.4680176-1.7055664,0.760437   c-0.1293335,0.0861816-0.6466064,0.366394-1.1422729,0.7112427c-0.5172729,0.3233032-1.0345459,0.7112427-1.250061,0.8621216   l-0.0431519,0.0215454c-0.2370605,0.1724243-0.4956665,0.3879395-0.6465454,0.5819092   c-0.0646973,0.0862427-0.1293335,0.1939697-0.1939697,0.2802124c0.0430908-0.0215454,0.0861816-0.0431519,0.1292725-0.0646973   c-0.0861816,0.0646973-0.1723633,0.1508789-0.1939697,0.1939697c-0.1508789,0.1940308-0.0215454,0.1293335,0.1077881,0.1293335   c0.0646362-0.0215454,0.0430908,0.0646973,0.1293335,0.0215454c-0.0646973,0.0431519-0.0862427,0.0646973-0.1293335,0.1293335   c0.0215454,0.0215454,0.1508789-0.1724243,0.1508789-0.0861816c-0.0646362,0.0430908-0.1077881,0.1077271-0.1724243,0.1508789   c0.0430908,0,0.1939697-0.1724243,0.2155151-0.1293335c-0.0215454,0.0215454-0.1939697,0.1077271-0.1724243,0.1508789   c0,0,0.0646973-0.0431519,0.0862427-0.0646973c-0.1508789,0.1724243-0.2155762,0.2802124-0.0215454,0.1724243   c-0.0215454,0.0215454-0.0592651,0.0485229-0.0969849,0.0754395l-0.0754395,0.0754395h0.0215454   c0.0215454-0.0215454,0.0646362-0.0430908,0.0861816-0.0646362l-0.0646362,0.0646362c0.0215454,0,0.0646362,0,0.0861816-0.0215454   c0.0862427-0.0430908,0.1939697-0.0861816,0.2371216-0.1077881c0.3016968-0.2801514,0.6465454-0.5388184,0.991394-0.7974243   c0-0.0215454-0.0430908-0.0215454-0.0215454-0.0430908c0.0861816-0.0862427,0.1939697-0.0862427,0.2802124-0.1724243v-0.0215454   c0.0861816-0.0431519,0.1508179-0.0862427,0.2370605-0.1293335c0.1293335-0.1077881,0.2801514-0.1939697,0.4094849-0.3017578   c0,0-0.0215454-0.0215454,0-0.0215454c0.0646973-0.0430908,0.1508789-0.0861816,0.2371216-0.1508789l0.0430908-0.0215454   c0-0.0215454,0-0.0215454,0-0.0215454c0.0430908-0.0215454,0.0861816-0.0430908,0.1077271-0.0646973   c0.4095459-0.3016968,0.8190308-0.625,1.2932129-0.9052124c0.0861816-0.0646362,0.1939697-0.1508789,0.3016968-0.2155151   c0.1508789-0.0861816,0.3664551-0.1508789,0.5172729-0.2155151c-0.0646362-0.0862427,0.3017578-0.2802124,0.1939697-0.3448486   c0.1077881-0.0430908,0.258667-0.0862427,0.258667-0.1293335c0-0.0189209,0.003479-0.0407104,0.0094604-0.0635376   c0.0037842,0.0058594,0.0083618,0.0148926,0.012085,0.0204468c-0.0033569-0.0050659-0.0082397-0.0159302-0.0118408-0.0219727   c0.0012207-0.0043335,0.0025024-0.0085449,0.0039673-0.0130615l0.0078735,0.0134888v-0.0292969   c0.0300903-0.076355,0.102356-0.1687012,0.2802124-0.2724609c0.1077271-0.0430908,0.3016968-0.0646362,0.3232422-0.1077881   c0.0646973-0.0430908-0.1724243,0-0.1077271-0.0646362C49.8150635,72.0994873,49.6377563,72.1794434,49.4517212,72.244812z    M49.3104858,72.2952271c0.0083008-0.0163574-0.0126343-0.0831299-0.0775757-0.227478   c0.0383301,0.0574951,0.081543,0.1342773,0.1245728,0.2106934C49.3419189,72.2841187,49.3260498,72.2894287,49.3104858,72.2952271z    M49.3690186,72.274353c-0.0020142-0.0032349-0.0048218-0.0097046-0.0067749-0.0125732l0.0072021,0.0123901   C49.3692627,72.274231,49.3692017,72.274292,49.3690186,72.274353z"/><path d="M44.2542114,76.2705688c0.0216064-0.0215454,0.0593262-0.0484619,0.0970459-0.0754395l0.0107422-0.0107422   C44.3404541,76.2059326,44.2758179,76.2490234,44.2542114,76.2705688z"/><path d="M38.456543,79.8699341c0.2370605,0.5388184,0.4956665,1.2069092,0.7327881,1.7241821   c0.0430908-0.1077271,0.6896973,1.0992432,0.6681519,0.7974854c0.1724243,0.3233032,0.4310303,0.8190308,0.4525757,0.8405762   c0.1077881,0.0430908,0.3233032,0.2370605,0.883667,1.0560913c0.1939697,0.3233032,0.4957275,0.8189697,0.5819092,0.9267578   c0.1293335,0.1508789-0.2155151-0.4525757-0.0861816-0.2802124c-1.5302734-2.3707886-2.6079102-4.9140015-3.6209106-7.6296997   c-0.3879395-0.9052124-2.6293945-7.177063-3.1898193-8.7935181l-0.0430908-0.1508789   c-0.3016968-0.883667-0.6896973-1.9397583-0.991394-2.6725464c-0.1508789-0.3233032-0.3017578-0.6681519-0.4526367-1.0130005   c0.0430908,0.1724243,0.0862427,0.3233032,0.1077881,0.4526367c-0.1293335-0.3448486-0.2371216-0.7112427-0.3017578-0.8405762   c-0.3017578-0.7327881-0.1939697-0.3017578-0.1724243,0.0215454c0.0430908,0.2155151-0.0861816-0.0430908,0,0.2802124   c-0.0861816-0.2371216-0.1293335-0.3448486-0.2155151-0.5819702c-0.0430908-0.0215454,0.2801514,0.7112427,0.1724243,0.5603638   c-0.0646973-0.2370605-0.1724243-0.4741211-0.258667-0.7112427c0,0.0862427,0.2802124,0.8190308,0.2371216,0.7974854   c-0.0431519-0.1293335-0.1939697-0.6681519-0.2371216-0.7112427c-0.0215454,0,0.0646973,0.2370605,0.1077881,0.3448486   c-0.2802124-0.7112427-0.4526367-1.0991821-0.258667-0.4310303c-0.0472412-0.1299438-0.0944824-0.2837524-0.1417236-0.4371338   l-0.1168823-0.3172607c0,0.0215454,0,0.0431519,0,0.0862427c0.0060425,0.0301514,0.0212402,0.0603027,0.0301514,0.0904541   c0.0062256,0.0579224,0.0172729,0.1207275,0.0344849,0.1896973c0.0862427,0.3448486,0.1508789,0.6681519,0.2155762,0.8405762   c0.4094849,1.4871216,0.9052124,2.9311523,1.4224854,4.3320923c0.0215454,0,0-0.0861816,0.0646362,0.0215454   c0.1508789,0.366394,0.1939697,0.6896973,0.3448486,1.0345459l0.0430908,0.0215454   c0.0862427,0.2802124,0.1939697,0.6035156,0.2802124,0.9052124c0.2155151,0.5604248,0.4094849,1.1207886,0.625,1.6596069   c0-0.0215454,0.0215454-0.0215454,0.0430908,0.0215454c0.0862427,0.2370605,0.1940308,0.5603638,0.3017578,0.883667   c0.0215454,0.0430908,0.0430908,0.0861816,0.0646973,0.1508789c0.0215454,0.0430908,0.0215454,0.0430908,0.0430908,0.0430908   c0.0430908,0.1508789,0.0861816,0.2802124,0.1292725,0.4094849c0.6466064,1.6165161,1.2716675,3.2545166,2.0044556,5.0003052   C38.1332397,79.1586914,38.3056641,79.5250854,38.456543,79.8699341z"/><path d="M32.3139648,63.0587158c0.0389404,0.1071167,0.0779419,0.2339478,0.1168823,0.3603516l0.0339966,0.0922852   C32.4217529,63.382019,32.3570557,63.1880493,32.3139648,63.0587158z"/><path d="M60.0870972,77.2821045c0.0740356,0.0321045,0.1583252,0.072876,0.2460938,0.1205444   C60.2550049,77.362915,60.1742554,77.3225708,60.0870972,77.2821045z"/><path d="M60.0818481,77.2797241c0.0015869,0.0007324,0.0036011,0.0016479,0.005249,0.0023804   C60.0852661,77.281311,60.0837402,77.2805176,60.0818481,77.2797241z"/><path d="M50.1165771,78.7060547c-0.2155151,0.0862427-0.4310303,0.1724243-0.6465454,0.2370605   c-0.1077881,0.0431519-0.2371216,0.0862427-0.366394,0.1508789c-0.1293335,0.0646362-0.258667,0.1724243-0.366394,0.3233032   c-0.1077881,0.1508789-0.1724243,0.3233032-0.1940308,0.5172729c-0.0215454,0.1939697,0.0431519,0.366394,0.1077881,0.5172729   c0.1508789,0.3017578,0.3448486,0.4957275,0.5819092,0.6681519c0.0216064,0,0.0646973,0.0215454,0.0862427,0.0215454   c0.0861816,0.0646362,0.1724243,0.1292725,0.2801514,0.1724243c0.0862427,0.0430908,0.2155762,0.1077271,0.3017578,0.1292725   c0.1939697,0.0646973,0.366394,0.1293335,0.5603638,0.1939697c0.3879395,0.1077881,0.7974854,0.1940308,1.2069702,0.2371216   c0.6466064,0.0430908,1.2931519,0.0215454,1.9397583-0.0862427c0.3233032-0.0430908,0.625061-0.1292725,0.9483032-0.2370605   l0.1939697-0.0646362l0.0216064-0.0215454c0.0215454,0,0,0.0215454,0,0.0215454c0.0215454,0,0.0215454-0.0215454,0.0215454,0   v0.0215454c0,0,0,0,0,0.0215454c-0.0215454,0.0215454-0.0215454,0.0646362-0.0431519,0.1077271   c-0.0646362,0.1293335-0.1508179,0.258667-0.258606,0.4095459c-0.1939697,0.2801514-0.4957275,0.5388184-0.7974854,0.7758789   c-0.0861816,0.0646362-0.1939697,0.1508789-0.2801514,0.2155151c-0.0646362,0.0646362-0.0862427,0.0862427-0.0862427,0.0862427   c-0.3016968,0.1939697-0.6034546,0.366394-0.8620605,0.5172729c-1.7457886,0.991394-3.7502441,1.6164551-5.8408203,1.7241821   c-0.258667,0.0216064-0.5388794,0.0216064-0.8190308,0.0431519c-0.2802124,0.0215454-0.5819092,0.0861816-0.883667,0.2370605   s-0.5388184,0.4310303-0.625061,0.7758789c-0.0861816,0.3448486-0.0430908,0.6681519,0.0646973,0.9483643   c0.1077271,0.2801514,0.258606,0.5603638,0.4525757,0.7758789s0.3879395,0.4310303,0.625061,0.625061   c0.4525757,0.366394,0.9483032,0.6896973,1.4871216,0.9267578c0.9052124,0.4094849,1.8535767,0.6465454,2.7803345,0.8189697   c0.6896973,0.1293335,1.4655762,0.2371216,2.2630615,0.258667c0.7758789,0.0430908,1.5733032,0,2.2414551-0.0646362   c-0.1077271-0.0431519,0.6466064-0.1724243,1.3363037-0.3448486c0.1724243-0.0431519,0.3448486-0.1077881,0.4957275-0.1508789   s0.2801514-0.0862427,0.3879395-0.1293335c0.1939697-0.0861816,0.2801514-0.1292725,0.1077271-0.1077271   c0.2155762-0.0646973,0.4526367-0.1508789,0.6896973-0.2155762c0.2371216-0.0861816,0.4741821-0.1724243,0.6896973-0.258606   c0.2155151-0.0862427,0.3879395-0.1724243,0.5172729-0.2370605c0.1293335-0.0646973,0.2155151-0.1077881,0.2371216-0.1293335   c0.0646362-0.0862427,0.258606-0.2155151,0.6465454-0.4957275c0.1939697-0.1292725,0.4526367-0.3233032,0.7543335-0.5603638   c0.3017578-0.2370605,0.6466064-0.5603638,1.0130005-0.9698486c0.2802124-0.3233032,0.625061-0.7759399,0.8190308-1.2069702   c0.2155151-0.4310303,0.2801514-0.8190308,0.3016968-0.9699097c0.0216064-0.1292725,0-0.1292725-0.0215454-0.0430908   c-0.0215454,0.0646973-0.0646362,0.2155151-0.1077271,0.3448486c-0.0862427,0.258667-0.1939697,0.5172729-0.1293335,0.2802124   c-0.258667,0.7327881-0.7327881,1.3793335-1.3363037,1.9397583c-0.5819092,0.5603638-1.2716064,0.991394-2.0043945,1.3577881   c-1.4871216,0.7112427-3.0820312,1.1638794-4.7200928,1.3363037c-1.6380005,0.1724243-3.3190918,0.0430908-4.9140015-0.3879395   c-0.7974854-0.2155762-1.5733643-0.4957275-2.2846069-0.9052734c-0.3448486-0.1939697-0.6681519-0.4310303-0.9699097-0.7112427   c-0.1508789-0.1292725-0.2801514-0.2801514-0.3879395-0.4310303c-0.1077271-0.1508789-0.2155151-0.3017578-0.2801514-0.4525757   c-0.0646973-0.1293335-0.1293335-0.3448486-0.1293335-0.5604248c0.0215454-0.2155151,0.1293335-0.4094849,0.4526367-0.5172729   c0.1723633-0.0646362,0.3879395-0.0861816,0.625-0.1077271c0.258667,0,0.5388184-0.0215454,0.8190308-0.0215454   c0.6034546-0.0430908,1.2285156-0.1077881,1.8966064-0.2370605c1.3363037-0.258667,2.7587891-0.7543945,4.0950317-1.508728   c0.3448486-0.1939697,0.6681519-0.3879395,0.9914551-0.6034546c0.3233032-0.2371216,0.6466064-0.4741821,0.9267578-0.7759399   c0.2802124-0.3016968,0.5388184-0.625,0.7327881-1.0129395l0.0431519-0.0646973   c0.0215454-0.0430908,0.0430908-0.0861816,0.0430908-0.1077271c0.0215454-0.0862427,0.0430908-0.1724243,0.0646362-0.2371216   c0.0646973-0.1723633,0.0646973-0.3232422,0.0862427-0.4741211s0.0215454-0.2802124,0.0215454-0.4526367   c0-0.1508789,0.0215454-0.3233032,0-0.4310303c-0.3879395,0.1724243-0.7759399,0.366394-1.1638794,0.5172729l-0.1939697,0.0646362   c-0.0430908,0.0215454-0.0861816,0.0430908-0.1508789,0.0430908c-0.1077271,0.0216064-0.1939697,0.0646973-0.3016968,0.0862427   c-0.3880005,0.1077881-0.7974854,0.1508789-1.1638794,0.1939697c-0.7758789,0.0431519-1.508667-0.0430908-2.1768188-0.2155151   c-0.1724243-0.0430908-0.3233032-0.0862427-0.4741821-0.1508789c-0.1508789-0.0430908-0.258606-0.1077271-0.366394-0.1724243   c-0.2155151-0.1508789-0.3879395-0.3448486-0.4094849-0.4525757c-0.0216064-0.0646973,0-0.0862427,0.0215454-0.1293335   s0.0646362-0.0646362,0.1293335-0.1077881c0.1292725-0.0861816,0.366394-0.1508179,0.5388184-0.2155151   c0.1077271-0.0430908,0.2370605-0.0861816,0.3448486-0.1292725c1.0560303-0.3880005,2.2199097-0.8190308,3.3406372-1.250061   c1.1207886-0.4310913,2.1768799-0.8621216,3.0605469-1.0345459c0.4094849-0.0862427,0.8189697-0.1293335,1.2285156-0.1077881   c0.4094849,0.0215454,0.8189697,0.0862427,1.2285156,0.2155151c-0.366394-0.1292725-0.7112427-0.2370605-1.0345459-0.2801514   c0.8621216,0.0861816,1.6595459,0.4525757,1.9613037,0.5819092c0.4310303,0.1939697,0.6681519,0.3448486,0.8190308,0.4095459   c0.1292725,0.0646362,0.1508179,0.0646362,0.1077271,0.0215454c-0.0861816-0.0862427-0.4525757-0.3448486-0.7758789-0.5388184   c-0.4190063-0.2394409,0.1082764-0.0418091-0.4072876-0.3008423c-0.0006104-0.0002441-0.0016479-0.0006714-0.0022583-0.0009155   c-0.0647583-0.0258789-0.0910034-0.0396118-0.090332-0.0452881c-0.0152588-0.0074463-0.0223389-0.0113525-0.0389404-0.0194092   c0.0166626,0.0070801,0.0281982,0.0127563,0.0443115,0.0196533c0.0042114-0.0021973,0.0037842-0.0056763,0.0418701,0.0019531   c0.5388184,0.2370605,1.0991821,0.5388184,1.6164551,0.8620605c-0.0380859-0.0380859-0.2166138-0.1600342-0.4401855-0.2965698   c0.1517944,0.0883789,0.2654419,0.1553345,0.2893066,0.1672974c0.0144043,0-0.2122192-0.1436157-0.4407959-0.277832   c0.6531982,0.3670654,1.1414795,0.7050781,1.3460693,0.8166504c0.2370605,0.1508789,0.1292725,0.0215454-0.5604248-0.4741821   c0.4957275,0.3233032,1.142334,0.8405762,1.6380615,1.2069702c-0.2371216-0.1939697-0.6681519-0.5172729-0.883667-0.6896973   c0.2801514,0.2155151,0.5603638,0.4310303,0.8405151,0.6466064c-0.0430908-0.0431519-0.0861816-0.0862427-0.1292725-0.1293335   c-0.1939697-0.1724243-0.4095459-0.3233032-0.625061-0.4957275c0.1939697,0.1508789,0.366394,0.2802124,0.5603638,0.4310913   c-0.1292725-0.1077881-0.2801514-0.258667-0.4525757-0.3880005c-0.6466064-0.5172729-1.3147583-0.991394-1.7242432-1.2285156   c-0.8190308-0.4525757-1.7242432-0.8189697-2.7156372-0.9052124c-0.9914551-0.1077271-1.9613037,0.1293335-2.8449707,0.4095459   c-0.883667,0.3016968-1.7026978,0.625-2.5648193,0.9267578c-0.8621216,0.2585449-1.7026367,0.5818481-2.5432129,0.8835449   C50.2028198,78.6413574,50.3967896,78.5767212,50.1165771,78.7060547z M60.5912476,77.4776001   c0.0356445,0.0200806,0.0686646,0.0391846,0.1035767,0.059021c-0.0633545-0.0346069-0.1260376-0.0702515-0.1897583-0.1021118   c-0.4310303-0.2370605-0.8405762-0.3879395-0.7974854-0.3879395   C59.8584595,77.0896606,60.2463989,77.2836304,60.5912476,77.4776001z"/><path d="M59.8822632,77.1983643c0.0527954,0.0211182,0.1210938,0.0474854,0.199585,0.0813599   c-0.0874023-0.0405273-0.182251-0.0825806-0.2868042-0.1273193c-0.0005493,0.0003052-0.0053101-0.0006714-0.0053711-0.0002441   C59.8259277,77.1699219,59.8531494,77.1837158,59.8822632,77.1983643z"/><path d="M60.354187,77.4129639c-0.0075684-0.0042114-0.0134888-0.0062256-0.0209961-0.0103149   c0.236084,0.1201172,0.4529419,0.2443237,0.7537842,0.4197998C61.130127,77.8224487,60.7205811,77.5853882,60.354187,77.4129639z"/><path d="M63.6577759,79.2857056c-0.0288086,0.0015259-0.0562134,0.0022583-0.0922241,0.0022583   C63.5655518,79.2958984,63.6091309,79.2914429,63.6577759,79.2857056z"/><path d="M63.7168579,79.2791748c-0.020752,0.0024414-0.0385742,0.0040894-0.059082,0.0065308   C63.6745605,79.28479,63.6982422,79.2814941,63.7168579,79.2791748z"/><path d="M63.3500366,79.5250854l-0.1724243,0.0215454l0.0431519,0.0215454c0.0430908,0,0.0861816,0,0.1292725,0   l-0.1077271,0.0215454c0.0215454,0.0215454,0.0646362,0.0215454,0.1077271,0.0215454   c0.1508789,0.0215454,0.2802124,0.0430908,0.3448486,0.0430908c0.5603638-0.1724243,1.1638794-0.2801514,1.7457886-0.4310303   c0-0.0215454-0.0430908-0.0215454,0-0.0430908c0.1508789-0.0431519,0.2801514-0.0431519,0.4310303-0.1077881v-0.0215454   c0.1293335-0.0215454,0.258667-0.0430908,0.3879395-0.0646362c0.2371216-0.0862427,0.4526367-0.1508789,0.6681519-0.258667   c0,0-0.0215454-0.0215454,0-0.0215454c0.0862427-0.0430908,0.2155151-0.0862427,0.366394-0.1293335l0.0646973-0.0215454   c0.0215454-0.0215454,0.0215454-0.0215454,0.0215454-0.0215454c0.0646362-0.0215454,0.1077271-0.0430908,0.1724243-0.0646362   c0.625-0.3233032,1.2285156-0.7112427,1.8319702-1.1638794c0.1293335-0.1077271,0.2370605-0.2155151,0.366394-0.3016968   c0.1939697-0.1293335,0.4310913-0.2802124,0.625061-0.4095459c-0.0862427-0.0646362,0.3016968-0.4310303,0.1724243-0.4310303   c0.1292725-0.0862427,0.2801514-0.2155762,0.2801514-0.258667c-0.0215454-0.0861816,0-0.2370605,0.258667-0.5172729   c0.1077271-0.1077271,0.3016968-0.2370605,0.3233032-0.2801514c0.0430908-0.0862427-0.1940308,0.0861816-0.1508789,0.0215454   c-0.4095459,0.366394-0.8190308,0.7112427-1.250061,1.0345459c-0.4310913,0.3233032-0.883667,0.625-1.3578491,0.9052124   c-0.1508789,0.1077271-0.7974854,0.4957275-1.4871216,0.7974243c-0.7112427,0.3017578-1.4871826,0.5388184-1.7888794,0.625061   l-0.0646973,0.0215454c-0.1724243,0.0430908-0.366394,0.0862427-0.5603638,0.1293335s-0.366394,0.0861816-0.5172729,0.1508789   c-0.1293335,0.0430908-0.258606,0.0861816-0.4094849,0.1508179c0.0646362,0,0.1293335,0.0216064,0.1939697,0.0216064   c-0.1508789,0.0215454-0.2802124,0.0430908-0.3448486,0.0646362c-0.3017578,0.0861816-0.1293335,0.1077271,0,0.1508789   c0.0861816,0.0215454-0.0215454,0.0861816,0.1293335,0.0861816c-0.036499,0.0073242-0.0599976,0.0095825-0.0858154,0.0127563   c0.0629883-0.0073242,0.1165161-0.0116577,0.0858154,0.0087891c-0.0862427,0-0.1939697,0.0215454-0.3017578,0.0431519   c0.0102539,0.0102539,0.036499,0.0137329,0.0681152,0.0144043c-0.0230713,0.0055542-0.0415649,0.0136719-0.0465698,0.0286865   c0,0,0.0862427,0,0.1508789,0c-0.3017578,0.0430908-0.4741821,0.1077881-0.1724243,0.1293335   c-0.1077271,0-0.2370605,0-0.3448486,0.0215454C63.1991577,79.5250854,63.3069458,79.5250854,63.3500366,79.5250854z    M63.8242188,79.3311157c-0.0169678,0.0084839-0.0658569,0.006958-0.117981,0.0059204   C63.7749634,79.3294678,63.8339844,79.3213501,63.8242188,79.3311157z"/><path d="M63.9581909,85.1052856c-0.0755615,0.0010376-0.1481934,0.0019531-0.2417603,0.0019531   C63.708313,85.1153564,63.8222046,85.1112671,63.9581909,85.1052856z"/><path d="M64.2418823,85.09375c-0.0830078,0.0024414-0.1877441,0.0073242-0.2836914,0.0115356   C64.046936,85.104126,64.1473999,85.0994263,64.2418823,85.09375z"/><path d="M38.8799438,94.4109497c-0.1152954-0.0178833-0.2302246-0.0375366-0.3803711-0.0575562   C38.4804077,94.3725586,38.6830444,94.3917847,38.8799438,94.4109497z"/><path d="M66.2596436,85.9478149c-0.366394,0.2801514-0.7327881,0.5819092-1.0991821,0.8621216   c-0.366394,0.2801514-0.7543335,0.5388184-1.1207275,0.7974243l-0.5604248,0.3879395   c-0.1939697,0.1293335-0.3879395,0.2371216-0.5819092,0.366394l-1.1638184,0.7328491   c-0.4095459,0.2155151-0.7974854,0.4525757-1.2069702,0.6680908c-0.1939697,0.1077881-0.4095459,0.2371216-0.6035156,0.3233032   l-0.625,0.3017578l-0.625061,0.3017578c-0.2155151,0.1077271-0.4094849,0.2155151-0.625,0.3017578   c-0.4310913,0.1724243-0.8621216,0.366394-1.2932129,0.5388184c-0.0646362,0.0430908-0.1723633,0.0861816-0.3016968,0.1292725   c-0.1293335,0.0431519-0.2802124,0.1077881-0.4526367,0.1724243c-0.3448486,0.1293335-0.7543335,0.2802124-1.250061,0.4526367   s-1.0345459,0.3232422-1.6164551,0.4956665c-0.1508789,0.0431519-0.3017578,0.0862427-0.4525757,0.1293335   c-0.1508789,0.0430908-0.3017578,0.0862427-0.4526367,0.1077881c-0.3017578,0.0861816-0.625061,0.1508789-0.9483032,0.2370605   c-1.2716675,0.3017578-2.5863647,0.5172729-3.7070923,0.6681519c-0.5604248,0.0861816-1.0992432,0.1292725-1.5518188,0.1508179   c-0.4526367,0.0431519-0.8190308,0.0646973-1.0991821,0.0862427h-0.1939697c-0.3017578,0-0.625061,0.0215454-0.9483643,0.0215454   s-0.6465454,0.0430908-0.9698486,0.0215454c-0.6466064-0.0215454-1.2716064-0.0215454-1.7888794-0.0215454   c-0.4741821-0.0215454-0.9483643-0.0215454-1.4224854-0.0430908c0.2155151,0.0430908,0.4310303,0.0646362,0.6034546,0.1077271   c-0.4957275-0.0430908-0.9698486-0.0861816-1.1638794-0.0861816c-1.0344849-0.1077881-0.4525757,0.0215454-0.0646362,0.1508789   c0.2802124,0.0646362-0.1077881,0.0646362,0.3448486,0.1508789c-0.1275635-0.0084839-0.223999-0.0222778-0.3231201-0.0361938   c0.1992188,0.0349731,0.3803101,0.0376587,0.2800293,0.0577393c-0.3233032-0.0431519-0.6681519-0.0862427-0.9914551-0.1293335   c0.0430908,0.0215454,0.3448486,0.0646362,0.6035156,0.1077881c0.258606,0.0430908,0.4956665,0.0646362,0.4741211,0.0861816   c-0.1724243,0-0.9052124-0.1724243-0.9698486-0.1292725c-0.0215454,0,0.3016968,0.0430908,0.4741211,0.0861816   c-0.991394-0.1293335-1.5517578-0.1508789-0.6465454,0.0215454c-0.31427-0.0418701-0.7282715-0.1234131-1.0679932-0.1676025   c0.0229492,0.0040894,0.057373,0.019165,0.0765381,0.0383301c0.0344849,0.0049438,0.0657959,0.0098267,0.0985107,0.0147705   c0.0775757,0.0229492,0.1607666,0.0535278,0.2678833,0.0714111c0.4526367,0.0862427,0.883667,0.1939697,1.1207886,0.2370605   c0.1292725,0.0215454,0.2370605,0.0431519,0.366394,0.0431519l0.366394,0.0430908l0.7543335,0.0646362l0.7543335,0.0646973   c0.258667,0.0215454,0.4957275,0.0215454,0.7543335,0.0215454C42.206665,94.9784546,42.7023926,95,43.2196655,95   c0.4526367,0,0.9699097-0.0215454,1.4656372-0.0215454c0-0.0215454-0.1077881-0.0215454,0.0646362-0.0430908   c0.258667-0.0215454,0.4957275-0.0215454,0.7327881-0.0215454s0.4741821-0.0215454,0.7327881-0.0431519l0.0431519-0.0215454   c0.4094849-0.0215454,0.8189697-0.0215454,1.250061-0.0861816c0.7758789-0.1077881,1.5733032-0.2155762,2.3276978-0.3880005   c-0.0216064,0-0.0431519-0.0215454,0.0430908-0.0215454c0.3233032-0.0646362,0.7543335-0.1292725,1.2285156-0.2370605   c0.0646362-0.0215454,0.1293335-0.0430908,0.1939697-0.0430908c0.0430908-0.0215454,0.0646362-0.0215454,0.0646362-0.0430908   c0.2155762-0.0431519,0.3879395-0.0862427,0.5603638-0.1293335c2.2199707-0.6034546,4.3967896-1.4009399,6.6598511-2.4785767   c0.4741821-0.258606,0.9267578-0.5172729,1.3793945-0.7327881c0.3448486-0.1508789,0.7112427-0.3879395,1.0991821-0.5819702   c0.366394-0.2155151,0.7543335-0.4094849,1.0776367-0.5819092c-0.1508789-0.0215454,1.3578491-1.0130005,0.9914551-0.9052124   c0.4310303-0.2370605,1.0129395-0.6681519,1.0345459-0.7112427c0.0215454-0.0646362,0.0861816-0.1724243,0.3016968-0.366394   c0.1077881-0.0862427,0.2371216-0.2155151,0.3879395-0.3448486c0.1724243-0.1293335,0.366394-0.3017578,0.6035156-0.5172729   c0.3879395-0.3233032,1.0129395-0.7758789,1.1422729-0.9052124C66.7984619,85.5814209,66.0656738,86.1417847,66.2596436,85.9478149   z"/><path d="M37.1202393,94.3533936c0.0096436,0.0012207,0.0214233,0.00354,0.031189,0.0048218   c-0.0003662-0.000061-0.0009766-0.0006104-0.0013428-0.0006714C37.1412964,94.3563843,37.12854,94.3544312,37.1202393,94.3533936z"/><path d="M38.8799438,94.4109497c0.0349731,0.0053711,0.0800781,0.0090942,0.1155396,0.0140381   c-0.0147705-0.0025635-0.0283813-0.0039673-0.0432739-0.006958C38.9285889,94.4156494,38.9041748,94.4133301,38.8799438,94.4109497   z"/><path d="M37.1417847,94.3533936c0.0020752,0,0.0058594,0.0037842,0.0083008,0.0041504   c0.1734619,0.0223389,0.4299927,0.0615845,0.5736084,0.0820923L37.1417847,94.3533936z"/><path d="M62.2939453,56.5712891c-0.1723633-0.1724243-1.0560303-1.4871216-1.250061-1.8535767l-0.0215454-0.0215454   c-0.1077271-0.1939697-0.258606-0.4310303-0.3879395-0.5603638c-0.0646362-0.0646362-0.1293335-0.1293335-0.1939697-0.1939697   c0,0.0430908,0.0215454,0.0862427,0.0215454,0.1293335c-0.0430908-0.0862427-0.0861816-0.1508789-0.1293335-0.1724243   c-0.1292725-0.1508789-0.1292725-0.0215454-0.1508179,0.0646362c0,0.0646973-0.0646973,0.0215454-0.0646973,0.1077881   c-0.001709-0.003479-0.003479-0.006897-0.005188-0.010376c0.0016479,0.0096436-0.0012207,0.0153809-0.0163574,0.010376   c-0.0215454-0.0646362-0.0646362-0.1077881-0.0861816-0.1508789c-0.0095825,0.019165,0.0099487,0.0615234,0.0287476,0.1005249   c-0.0133057-0.0368042-0.0291748-0.0679932-0.050293-0.0574341c0,0,0.0215454,0.0646362,0.0430908,0.0862427   c-0.1077881-0.1508789-0.1939697-0.2155762-0.1508789-0.0431519c-0.0145874-0.0291138-0.0317993-0.0772705-0.0529785-0.1257935   c0.0047607,0.0153198,0.0098877,0.0316772,0.0098877,0.0396118l-0.0430908-0.0862427v0.0215454   c0,0.0216064,0.0215454,0.0431519,0.0215454,0.0646973l-0.0431519-0.0646973c0,0.0216064,0,0.0431519,0,0.0646973   c0.0216064,0.0861816,0.0216064,0.1724243,0.0431519,0.2155151c0.1939087,0.366394,0.366333,0.6896973,0.5603027,0.9914551   c0.0215454,0,0.0215454-0.0430908,0.0431519-0.0215454c0.0646362,0.0646362,0.0646362,0.1724243,0.1077271,0.2370605h0.0215454   c0.0215454,0.0646362,0.0646973,0.1508789,0.0862427,0.2155151c0.0861816,0.1293335,0.1724243,0.2371216,0.2370605,0.3448486   c0,0,0.0215454-0.0215454,0.0215454,0c0.0431519,0.0431519,0.0646973,0.1293335,0.1077881,0.1939697l0.0215454,0.0215454h0.0215454   c0.0215454,0.0431519,0.0431519,0.0646973,0.0431519,0.0862427c0.2801514,0.3233032,0.5603638,0.6466064,0.883667,0.9914551   c0.0861816,0.0646362,0.1508179,0.1292725,0.2155151,0.1939697c0.0861816,0.1077271,0.1724243,0.258606,0.2370605,0.366394   c0.0646362-0.0646973,0.3017578,0.1724243,0.3448486,0.0646362c0.0430908,0.0646362,0.1293335,0.1939697,0.1508789,0.1724243   c0.0861816-0.0215454,0.1939697-0.0215454,0.3879395,0.1293335c0.0646362,0.0646362,0.1293335,0.1939697,0.1508789,0.2155151   c0.0430908,0.0215454-0.0215454-0.1293335,0.0215454-0.1077881C63.0914307,57.6489258,62.6819458,57.1316528,62.2939453,56.5712891   z M60.0466919,54.0458374c0.0175781,0.0344238,0.036438,0.0684204,0.0273438,0.0684204   C60.0654907,54.1057129,60.0565796,54.0762329,60.0466919,54.0458374z"/><path d="M60.0834961,54.0038452c-0.0103149-0.0206909-0.0206909-0.0413208-0.0310059-0.0620117   C60.0429077,53.9418335,60.0637207,53.9724731,60.0834961,54.0038452z"/><path d="M59.8270874,53.8806763c-0.0081787-0.0263062-0.0195923-0.0545654-0.0332031-0.0681763   C59.8078613,53.8334961,59.8169556,53.8573608,59.8270874,53.8806763z"/><path d="M60.0834961,54.0038452c0.0095215,0.0189209,0.0189209,0.0380249,0.0284424,0.0569458   C60.1096191,54.0475464,60.0977173,54.0263672,60.0834961,54.0038452z"/></g><text x="0" y="115" fill="#000000" font-size="5px" font-weight="bold" font-family="'Helvetica Neue', Helvetica, Arial-Unicode, Arial, Sans-serif">Created by Waitala</text><text x="0" y="120" fill="#000000" font-size="5px" font-weight="bold" font-family="'Helvetica Neue', Helvetica, Arial-Unicode, Arial, Sans-serif">from the Noun Project</text></svg>