<?xml version="1.0" encoding="UTF-8" standalone="no"?>
<svg
   xmlns:dc="http://purl.org/dc/elements/1.1/"
   xmlns:cc="http://creativecommons.org/ns#"
   xmlns:rdf="http://www.w3.org/1999/02/22-rdf-syntax-ns#"
   xmlns:svg="http://www.w3.org/2000/svg"
   xmlns="http://www.w3.org/2000/svg"
   xmlns:sodipodi="http://sodipodi.sourceforge.net/DTD/sodipodi-0.dtd"
   xmlns:inkscape="http://www.inkscape.org/namespaces/inkscape"
   viewBox="0 0 60 60"
   x="0px"
   y="0px"
   version="1.1"
   id="svg18"
   sodipodi:docname="noun_Baby_3635433.svg"
   width="60"
   height="60"
   inkscape:version="0.92.5 (2060ec1f9f, 2020-04-08)">
  <metadata
     id="metadata24">
    <rdf:RDF>
      <cc:Work
         rdf:about="">
        <dc:format>image/svg+xml</dc:format>
        <dc:type
           rdf:resource="http://purl.org/dc/dcmitype/StillImage" />
        <dc:title>Baby Cute Cartoon Boy Bald</dc:title>
      </cc:Work>
    </rdf:RDF>
  </metadata>
  <defs
     id="defs22" />
  <sodipodi:namedview
     pagecolor="#ffffff"
     bordercolor="#666666"
     borderopacity="1"
     objecttolerance="10"
     gridtolerance="10"
     guidetolerance="10"
     inkscape:pageopacity="0"
     inkscape:pageshadow="2"
     inkscape:window-width="1856"
     inkscape:window-height="983"
     id="namedview20"
     showgrid="false"
     fit-margin-top="0"
     fit-margin-left="0"
     fit-margin-right="0"
     fit-margin-bottom="0"
     inkscape:zoom="2.95"
     inkscape:cx="-15.372879"
     inkscape:cy="20.072714"
     inkscape:window-x="1664"
     inkscape:window-y="0"
     inkscape:window-maximized="1"
     inkscape:current-layer="svg18" />
  <title
     id="title2">Baby Cute Cartoon Boy Bald</title>
  <ellipse
     id="path12"
     cx="29.830511"
     cy="30.915253"
     rx="29.830511"
     ry="25.084747"
     style="fill:#cccccc;stroke-width:0.82854414" />
  <g
     id="g12"
     transform="translate(-2.1694889,-3.8597473)">
    <path
       d="m 10.19,41.61 c 3.06,8.53 11.68,14.7 21.81,14.7 10.13,0 18.75,-6.17 21.81,-14.7 C 56.68,41.51 59,38.79 59,35.46 59,32.31 56.92,29.7 54.26,29.35 51.68,20.09 42.68,13.24 32,13.24 21.32,13.24 12.32,20.09 9.74,29.35 7.08,29.7 5,32.31 5,35.46 c 0,3.33 2.32,6.05 5.19,6.15 z M 57,35.46 a 4.06,4.06 0 0 1 -2.56,4 20.08,20.08 0 0 0 0.3,-7.93 4.19,4.19 0 0 1 2.26,3.93 z M 28.51,15.53 c -1.91,1.9 -3.31,4.69 -1.77,8 a 1,1 0 0 0 0.91,0.58 1,1 0 0 0 0.9,-1.41 c -1.91,-4.17 2.63,-6.92 3.68,-7.49 0.39,0 0.77,0 1.16,0.06 -1.14,1.94 -1.88,4.53 0,6.18 A 1,1 0 0 0 34.72,20 c -1.21,-1 0.22,-3.42 0.91,-4.42 9.85,1.58 17.37,9.58 17.37,19.2 0,10.77 -9.42,19.53 -21,19.53 -11.58,0 -21,-8.76 -21,-19.53 0,-9.67 7.59,-17.69 17.51,-19.25 z m -19.25,16 a 20.08,20.08 0 0 0 0.3,7.93 4.06,4.06 0 0 1 -2.56,-4 4.19,4.19 0 0 1 2.26,-3.91 z"
       id="path4"
       inkscape:connector-curvature="0" />
    <path
       d="m 20.68,34.75 a 1,1 0 0 0 1,-1 1.87,1.87 0 0 1 1.61,-2.05 1.87,1.87 0 0 1 1.61,2.05 1,1 0 0 0 2,0 3.86,3.86 0 0 0 -3.61,-4.05 3.86,3.86 0 0 0 -3.61,4.05 1,1 0 0 0 1,1 z"
       id="path6"
       inkscape:connector-curvature="0" />
    <path
       d="m 37.23,34.75 a 1,1 0 0 0 1,-1 1.87,1.87 0 0 1 1.61,-2.05 1.87,1.87 0 0 1 1.61,2.05 1,1 0 0 0 2,0 3.86,3.86 0 0 0 -3.61,-4.05 3.86,3.86 0 0 0 -3.61,4.05 1,1 0 0 0 1,1 z"
       id="path8"
       inkscape:connector-curvature="0" />
    <path
       d="m 32,47.38 a 5.36,5.36 0 0 0 5.35,-5.38 1,1 0 0 0 -2,0 3.35,3.35 0 1 1 -6.7,0 1,1 0 0 0 -2,0 5.36,5.36 0 0 0 5.35,5.38 z"
       id="path10"
       inkscape:connector-curvature="0" />
  </g>
</svg>
